%TF.GenerationSoftware,KiCad,Pcbnew,(6.0.4)*%
%TF.CreationDate,2023-07-08T23:20:56+08:00*%
%TF.ProjectId,STM32G431CBT6,53544d33-3247-4343-9331-434254362e6b,rev?*%
%TF.SameCoordinates,Original*%
%TF.FileFunction,Soldermask,Top*%
%TF.FilePolarity,Negative*%
%FSLAX46Y46*%
G04 Gerber Fmt 4.6, Leading zero omitted, Abs format (unit mm)*
G04 Created by KiCad (PCBNEW (6.0.4)) date 2023-07-08 23:20:56*
%MOMM*%
%LPD*%
G01*
G04 APERTURE LIST*
G04 Aperture macros list*
%AMRoundRect*
0 Rectangle with rounded corners*
0 $1 Rounding radius*
0 $2 $3 $4 $5 $6 $7 $8 $9 X,Y pos of 4 corners*
0 Add a 4 corners polygon primitive as box body*
4,1,4,$2,$3,$4,$5,$6,$7,$8,$9,$2,$3,0*
0 Add four circle primitives for the rounded corners*
1,1,$1+$1,$2,$3*
1,1,$1+$1,$4,$5*
1,1,$1+$1,$6,$7*
1,1,$1+$1,$8,$9*
0 Add four rect primitives between the rounded corners*
20,1,$1+$1,$2,$3,$4,$5,0*
20,1,$1+$1,$4,$5,$6,$7,0*
20,1,$1+$1,$6,$7,$8,$9,0*
20,1,$1+$1,$8,$9,$2,$3,0*%
G04 Aperture macros list end*
%ADD10C,2.000000*%
%ADD11RoundRect,0.225000X-0.250000X0.225000X-0.250000X-0.225000X0.250000X-0.225000X0.250000X0.225000X0*%
%ADD12R,3.000000X3.000000*%
%ADD13C,3.000000*%
%ADD14RoundRect,0.200000X-0.275000X0.200000X-0.275000X-0.200000X0.275000X-0.200000X0.275000X0.200000X0*%
%ADD15R,0.900000X1.200000*%
%ADD16RoundRect,0.225000X0.250000X-0.225000X0.250000X0.225000X-0.250000X0.225000X-0.250000X-0.225000X0*%
%ADD17RoundRect,0.200000X0.200000X0.275000X-0.200000X0.275000X-0.200000X-0.275000X0.200000X-0.275000X0*%
%ADD18RoundRect,0.225000X-0.017678X0.335876X-0.335876X0.017678X0.017678X-0.335876X0.335876X-0.017678X0*%
%ADD19RoundRect,0.200000X-0.200000X-0.275000X0.200000X-0.275000X0.200000X0.275000X-0.200000X0.275000X0*%
%ADD20C,1.000000*%
%ADD21RoundRect,0.237500X-0.287500X-0.237500X0.287500X-0.237500X0.287500X0.237500X-0.287500X0.237500X0*%
%ADD22R,1.700000X1.700000*%
%ADD23O,1.700000X1.700000*%
%ADD24RoundRect,0.250000X-0.362500X-1.425000X0.362500X-1.425000X0.362500X1.425000X-0.362500X1.425000X0*%
%ADD25RoundRect,0.250000X-0.475000X0.250000X-0.475000X-0.250000X0.475000X-0.250000X0.475000X0.250000X0*%
%ADD26RoundRect,0.225000X0.225000X0.250000X-0.225000X0.250000X-0.225000X-0.250000X0.225000X-0.250000X0*%
%ADD27RoundRect,0.200000X0.275000X-0.200000X0.275000X0.200000X-0.275000X0.200000X-0.275000X-0.200000X0*%
%ADD28R,1.500000X1.500000*%
%ADD29R,1.600000X1.600000*%
%ADD30C,1.600000*%
%ADD31R,2.400000X2.400000*%
%ADD32C,2.400000*%
%ADD33RoundRect,0.150000X0.825000X0.150000X-0.825000X0.150000X-0.825000X-0.150000X0.825000X-0.150000X0*%
%ADD34RoundRect,0.225000X-0.225000X-0.250000X0.225000X-0.250000X0.225000X0.250000X-0.225000X0.250000X0*%
%ADD35R,1.200000X2.200000*%
%ADD36R,5.800000X6.400000*%
%ADD37RoundRect,0.100000X-0.637500X-0.100000X0.637500X-0.100000X0.637500X0.100000X-0.637500X0.100000X0*%
%ADD38RoundRect,0.237500X0.287500X0.237500X-0.287500X0.237500X-0.287500X-0.237500X0.287500X-0.237500X0*%
%ADD39R,1.200000X0.900000*%
%ADD40RoundRect,0.235000X0.940000X1.465000X-0.940000X1.465000X-0.940000X-1.465000X0.940000X-1.465000X0*%
%ADD41R,2.500000X1.800000*%
%ADD42RoundRect,0.075000X0.662500X0.075000X-0.662500X0.075000X-0.662500X-0.075000X0.662500X-0.075000X0*%
%ADD43RoundRect,0.075000X0.075000X0.662500X-0.075000X0.662500X-0.075000X-0.662500X0.075000X-0.662500X0*%
%ADD44R,2.200000X1.200000*%
%ADD45R,6.400000X5.800000*%
%ADD46RoundRect,0.150000X-0.825000X-0.150000X0.825000X-0.150000X0.825000X0.150000X-0.825000X0.150000X0*%
%ADD47RoundRect,0.250000X0.475000X-0.250000X0.475000X0.250000X-0.475000X0.250000X-0.475000X-0.250000X0*%
%ADD48R,1.500000X2.000000*%
%ADD49R,3.800000X2.000000*%
%ADD50RoundRect,0.225000X0.335876X0.017678X0.017678X0.335876X-0.335876X-0.017678X-0.017678X-0.335876X0*%
%ADD51R,1.800000X2.500000*%
%ADD52R,3.300000X2.500000*%
%ADD53R,1.100000X1.100000*%
%ADD54R,1.400000X1.200000*%
G04 APERTURE END LIST*
D10*
%TO.C,REF\u002A\u002A*%
X112776000Y-61976000D03*
%TD*%
%TO.C,REF\u002A\u002A*%
X163576000Y-107696000D03*
%TD*%
%TO.C,REF\u002A\u002A*%
X75692000Y-118872000D03*
%TD*%
D11*
%TO.C,C25*%
X134112000Y-77965000D03*
X134112000Y-79515000D03*
%TD*%
D12*
%TO.C,J5*%
X166116000Y-69088000D03*
D13*
X166116000Y-64008000D03*
%TD*%
D14*
%TO.C,R40*%
X160528000Y-124143000D03*
X160528000Y-125793000D03*
%TD*%
D15*
%TO.C,D6*%
X110618000Y-83186000D03*
X113918000Y-83186000D03*
%TD*%
D16*
%TO.C,C10*%
X145288000Y-114300000D03*
X145288000Y-112750000D03*
%TD*%
D17*
%TO.C,R4*%
X105981000Y-118364000D03*
X104331000Y-118364000D03*
%TD*%
D15*
%TO.C,D8*%
X130938000Y-99568000D03*
X134238000Y-99568000D03*
%TD*%
D18*
%TO.C,C6*%
X107599513Y-115054284D03*
X106503497Y-116150300D03*
%TD*%
D14*
%TO.C,R52*%
X101600000Y-125159000D03*
X101600000Y-126809000D03*
%TD*%
D19*
%TO.C,R31*%
X113666000Y-85218000D03*
X115316000Y-85218000D03*
%TD*%
D20*
%TO.C,TP7*%
X81889600Y-91948000D03*
%TD*%
D21*
%TO.C,D1*%
X111901000Y-115824000D03*
X113651000Y-115824000D03*
%TD*%
D22*
%TO.C,J1*%
X73152000Y-96027000D03*
D23*
X73152000Y-98567000D03*
X73152000Y-101107000D03*
%TD*%
D24*
%TO.C,R43*%
X140801500Y-102616000D03*
X146726500Y-102616000D03*
%TD*%
D20*
%TO.C,TP4*%
X76098400Y-91948000D03*
%TD*%
D25*
%TO.C,C40*%
X72644000Y-121093000D03*
X72644000Y-122993000D03*
%TD*%
D14*
%TO.C,R13*%
X161544000Y-116015000D03*
X161544000Y-117665000D03*
%TD*%
D26*
%TO.C,C7*%
X102375000Y-103632000D03*
X100825000Y-103632000D03*
%TD*%
D17*
%TO.C,R39*%
X132588000Y-101600000D03*
X130938000Y-101600000D03*
%TD*%
D20*
%TO.C,TP9*%
X91948000Y-107188000D03*
%TD*%
D24*
%TO.C,R44*%
X140293500Y-107188000D03*
X146218500Y-107188000D03*
%TD*%
D27*
%TO.C,R23*%
X145288000Y-122554000D03*
X145288000Y-120904000D03*
%TD*%
D11*
%TO.C,C24*%
X122707918Y-112192000D03*
X122707918Y-113742000D03*
%TD*%
D28*
%TO.C,key_1*%
X76872000Y-113284000D03*
X84672000Y-113284000D03*
%TD*%
D19*
%TO.C,R3*%
X115190000Y-115824000D03*
X116840000Y-115824000D03*
%TD*%
D20*
%TO.C,TP2*%
X94488000Y-112268000D03*
%TD*%
D17*
%TO.C,R51*%
X140017000Y-63500000D03*
X138367000Y-63500000D03*
%TD*%
%TO.C,R35*%
X165417000Y-124218000D03*
X163767000Y-124218000D03*
%TD*%
D22*
%TO.C,J2*%
X98816000Y-121920000D03*
D23*
X101356000Y-121920000D03*
X103896000Y-121920000D03*
X106436000Y-121920000D03*
%TD*%
D20*
%TO.C,TP1*%
X108712000Y-112776000D03*
%TD*%
D19*
%TO.C,R53*%
X88583000Y-77216000D03*
X90233000Y-77216000D03*
%TD*%
D29*
%TO.C,C41*%
X86868000Y-67730380D03*
D30*
X86868000Y-65230380D03*
%TD*%
D14*
%TO.C,R34*%
X160528000Y-120587000D03*
X160528000Y-122237000D03*
%TD*%
%TO.C,R58*%
X89916000Y-71819000D03*
X89916000Y-73469000D03*
%TD*%
D31*
%TO.C,C29*%
X129032000Y-64732041D03*
D32*
X129032000Y-69732041D03*
%TD*%
D19*
%TO.C,R8*%
X138875000Y-114275000D03*
X140525000Y-114275000D03*
%TD*%
D18*
%TO.C,C8*%
X97068008Y-103591992D03*
X95971992Y-104688008D03*
%TD*%
D14*
%TO.C,R25*%
X143764000Y-120904000D03*
X143764000Y-122554000D03*
%TD*%
D16*
%TO.C,C42*%
X82296000Y-68339000D03*
X82296000Y-66789000D03*
%TD*%
D27*
%TO.C,R60*%
X80264000Y-68389000D03*
X80264000Y-66739000D03*
%TD*%
D11*
%TO.C,C4*%
X116332000Y-110653000D03*
X116332000Y-112203000D03*
%TD*%
D33*
%TO.C,U4*%
X98487000Y-77597000D03*
X98487000Y-76327000D03*
X98487000Y-75057000D03*
X98487000Y-73787000D03*
X93537000Y-73787000D03*
X93537000Y-75057000D03*
X93537000Y-76327000D03*
X93537000Y-77597000D03*
%TD*%
D34*
%TO.C,C34*%
X93205000Y-79756000D03*
X94755000Y-79756000D03*
%TD*%
D19*
%TO.C,R48*%
X152137294Y-85692962D03*
X153787294Y-85692962D03*
%TD*%
D16*
%TO.C,C18*%
X143764000Y-125985000D03*
X143764000Y-124435000D03*
%TD*%
D19*
%TO.C,R19*%
X85013000Y-82804000D03*
X86663000Y-82804000D03*
%TD*%
D14*
%TO.C,R14*%
X164592000Y-116015000D03*
X164592000Y-117665000D03*
%TD*%
D35*
%TO.C,Q3*%
X136405000Y-83365000D03*
D36*
X138685000Y-77065000D03*
D35*
X140965000Y-83365000D03*
%TD*%
D37*
%TO.C,U3*%
X88577500Y-88007000D03*
X88577500Y-88657000D03*
X88577500Y-89307000D03*
X88577500Y-89957000D03*
X88577500Y-90607000D03*
X88577500Y-91257000D03*
X88577500Y-91907000D03*
X88577500Y-92557000D03*
X88577500Y-93207000D03*
X88577500Y-93857000D03*
X94302500Y-93857000D03*
X94302500Y-93207000D03*
X94302500Y-92557000D03*
X94302500Y-91907000D03*
X94302500Y-91257000D03*
X94302500Y-90607000D03*
X94302500Y-89957000D03*
X94302500Y-89307000D03*
X94302500Y-88657000D03*
X94302500Y-88007000D03*
%TD*%
D27*
%TO.C,R18*%
X158496000Y-117665000D03*
X158496000Y-116015000D03*
%TD*%
D29*
%TO.C,C23*%
X146304000Y-77724000D03*
D30*
X146304000Y-80224000D03*
%TD*%
D11*
%TO.C,C39*%
X74676000Y-121145000D03*
X74676000Y-122695000D03*
%TD*%
D38*
%TO.C,D14*%
X105015000Y-125234000D03*
X103265000Y-125234000D03*
%TD*%
D39*
%TO.C,D4*%
X88702000Y-86074000D03*
X88702000Y-82774000D03*
%TD*%
D22*
%TO.C,J3*%
X73152000Y-105410000D03*
D23*
X73152000Y-107950000D03*
X73152000Y-110490000D03*
X73152000Y-113030000D03*
X73152000Y-115570000D03*
X73152000Y-118110000D03*
%TD*%
D18*
%TO.C,C5*%
X108752008Y-116291992D03*
X107655992Y-117388008D03*
%TD*%
D27*
%TO.C,R16*%
X128016000Y-113792000D03*
X128016000Y-112142000D03*
%TD*%
%TO.C,R45*%
X120904000Y-113792000D03*
X120904000Y-112142000D03*
%TD*%
D16*
%TO.C,C11*%
X129819922Y-113742000D03*
X129819922Y-112192000D03*
%TD*%
D11*
%TO.C,C35*%
X85344000Y-121145000D03*
X85344000Y-122695000D03*
%TD*%
D29*
%TO.C,C21*%
X110744000Y-76541621D03*
D30*
X110744000Y-79041621D03*
%TD*%
D40*
%TO.C,L1*%
X99037000Y-65024000D03*
X92987000Y-65024000D03*
%TD*%
D41*
%TO.C,D15*%
X98012000Y-70612000D03*
X94012000Y-70612000D03*
%TD*%
D27*
%TO.C,R27*%
X124511836Y-113792000D03*
X124511836Y-112142000D03*
%TD*%
D20*
%TO.C,TP5*%
X78028800Y-91948000D03*
%TD*%
D42*
%TO.C,U1*%
X105818500Y-113240000D03*
X105818500Y-112740000D03*
X105818500Y-112240000D03*
X105818500Y-111740000D03*
X105818500Y-111240000D03*
X105818500Y-110740000D03*
X105818500Y-110240000D03*
X105818500Y-109740000D03*
X105818500Y-109240000D03*
X105818500Y-108740000D03*
X105818500Y-108240000D03*
X105818500Y-107740000D03*
D43*
X104406000Y-106327500D03*
X103906000Y-106327500D03*
X103406000Y-106327500D03*
X102906000Y-106327500D03*
X102406000Y-106327500D03*
X101906000Y-106327500D03*
X101406000Y-106327500D03*
X100906000Y-106327500D03*
X100406000Y-106327500D03*
X99906000Y-106327500D03*
X99406000Y-106327500D03*
X98906000Y-106327500D03*
D42*
X97493500Y-107740000D03*
X97493500Y-108240000D03*
X97493500Y-108740000D03*
X97493500Y-109240000D03*
X97493500Y-109740000D03*
X97493500Y-110240000D03*
X97493500Y-110740000D03*
X97493500Y-111240000D03*
X97493500Y-111740000D03*
X97493500Y-112240000D03*
X97493500Y-112740000D03*
X97493500Y-113240000D03*
D43*
X98906000Y-114652500D03*
X99406000Y-114652500D03*
X99906000Y-114652500D03*
X100406000Y-114652500D03*
X100906000Y-114652500D03*
X101406000Y-114652500D03*
X101906000Y-114652500D03*
X102406000Y-114652500D03*
X102906000Y-114652500D03*
X103406000Y-114652500D03*
X103906000Y-114652500D03*
X104406000Y-114652500D03*
%TD*%
D24*
%TO.C,R50*%
X158581500Y-102616000D03*
X164506500Y-102616000D03*
%TD*%
D44*
%TO.C,Q7*%
X143628000Y-65792000D03*
D45*
X149928000Y-68072000D03*
D44*
X143628000Y-70352000D03*
%TD*%
D17*
%TO.C,R55*%
X87185000Y-75184000D03*
X85535000Y-75184000D03*
%TD*%
D19*
%TO.C,R56*%
X101092000Y-77724000D03*
X102742000Y-77724000D03*
%TD*%
D17*
%TO.C,R28*%
X114300000Y-101600000D03*
X112650000Y-101600000D03*
%TD*%
D34*
%TO.C,C1*%
X89649000Y-114808000D03*
X91199000Y-114808000D03*
%TD*%
D19*
%TO.C,R41*%
X134303000Y-85852000D03*
X135953000Y-85852000D03*
%TD*%
D14*
%TO.C,R57*%
X86868000Y-121095000D03*
X86868000Y-122745000D03*
%TD*%
D27*
%TO.C,R24*%
X145288000Y-126035000D03*
X145288000Y-124385000D03*
%TD*%
D19*
%TO.C,R42*%
X134177000Y-101600000D03*
X135827000Y-101600000D03*
%TD*%
D17*
%TO.C,R46*%
X150739294Y-85692962D03*
X149089294Y-85692962D03*
%TD*%
D24*
%TO.C,R32*%
X122005500Y-102616000D03*
X127930500Y-102616000D03*
%TD*%
D26*
%TO.C,C31*%
X107455000Y-70612000D03*
X105905000Y-70612000D03*
%TD*%
D35*
%TO.C,Q1*%
X117609000Y-83365000D03*
D36*
X119889000Y-77065000D03*
D35*
X122169000Y-83365000D03*
%TD*%
D16*
%TO.C,C15*%
X133375918Y-113742000D03*
X133375918Y-112192000D03*
%TD*%
D27*
%TO.C,R12*%
X143764000Y-114350000D03*
X143764000Y-112700000D03*
%TD*%
D11*
%TO.C,C20*%
X115316000Y-77572000D03*
X115316000Y-79122000D03*
%TD*%
D19*
%TO.C,R1*%
X86551000Y-114808000D03*
X88201000Y-114808000D03*
%TD*%
D46*
%TO.C,U2*%
X149925000Y-115570000D03*
X149925000Y-116840000D03*
X149925000Y-118110000D03*
X149925000Y-119380000D03*
X149925000Y-120650000D03*
X149925000Y-121920000D03*
X149925000Y-123190000D03*
X154875000Y-123190000D03*
X154875000Y-121920000D03*
X154875000Y-120650000D03*
X154875000Y-119380000D03*
X154875000Y-118110000D03*
X154875000Y-116840000D03*
X154875000Y-115570000D03*
%TD*%
D14*
%TO.C,R11*%
X143764000Y-115748000D03*
X143764000Y-117398000D03*
%TD*%
D26*
%TO.C,C37*%
X90183000Y-75184000D03*
X88633000Y-75184000D03*
%TD*%
D17*
%TO.C,R54*%
X90233000Y-78740000D03*
X88583000Y-78740000D03*
%TD*%
D29*
%TO.C,C30*%
X107862380Y-66040000D03*
D30*
X105362380Y-66040000D03*
%TD*%
D17*
%TO.C,R5*%
X106489000Y-77597000D03*
X104839000Y-77597000D03*
%TD*%
%TO.C,R38*%
X132905000Y-85852000D03*
X131255000Y-85852000D03*
%TD*%
D27*
%TO.C,R9*%
X145288000Y-117398000D03*
X145288000Y-115748000D03*
%TD*%
D12*
%TO.C,J4*%
X166116000Y-85344000D03*
D13*
X166116000Y-80264000D03*
X166116000Y-75184000D03*
%TD*%
D14*
%TO.C,R33*%
X159004000Y-120587000D03*
X159004000Y-122237000D03*
%TD*%
D35*
%TO.C,Q4*%
X136405000Y-99113000D03*
D36*
X138685000Y-92813000D03*
D35*
X140965000Y-99113000D03*
%TD*%
D34*
%TO.C,C12*%
X143738000Y-119380000D03*
X145288000Y-119380000D03*
%TD*%
D15*
%TO.C,D5*%
X112268000Y-99568000D03*
X115568000Y-99568000D03*
%TD*%
D27*
%TO.C,R59*%
X88392000Y-73469000D03*
X88392000Y-71819000D03*
%TD*%
D15*
%TO.C,D10*%
X148718000Y-99568000D03*
X152018000Y-99568000D03*
%TD*%
D35*
%TO.C,Q6*%
X154185000Y-99113000D03*
D36*
X156465000Y-92813000D03*
D35*
X158745000Y-99113000D03*
%TD*%
D16*
%TO.C,C16*%
X85852000Y-93739000D03*
X85852000Y-92189000D03*
%TD*%
D39*
%TO.C,D3*%
X91178500Y-86074000D03*
X91178500Y-82774000D03*
%TD*%
D20*
%TO.C,TP3*%
X74168000Y-91948000D03*
%TD*%
D14*
%TO.C,R15*%
X160020000Y-116015000D03*
X160020000Y-117665000D03*
%TD*%
D29*
%TO.C,C26*%
X129540000Y-77557621D03*
D30*
X129540000Y-80057621D03*
%TD*%
D20*
%TO.C,TP8*%
X79959200Y-91948000D03*
%TD*%
D35*
%TO.C,Q5*%
X154185000Y-83365000D03*
D36*
X156465000Y-77065000D03*
D35*
X158745000Y-83365000D03*
%TD*%
D17*
%TO.C,R47*%
X150685000Y-101600000D03*
X149035000Y-101600000D03*
%TD*%
D27*
%TO.C,R7*%
X142240000Y-117398000D03*
X142240000Y-115748000D03*
%TD*%
D17*
%TO.C,R29*%
X112268000Y-85218000D03*
X110618000Y-85218000D03*
%TD*%
D27*
%TO.C,R36*%
X162052000Y-125793000D03*
X162052000Y-124143000D03*
%TD*%
D15*
%TO.C,D7*%
X130953326Y-83434109D03*
X134253326Y-83434109D03*
%TD*%
D11*
%TO.C,C19*%
X126315754Y-112192000D03*
X126315754Y-113742000D03*
%TD*%
D39*
%TO.C,D2*%
X93655000Y-86074000D03*
X93655000Y-82774000D03*
%TD*%
D35*
%TO.C,Q2*%
X117609000Y-99113000D03*
D36*
X119889000Y-92813000D03*
D35*
X122169000Y-99113000D03*
%TD*%
D27*
%TO.C,R17*%
X163068000Y-117665000D03*
X163068000Y-116015000D03*
%TD*%
D47*
%TO.C,C13*%
X99568000Y-88326000D03*
X99568000Y-86426000D03*
%TD*%
D19*
%TO.C,R6*%
X104839000Y-79248000D03*
X106489000Y-79248000D03*
%TD*%
D20*
%TO.C,TP6*%
X83820000Y-91948000D03*
%TD*%
D48*
%TO.C,U5*%
X94248000Y-121818000D03*
D49*
X91948000Y-128118000D03*
D48*
X91948000Y-121818000D03*
X89648000Y-121818000D03*
%TD*%
D19*
%TO.C,R2*%
X86551000Y-113284000D03*
X88201000Y-113284000D03*
%TD*%
D26*
%TO.C,C38*%
X102642000Y-74676000D03*
X101092000Y-74676000D03*
%TD*%
D34*
%TO.C,C3*%
X111917000Y-114134000D03*
X113467000Y-114134000D03*
%TD*%
D27*
%TO.C,R22*%
X142240000Y-122554000D03*
X142240000Y-120904000D03*
%TD*%
D47*
%TO.C,C33*%
X97536000Y-126934000D03*
X97536000Y-125034000D03*
%TD*%
D34*
%TO.C,C2*%
X89649000Y-113284000D03*
X91199000Y-113284000D03*
%TD*%
D47*
%TO.C,C14*%
X99568000Y-91882000D03*
X99568000Y-89982000D03*
%TD*%
D50*
%TO.C,C9*%
X94138135Y-115294696D03*
X93042119Y-114198680D03*
%TD*%
D28*
%TO.C,reset1*%
X76872000Y-108712000D03*
X84672000Y-108712000D03*
%TD*%
D15*
%TO.C,D9*%
X148772294Y-83660962D03*
X152072294Y-83660962D03*
%TD*%
D47*
%TO.C,C17*%
X99568000Y-95438000D03*
X99568000Y-93538000D03*
%TD*%
D51*
%TO.C,D13*%
X120396000Y-69056000D03*
X120396000Y-65056000D03*
%TD*%
D11*
%TO.C,C27*%
X150876000Y-77965000D03*
X150876000Y-79515000D03*
%TD*%
%TO.C,C28*%
X136652000Y-63475000D03*
X136652000Y-65025000D03*
%TD*%
D16*
%TO.C,C32*%
X99568000Y-126759000D03*
X99568000Y-125209000D03*
%TD*%
D14*
%TO.C,R10*%
X142240000Y-112700000D03*
X142240000Y-114350000D03*
%TD*%
D47*
%TO.C,C36*%
X84836000Y-128191000D03*
X84836000Y-126291000D03*
%TD*%
D19*
%TO.C,R49*%
X152083000Y-101600000D03*
X153733000Y-101600000D03*
%TD*%
D14*
%TO.C,R26*%
X142240000Y-124385000D03*
X142240000Y-126035000D03*
%TD*%
D27*
%TO.C,R37*%
X162052000Y-122237000D03*
X162052000Y-120587000D03*
%TD*%
D19*
%TO.C,R30*%
X115698000Y-101600000D03*
X117348000Y-101600000D03*
%TD*%
D52*
%TO.C,D11*%
X156972000Y-62640000D03*
X156972000Y-69440000D03*
%TD*%
D48*
%TO.C,U6*%
X82056000Y-121818000D03*
D49*
X79756000Y-128118000D03*
D48*
X79756000Y-121818000D03*
X77456000Y-121818000D03*
%TD*%
D16*
%TO.C,C22*%
X159004000Y-125743000D03*
X159004000Y-124193000D03*
%TD*%
D19*
%TO.C,R21*%
X138875000Y-124460000D03*
X140525000Y-124460000D03*
%TD*%
D53*
%TO.C,D12*%
X138547000Y-65532000D03*
X141347000Y-65532000D03*
%TD*%
D27*
%TO.C,R20*%
X131572000Y-113792000D03*
X131572000Y-112142000D03*
%TD*%
D54*
%TO.C,Y1*%
X114300000Y-110744000D03*
X112100000Y-110744000D03*
X112100000Y-112444000D03*
X114300000Y-112444000D03*
%TD*%
M02*
