M48
; DRILL file {KiCad (6.0.4)} date Sat Jul  8 23:20:53 2023
; FORMAT={-:-/ absolute / metric / decimal}
; #@! TF.CreationDate,2023-07-08T23:20:53+08:00
; #@! TF.GenerationSoftware,Kicad,Pcbnew,(6.0.4)
; #@! TF.FileFunction,Plated,1,2,PTH
FMAT,2
METRIC
; #@! TA.AperFunction,Plated,PTH,ViaDrill
T1C0.300
; #@! TA.AperFunction,Plated,PTH,ViaDrill
T2C0.400
; #@! TA.AperFunction,Plated,PTH,ComponentDrill
T3C0.800
; #@! TA.AperFunction,Plated,PTH,ComponentDrill
T4C1.000
; #@! TA.AperFunction,Plated,PTH,ComponentDrill
T5C1.200
; #@! TA.AperFunction,Plated,PTH,ComponentDrill
T6C1.520
%
G90
G05
T1
X71.12Y-124.46
X71.12Y-125.984
X71.12Y-127.508
X71.12Y-129.032
X72.644Y-127.508
X72.644Y-129.032
X72.771Y-124.46
X72.771Y-125.984
X73.558Y-60.96
X73.558Y-65.532
X74.168Y-68.072
X74.168Y-69.596
X74.168Y-71.12
X74.168Y-72.644
X74.168Y-74.168
X74.168Y-75.692
X74.168Y-77.216
X74.168Y-78.74
X74.168Y-80.264
X74.168Y-81.788
X74.168Y-83.312
X74.168Y-84.836
X74.168Y-86.36
X74.168Y-127.508
X74.168Y-129.032
X74.422Y-124.46
X74.422Y-125.984
X74.676Y-62.484
X75.692Y-68.072
X75.692Y-69.596
X75.692Y-71.12
X75.692Y-72.644
X75.692Y-74.168
X75.692Y-75.692
X75.692Y-77.216
X75.692Y-78.74
X75.692Y-80.264
X75.692Y-81.788
X75.692Y-83.312
X75.692Y-84.836
X75.692Y-86.36
X75.692Y-127.508
X75.692Y-129.032
X75.997Y-60.96
X75.997Y-62.484
X75.997Y-64.516
X76.073Y-124.46
X76.073Y-125.984
X77.216Y-68.072
X77.216Y-69.596
X77.216Y-71.12
X77.216Y-72.644
X77.216Y-74.168
X77.216Y-75.692
X77.216Y-77.216
X77.216Y-78.74
X77.216Y-80.264
X77.216Y-81.788
X77.216Y-83.312
X77.216Y-84.836
X77.216Y-86.36
X77.724Y-124.46
X77.724Y-125.984
X78.435Y-60.96
X78.435Y-62.484
X78.435Y-64.516
X78.74Y-68.072
X78.74Y-69.596
X78.74Y-71.12
X78.74Y-72.644
X78.74Y-74.168
X78.74Y-75.692
X78.74Y-77.216
X78.74Y-78.74
X78.74Y-80.264
X78.74Y-81.788
X78.74Y-83.312
X78.74Y-84.836
X78.74Y-86.36
X78.74Y-111.76
X80.264Y-84.836
X80.264Y-86.36
X80.874Y-60.96
X80.874Y-62.484
X80.874Y-64.516
X81.28Y-111.76
X81.28Y-123.952
X81.28Y-125.476
X81.788Y-70.612
X81.788Y-72.136
X81.788Y-74.168
X81.788Y-76.2
X81.788Y-78.232
X81.788Y-79.756
X81.788Y-81.28
X81.788Y-84.836
X81.788Y-86.36
X83.073Y-81.28
X83.312Y-60.96
X83.312Y-62.484
X83.312Y-64.516
X83.312Y-84.836
X83.312Y-86.36
X83.82Y-70.612
X83.82Y-72.136
X83.82Y-74.168
X83.82Y-76.2
X83.82Y-78.232
X83.82Y-79.756
X83.82Y-123.952
X83.82Y-125.476
X84.358Y-81.28
X84.836Y-84.836
X84.836Y-86.36
X84.836Y-92.964
X85.344Y-72.136
X85.344Y-74.168
X85.344Y-76.708
X85.344Y-78.232
X85.643Y-81.28
X85.75Y-60.96
X85.75Y-62.484
X85.75Y-64.516
X85.852Y-79.756
X85.852Y-94.488
X85.852Y-108.712
X85.852Y-114.808
X86.36Y-86.868
X86.36Y-123.952
X86.36Y-125.476
X86.36Y-127.508
X86.36Y-129.032
X86.868Y-93.472
X86.868Y-94.488
X86.928Y-81.28
X87.185Y-71.819
X87.376Y-78.74
X87.63Y-76.962
X87.884Y-79.756
X88.063Y-84.328
X88.189Y-60.96
X88.189Y-62.484
X88.189Y-64.516
X88.213Y-81.28
X88.392Y-123.952
X88.392Y-125.476
X88.392Y-127.508
X88.392Y-129.032
X88.9Y-113.284
X89.348Y-84.328
X89.498Y-81.28
X89.916Y-79.756
X90.424Y-123.952
X90.424Y-125.476
X90.627Y-60.96
X90.627Y-62.484
X90.633Y-84.328
X90.783Y-81.28
X91.199Y-115.583
X91.44Y-79.756
X91.918Y-84.328
X91.948Y-70.104
X91.948Y-71.12
X91.948Y-72.136
X91.948Y-113.284
X91.948Y-119.888
X92.068Y-81.28
X92.964Y-72.136
X93.066Y-60.96
X93.066Y-62.484
X93.203Y-84.328
X93.352Y-81.28
X93.472Y-123.952
X93.472Y-125.476
X93.59Y-113.731
X93.98Y-72.136
X94.488Y-84.328
X94.488Y-102.108
X94.488Y-103.124
X94.637Y-81.28
X94.702Y-114.514
X94.996Y-72.136
X94.996Y-100.584
X94.996Y-123.952
X94.996Y-125.476
X95.504Y-60.96
X95.504Y-62.484
X95.504Y-64.516
X95.504Y-65.532
X95.504Y-66.548
X95.504Y-67.564
X95.504Y-68.58
X95.504Y-73.152
X95.504Y-74.27
X95.504Y-75.387
X95.504Y-78.74
X95.91Y-101.6
X95.922Y-81.28
X95.922Y-82.804
X95.922Y-84.328
X96.012Y-72.136
X96.012Y-79.756
X96.012Y-106.172
X96.012Y-115.824
X96.52Y-73.152
X96.52Y-74.27
X96.52Y-75.387
X96.52Y-121.412
X96.52Y-122.936
X96.52Y-123.952
X96.52Y-125.476
X96.723Y-78.74
X96.825Y-100.584
X97.028Y-64.516
X97.028Y-65.532
X97.028Y-66.548
X97.028Y-67.564
X97.028Y-68.58
X97.028Y-72.136
X97.028Y-116.332
X97.207Y-81.28
X97.207Y-82.804
X97.207Y-84.328
X97.536Y-73.152
X97.536Y-79.756
X97.536Y-105.156
X97.536Y-106.172
X97.739Y-101.6
X97.942Y-60.96
X97.942Y-62.484
X97.942Y-78.74
X98.044Y-72.136
X98.044Y-116.332
X98.492Y-81.28
X98.492Y-82.804
X98.492Y-84.328
X98.552Y-73.152
X98.552Y-123.952
X98.654Y-100.584
X98.755Y-79.756
X99.06Y-72.644
X99.06Y-102.616
X99.06Y-108.204
X99.06Y-109.474
X99.06Y-110.744
X99.06Y-116.332
X99.162Y-78.74
X99.568Y-101.6
X99.777Y-81.28
X99.777Y-82.804
X99.777Y-84.328
X99.974Y-79.756
X100.076Y-112.776
X100.33Y-110.744
X100.381Y-60.96
X100.381Y-62.484
X100.381Y-78.74
X100.482Y-100.584
X100.584Y-102.616
X100.584Y-123.952
X101.062Y-81.28
X101.062Y-82.804
X101.062Y-84.328
X101.194Y-79.756
X101.346Y-112.776
X101.397Y-101.6
X101.406Y-107.502
X101.6Y-76.2
X101.6Y-78.74
X101.6Y-110.744
X102.108Y-104.648
X102.108Y-111.76
X102.108Y-116.84
X102.311Y-100.584
X102.616Y-98.869
X102.616Y-102.616
X102.616Y-112.776
X102.616Y-123.952
X102.883Y-73.66
X102.933Y-78.549
X103.124Y-86.36
X103.124Y-117.856
X103.226Y-101.6
X103.632Y-104.648
X103.632Y-111.76
X104.14Y-100.584
X104.14Y-111.252
X104.648Y-70.612
X104.648Y-102.108
X104.648Y-103.124
X104.648Y-123.952
X106.68Y-118.364
X107.148Y-116.88
X107.696Y-123.444
X108.712Y-125.476
X110.617Y-123.444
X111.252Y-119.38
X112.078Y-125.476
X112.776Y-114.808
X112.837Y-121.412
X113.538Y-123.444
X114.3Y-113.284
X114.3Y-114.3
X114.423Y-119.38
X114.998Y-125.476
X115.316Y-111.76
X115.316Y-113.284
X115.316Y-114.3
X116.008Y-121.412
X116.332Y-113.284
X116.332Y-114.3
X116.459Y-123.444
X117.348Y-111.252
X117.348Y-112.268
X117.348Y-113.284
X117.348Y-114.3
X117.593Y-119.38
X117.919Y-125.476
X118.872Y-110.236
X118.872Y-111.252
X118.872Y-112.268
X118.872Y-113.284
X118.872Y-114.3
X118.872Y-115.824
X118.872Y-117.856
X119.179Y-121.412
X119.38Y-123.444
X120.396Y-82.804
X120.396Y-83.82
X120.396Y-84.836
X120.764Y-119.38
X120.84Y-125.476
X120.904Y-90.424
X120.904Y-91.44
X120.904Y-92.456
X120.904Y-93.472
X120.904Y-94.488
X121.412Y-82.804
X121.412Y-83.82
X121.412Y-84.836
X122.022Y-90.424
X122.022Y-91.44
X122.022Y-92.456
X122.022Y-93.472
X122.022Y-94.488
X122.301Y-123.444
X122.349Y-120.904
X122.428Y-82.804
X122.428Y-83.82
X122.428Y-84.836
X123.139Y-90.424
X123.139Y-91.44
X123.139Y-92.456
X123.139Y-93.472
X123.139Y-94.488
X123.444Y-82.804
X123.444Y-83.82
X123.444Y-84.836
X123.761Y-125.476
X123.934Y-119.38
X124.257Y-90.424
X124.257Y-91.44
X124.257Y-92.456
X124.257Y-93.472
X124.257Y-94.488
X124.46Y-67.056
X124.46Y-68.58
X124.46Y-70.612
X124.46Y-82.804
X124.46Y-83.82
X124.46Y-84.836
X125.222Y-123.444
X125.374Y-90.424
X125.374Y-91.44
X125.374Y-92.456
X125.374Y-93.472
X125.374Y-94.488
X125.476Y-82.804
X125.476Y-83.82
X125.476Y-84.836
X125.476Y-101.6
X125.476Y-102.616
X125.476Y-103.632
X125.52Y-121.412
X126.238Y-101.6
X126.238Y-102.616
X126.238Y-103.632
X126.492Y-82.804
X126.492Y-83.82
X126.492Y-84.836
X126.492Y-90.424
X126.492Y-91.44
X126.492Y-92.456
X126.492Y-93.472
X126.492Y-94.488
X126.577Y-67.056
X126.682Y-125.476
X126.746Y-70.612
X127.0Y-68.58
X127.0Y-101.6
X127.0Y-102.616
X127.0Y-103.632
X127.105Y-119.38
X128.143Y-123.444
X128.69Y-121.412
X128.693Y-67.056
X129.603Y-125.476
X129.82Y-114.528
X130.276Y-119.38
X130.81Y-67.056
X131.064Y-123.444
X132.588Y-68.58
X132.927Y-67.056
X133.376Y-114.58
X138.176Y-67.056
X138.176Y-68.58
X138.875Y-112.459
X139.192Y-83.312
X139.192Y-84.328
X139.192Y-85.344
X139.7Y-90.424
X139.7Y-91.44
X139.7Y-92.456
X139.7Y-93.472
X139.7Y-94.488
X140.195Y-112.942
X140.208Y-67.056
X140.208Y-68.58
X140.208Y-83.312
X140.208Y-84.328
X140.208Y-85.344
X140.208Y-112.268
X140.818Y-90.424
X140.818Y-91.44
X140.818Y-92.456
X140.818Y-93.472
X140.818Y-94.488
X141.211Y-112.942
X141.224Y-83.312
X141.224Y-84.328
X141.224Y-85.344
X141.224Y-106.172
X141.224Y-107.188
X141.224Y-108.204
X141.224Y-112.268
X141.224Y-119.38
X141.732Y-119.888
X141.935Y-90.424
X141.935Y-91.44
X141.935Y-92.456
X141.935Y-93.472
X141.935Y-94.488
X141.986Y-106.172
X141.986Y-107.188
X141.986Y-108.204
X142.24Y-83.312
X142.24Y-84.328
X142.24Y-85.344
X142.24Y-119.38
X142.748Y-67.056
X142.748Y-68.58
X142.748Y-106.172
X142.748Y-107.188
X142.748Y-108.204
X142.748Y-119.888
X143.053Y-90.424
X143.053Y-91.44
X143.053Y-92.456
X143.053Y-93.472
X143.053Y-94.488
X143.256Y-83.312
X143.256Y-84.328
X143.256Y-85.344
X144.17Y-90.424
X144.17Y-91.44
X144.17Y-92.456
X144.17Y-93.472
X144.17Y-94.488
X144.272Y-83.312
X144.272Y-84.328
X144.272Y-85.344
X144.272Y-101.6
X144.272Y-102.616
X144.272Y-103.632
X144.78Y-67.056
X144.78Y-68.58
X145.034Y-101.6
X145.034Y-102.616
X145.034Y-103.632
X145.288Y-83.312
X145.288Y-84.328
X145.288Y-85.344
X145.288Y-90.424
X145.288Y-91.44
X145.288Y-92.456
X145.288Y-93.472
X145.288Y-94.488
X145.796Y-101.6
X145.796Y-102.616
X145.796Y-103.632
X146.812Y-67.056
X146.812Y-68.58
X147.32Y-106.172
X147.32Y-107.188
X147.32Y-108.204
X147.32Y-129.032
X148.336Y-106.172
X148.336Y-107.188
X148.336Y-108.204
X156.972Y-87.884
X156.972Y-88.9
X156.972Y-89.916
X156.972Y-90.932
X156.972Y-91.948
X156.972Y-92.964
X156.972Y-93.98
X156.972Y-94.996
X157.48Y-83.82
X157.48Y-84.836
X157.48Y-85.852
X157.48Y-86.868
X158.496Y-87.884
X158.496Y-88.9
X158.496Y-89.916
X158.496Y-90.932
X158.496Y-91.948
X158.496Y-92.964
X158.496Y-93.98
X158.496Y-94.996
X159.004Y-83.82
X159.004Y-84.836
X159.004Y-85.852
X159.004Y-86.868
X160.02Y-87.884
X160.02Y-88.9
X160.02Y-89.916
X160.02Y-90.932
X160.02Y-91.948
X160.02Y-92.964
X160.02Y-93.98
X160.02Y-94.996
X160.528Y-83.82
X160.528Y-84.836
X160.528Y-85.852
X160.528Y-86.868
X161.982Y-79.453
X161.982Y-80.469
X161.982Y-81.485
X162.052Y-73.861
X162.052Y-74.877
X162.052Y-75.893
X162.052Y-83.82
X162.052Y-84.836
X162.052Y-85.852
X162.052Y-86.868
X162.052Y-101.6
X162.052Y-102.616
X162.052Y-103.632
X162.814Y-101.6
X162.814Y-102.616
X162.814Y-103.632
X162.998Y-79.453
X162.998Y-80.469
X162.998Y-81.485
X163.068Y-73.861
X163.068Y-74.877
X163.068Y-75.893
X163.576Y-83.82
X163.576Y-84.836
X163.576Y-85.852
X163.576Y-86.868
X163.576Y-101.6
X163.576Y-102.616
X163.576Y-103.632
X163.576Y-119.38
X163.576Y-127.0
X164.014Y-79.453
X164.014Y-80.469
X164.014Y-81.485
X164.084Y-73.861
X164.084Y-74.877
X164.084Y-75.893
X164.592Y-120.396
X164.592Y-121.412
X164.592Y-122.428
X165.1Y-73.861
X165.1Y-75.893
X165.1Y-83.82
X165.1Y-86.868
X165.608Y-120.396
X165.608Y-121.412
X165.608Y-122.428
X166.624Y-83.82
X166.624Y-86.868
T2
X76.098Y-88.494
X76.098Y-90.526
X78.029Y-90.627
X78.232Y-87.884
X78.232Y-108.712
X78.232Y-113.284
X80.772Y-96.52
X80.772Y-97.536
X82.296Y-65.532
X82.804Y-96.52
X83.82Y-97.536
X83.82Y-100.076
X85.344Y-98.552
X85.344Y-101.6
X85.852Y-96.012
X86.36Y-100.076
X86.868Y-97.536
X86.868Y-103.124
X87.376Y-101.6
X87.884Y-96.012
X87.884Y-98.552
X88.9Y-97.536
X88.9Y-100.076
X88.9Y-103.124
X89.408Y-105.664
X89.916Y-96.012
X89.916Y-98.552
X90.424Y-101.6
X90.932Y-97.536
X91.44Y-100.076
X91.44Y-103.124
X91.44Y-105.664
X92.456Y-98.552
X92.456Y-101.6
X94.996Y-105.664
X96.012Y-103.124
X99.06Y-112.74
X99.568Y-104.648
X101.092Y-108.204
X101.092Y-109.22
X102.616Y-108.204
X102.616Y-109.22
X103.632Y-103.632
X103.906Y-113.01
X104.14Y-108.204
X104.14Y-109.22
X106.489Y-80.073
X110.92Y-110.744
X118.872Y-104.14
X120.396Y-104.14
X122.708Y-115.036
X123.444Y-104.14
X123.952Y-105.156
X126.316Y-114.984
X134.62Y-105.156
X134.62Y-114.3
X134.62Y-116.84
X135.861Y-114.3
X136.144Y-118.364
X137.16Y-105.156
X138.875Y-116.141
X138.875Y-120.205
X143.74Y-123.33
X143.764Y-118.364
X145.288Y-118.364
X146.178Y-122.554
X146.253Y-126.035
X150.876Y-124.46
X150.876Y-127.0
X151.747Y-125.73
X152.4Y-119.38
X152.4Y-120.65
X152.4Y-121.92
X152.4Y-123.19
X152.618Y-124.46
X152.618Y-127.0
X153.489Y-125.73
X154.359Y-124.46
X154.359Y-127.0
X155.23Y-125.73
X156.101Y-124.46
X156.101Y-127.0
X156.972Y-125.73
X158.582Y-114.215
X159.004Y-119.888
X160.02Y-114.808
X163.14Y-115.173
X164.592Y-125.593
X164.592Y-127.313
X164.592Y-129.032
X166.116Y-125.593
X166.116Y-127.313
X166.116Y-129.032
X167.64Y-125.593
X167.64Y-127.313
X167.64Y-129.032
X169.164Y-125.593
X169.164Y-127.313
X169.164Y-129.032
T3
X86.868Y-65.23
X86.868Y-67.73
X105.362Y-66.04
X107.862Y-66.04
X110.744Y-76.542
X110.744Y-79.042
X129.54Y-77.558
X129.54Y-80.058
X146.304Y-77.724
X146.304Y-80.224
T4
X73.152Y-96.027
X73.152Y-98.567
X73.152Y-101.107
X73.152Y-105.41
X73.152Y-107.95
X73.152Y-110.49
X73.152Y-113.03
X73.152Y-115.57
X73.152Y-118.11
X98.816Y-121.92
X101.356Y-121.92
X103.896Y-121.92
X106.436Y-121.92
T5
X129.032Y-64.732
X129.032Y-69.732
T6
X166.116Y-64.008
X166.116Y-69.088
X166.116Y-75.184
X166.116Y-80.264
X166.116Y-85.344
T0
M30
