%TF.GenerationSoftware,KiCad,Pcbnew,(6.0.4)*%
%TF.CreationDate,2023-07-08T23:20:56+08:00*%
%TF.ProjectId,STM32G431CBT6,53544d33-3247-4343-9331-434254362e6b,rev?*%
%TF.SameCoordinates,Original*%
%TF.FileFunction,Copper,L2,Bot*%
%TF.FilePolarity,Positive*%
%FSLAX46Y46*%
G04 Gerber Fmt 4.6, Leading zero omitted, Abs format (unit mm)*
G04 Created by KiCad (PCBNEW (6.0.4)) date 2023-07-08 23:20:56*
%MOMM*%
%LPD*%
G01*
G04 APERTURE LIST*
%TA.AperFunction,ComponentPad*%
%ADD10R,3.000000X3.000000*%
%TD*%
%TA.AperFunction,ComponentPad*%
%ADD11C,3.000000*%
%TD*%
%TA.AperFunction,ComponentPad*%
%ADD12R,1.700000X1.700000*%
%TD*%
%TA.AperFunction,ComponentPad*%
%ADD13O,1.700000X1.700000*%
%TD*%
%TA.AperFunction,ComponentPad*%
%ADD14R,1.600000X1.600000*%
%TD*%
%TA.AperFunction,ComponentPad*%
%ADD15C,1.600000*%
%TD*%
%TA.AperFunction,ComponentPad*%
%ADD16R,2.400000X2.400000*%
%TD*%
%TA.AperFunction,ComponentPad*%
%ADD17C,2.400000*%
%TD*%
%TA.AperFunction,ViaPad*%
%ADD18C,0.800000*%
%TD*%
%TA.AperFunction,ViaPad*%
%ADD19C,0.600000*%
%TD*%
%TA.AperFunction,Conductor*%
%ADD20C,0.300000*%
%TD*%
%TA.AperFunction,Conductor*%
%ADD21C,0.500000*%
%TD*%
G04 APERTURE END LIST*
D10*
%TO.P,J5,1,Pin_1*%
%TO.N,GND*%
X166116000Y-69088000D03*
D11*
%TO.P,J5,2,Pin_2*%
%TO.N,VBUS*%
X166116000Y-64008000D03*
%TD*%
D12*
%TO.P,J1,1,Pin_1*%
%TO.N,GND*%
X73152000Y-96027000D03*
D13*
%TO.P,J1,2,Pin_2*%
%TO.N,/DEBUG_TX*%
X73152000Y-98567000D03*
%TO.P,J1,3,Pin_3*%
%TO.N,/DEBUG_RX*%
X73152000Y-101107000D03*
%TD*%
D12*
%TO.P,J2,1,Pin_1*%
%TO.N,GND*%
X98816000Y-121920000D03*
D13*
%TO.P,J2,2,Pin_2*%
%TO.N,/SWDIO*%
X101356000Y-121920000D03*
%TO.P,J2,3,Pin_3*%
%TO.N,/SWCLK*%
X103896000Y-121920000D03*
%TO.P,J2,4,Pin_4*%
%TO.N,+3V3*%
X106436000Y-121920000D03*
%TD*%
D14*
%TO.P,C41,1*%
%TO.N,+12V*%
X86868000Y-67730380D03*
D15*
%TO.P,C41,2*%
%TO.N,GND*%
X86868000Y-65230380D03*
%TD*%
D16*
%TO.P,C29,1*%
%TO.N,VBUS*%
X129032000Y-64732041D03*
D17*
%TO.P,C29,2*%
%TO.N,Net-(C28-Pad2)*%
X129032000Y-69732041D03*
%TD*%
D14*
%TO.P,C23,1*%
%TO.N,+24V*%
X146304000Y-77724000D03*
D15*
%TO.P,C23,2*%
%TO.N,/Driver/bus_cur+*%
X146304000Y-80224000D03*
%TD*%
D12*
%TO.P,J3,1,Pin_1*%
%TO.N,+3V3*%
X73152000Y-105410000D03*
D13*
%TO.P,J3,2,Pin_2*%
%TO.N,/SPI1_CLK*%
X73152000Y-107950000D03*
%TO.P,J3,3,Pin_3*%
%TO.N,/SPI1_MISO*%
X73152000Y-110490000D03*
%TO.P,J3,4,Pin_4*%
%TO.N,/SPI1_MOSI*%
X73152000Y-113030000D03*
%TO.P,J3,5,Pin_5*%
%TO.N,/SPI1_CS*%
X73152000Y-115570000D03*
%TO.P,J3,6,Pin_6*%
%TO.N,GND*%
X73152000Y-118110000D03*
%TD*%
D14*
%TO.P,C21,1*%
%TO.N,+24V*%
X110744000Y-76541621D03*
D15*
%TO.P,C21,2*%
%TO.N,/Driver/bus_cur+*%
X110744000Y-79041621D03*
%TD*%
D14*
%TO.P,C30,1*%
%TO.N,+24V*%
X107862380Y-66040000D03*
D15*
%TO.P,C30,2*%
%TO.N,GND*%
X105362380Y-66040000D03*
%TD*%
D10*
%TO.P,J4,1,Pin_1*%
%TO.N,/Driver/W*%
X166116000Y-85344000D03*
D11*
%TO.P,J4,2,Pin_2*%
%TO.N,/Driver/V*%
X166116000Y-80264000D03*
%TO.P,J4,3,Pin_3*%
%TO.N,/Driver/U*%
X166116000Y-75184000D03*
%TD*%
D14*
%TO.P,C26,1*%
%TO.N,+24V*%
X129540000Y-77557621D03*
D15*
%TO.P,C26,2*%
%TO.N,/Driver/bus_cur+*%
X129540000Y-80057621D03*
%TD*%
D18*
%TO.N,/TIM1_CH1*%
X78232000Y-87884000D03*
X78028800Y-90627200D03*
%TO.N,/TIM1_CH2*%
X76098400Y-88493600D03*
X76098400Y-90525600D03*
%TO.N,/TIM1_CH1N*%
X82804000Y-96520000D03*
X80772000Y-96520000D03*
%TO.N,/TIM1_CH3N*%
X83820000Y-97536000D03*
X80772000Y-97536000D03*
D19*
%TO.N,GND*%
X75692000Y-129032000D03*
X148336000Y-107188000D03*
X140208000Y-112268000D03*
D18*
X164592000Y-129032000D03*
D19*
X97536000Y-105156000D03*
X85642823Y-81280000D03*
X78740000Y-72644000D03*
X86360000Y-125476000D03*
X97028000Y-65532000D03*
D18*
X91440000Y-100076000D03*
X86360000Y-100076000D03*
D19*
X128690388Y-121412000D03*
D18*
X143740475Y-123330313D03*
D19*
X96520000Y-125476000D03*
X89497646Y-81280000D03*
D18*
X152400000Y-119380000D03*
D19*
X88188800Y-64516000D03*
X91948000Y-113284000D03*
X74168000Y-81788000D03*
X103632000Y-104648000D03*
X78435200Y-64516000D03*
X74168000Y-77216000D03*
D18*
X87884000Y-96012000D03*
D19*
X102616000Y-123952000D03*
X75692000Y-68072000D03*
X75692000Y-72644000D03*
D18*
X85344000Y-98552000D03*
D19*
X119178540Y-121412000D03*
D18*
X94996000Y-105664000D03*
D19*
X101406000Y-107502000D03*
X99974400Y-79756000D03*
X95922351Y-84328000D03*
X148336000Y-108204000D03*
D18*
X167640000Y-127312608D03*
D19*
X81788000Y-74168000D03*
D18*
X152617714Y-124460000D03*
D19*
X123934464Y-119380000D03*
X96520000Y-122936000D03*
X85750400Y-64516000D03*
X72644000Y-129032000D03*
X86360000Y-129032000D03*
X74168000Y-80264000D03*
X77216000Y-69596000D03*
X88063292Y-84328000D03*
X81788000Y-81280000D03*
X102311200Y-100584000D03*
X90627200Y-60960000D03*
X118872000Y-117856000D03*
X126746000Y-70612000D03*
X88392000Y-127508000D03*
X117593232Y-119380000D03*
X78740000Y-83312000D03*
X140208000Y-68580000D03*
X98552000Y-123952000D03*
X111252000Y-119380000D03*
X100330000Y-110744000D03*
X74168000Y-84836000D03*
D18*
X150876000Y-127000000D03*
D19*
X84836000Y-86360000D03*
X93980000Y-72136000D03*
X81788000Y-79756000D03*
D18*
X90424000Y-101600000D03*
D19*
X114300000Y-113284000D03*
X95922351Y-81280000D03*
X97028000Y-72136000D03*
X75996800Y-62484000D03*
X75996800Y-60960000D03*
X98492233Y-81280000D03*
D18*
X169164000Y-129032000D03*
D19*
X103632000Y-111760000D03*
X117348000Y-111252000D03*
X78740000Y-69596000D03*
X117348000Y-113284000D03*
X100584000Y-123952000D03*
X141211036Y-112942110D03*
X140208000Y-67056000D03*
X77216000Y-75692000D03*
X85344000Y-74168000D03*
X115316000Y-114300000D03*
X89348233Y-84328000D03*
X93472000Y-125476000D03*
X78740000Y-74168000D03*
X140195036Y-112942110D03*
D18*
X85852000Y-96012000D03*
D19*
X95504000Y-60960000D03*
D18*
X91440000Y-103124000D03*
D19*
X88188800Y-60960000D03*
X118872000Y-113284000D03*
D18*
X152400000Y-121920000D03*
D19*
X78740000Y-78740000D03*
X101062115Y-84328000D03*
X88392000Y-129032000D03*
D18*
X103906000Y-113010000D03*
D19*
X77216000Y-84836000D03*
D18*
X156972000Y-125730000D03*
D19*
X112837308Y-121412000D03*
X77216000Y-71120000D03*
D18*
X102616000Y-109220000D03*
D19*
X75692000Y-86360000D03*
X164592000Y-121412000D03*
X88212705Y-81280000D03*
X129819922Y-114528078D03*
X144780000Y-68580000D03*
X78740000Y-68072000D03*
X75692000Y-75692000D03*
X104648000Y-70612000D03*
X83820000Y-79756000D03*
X132926664Y-67056000D03*
X81788000Y-86360000D03*
X101062115Y-82804000D03*
X73558400Y-60960000D03*
X116332000Y-113284000D03*
X112077500Y-125476000D03*
X101600000Y-110744000D03*
X124460000Y-67056000D03*
X94488000Y-102108000D03*
X132588000Y-68580000D03*
X96012000Y-72136000D03*
X71120000Y-129032000D03*
X95504000Y-74269600D03*
D18*
X102616000Y-108204000D03*
D19*
X72644000Y-127508000D03*
X75692000Y-77216000D03*
X77216000Y-83312000D03*
X148336000Y-106172000D03*
X100380800Y-62484000D03*
X74168000Y-72644000D03*
X90627200Y-62484000D03*
X75692000Y-74168000D03*
X125222000Y-123444000D03*
X142748000Y-67056000D03*
D18*
X87376000Y-101600000D03*
D19*
X74422000Y-124460000D03*
X81280000Y-125476000D03*
X104140000Y-111252000D03*
D18*
X151746857Y-125730000D03*
D19*
X99777174Y-81280000D03*
X74168000Y-68072000D03*
X85344000Y-72136000D03*
D18*
X166116000Y-125593224D03*
D19*
X102108000Y-104648000D03*
D18*
X167640000Y-129032000D03*
X169164000Y-127312608D03*
D19*
X116007924Y-121412000D03*
X77216000Y-80264000D03*
X97207292Y-84328000D03*
X81788000Y-76200000D03*
X101346000Y-112776000D03*
X74168000Y-86360000D03*
X122301000Y-123444000D03*
X77216000Y-74168000D03*
X90424000Y-125476000D03*
X138176000Y-67056000D03*
X122349156Y-120904000D03*
X119380000Y-123444000D03*
X92964000Y-72136000D03*
X100380800Y-60960000D03*
D18*
X152400000Y-120650000D03*
D19*
X107147992Y-116880008D03*
X83820000Y-125476000D03*
X86868000Y-93472000D03*
X165608000Y-120396000D03*
D18*
X86868000Y-97536000D03*
D19*
X94488000Y-103124000D03*
X146812000Y-68580000D03*
X85750400Y-62484000D03*
X76073000Y-124460000D03*
X97942400Y-78740000D03*
X101600000Y-78740000D03*
X83312000Y-64516000D03*
X94996000Y-125476000D03*
D18*
X78232000Y-108712000D03*
D19*
X104648000Y-123952000D03*
D18*
X163139573Y-115172853D03*
D19*
X77216000Y-77216000D03*
X95504000Y-62484000D03*
D18*
X89916000Y-96012000D03*
D19*
X95504000Y-64516000D03*
X95922351Y-82804000D03*
X75692000Y-83312000D03*
X94996000Y-100584000D03*
X98755200Y-79756000D03*
D18*
X160020000Y-114808000D03*
D19*
X94488000Y-84328000D03*
X133375918Y-114579918D03*
X83312000Y-62484000D03*
D18*
X101092000Y-108204000D03*
X143764000Y-118364000D03*
X90932000Y-97536000D03*
D19*
X129603500Y-125476000D03*
X83820000Y-78232000D03*
X83820000Y-123952000D03*
X95504000Y-68580000D03*
X128143000Y-123444000D03*
X93472000Y-123952000D03*
X97942400Y-60960000D03*
D18*
X91440000Y-105664000D03*
D19*
X126576666Y-67056000D03*
X78740000Y-71120000D03*
X102616000Y-112776000D03*
X123761500Y-125476000D03*
X101193600Y-79756000D03*
X94996000Y-72136000D03*
X97536000Y-79756000D03*
X85344000Y-76708000D03*
X78740000Y-84836000D03*
X78740000Y-86360000D03*
D18*
X169164000Y-125593224D03*
X92456000Y-98552000D03*
D19*
X113538000Y-123444000D03*
X100584000Y-102616000D03*
X141224000Y-119380000D03*
X115316000Y-111760000D03*
D18*
X167640000Y-125593224D03*
D19*
X75692000Y-81788000D03*
X85750400Y-60960000D03*
D18*
X156101142Y-124460000D03*
D19*
X94637410Y-81280000D03*
X120763848Y-119380000D03*
X78740000Y-81788000D03*
D18*
X104140000Y-108204000D03*
D19*
X98492233Y-82804000D03*
X144780000Y-67056000D03*
X92067528Y-81280000D03*
X100482400Y-100584000D03*
X120840500Y-125476000D03*
X103225600Y-101600000D03*
X71120000Y-124460000D03*
X74422000Y-125984000D03*
X81788000Y-78232000D03*
X76073000Y-125984000D03*
X99060000Y-72644000D03*
X165608000Y-122428000D03*
X107696000Y-123444000D03*
X165608000Y-121412000D03*
D18*
X83820000Y-100076000D03*
D19*
X74168000Y-74168000D03*
D18*
X89408000Y-105664000D03*
X88900000Y-100076000D03*
D19*
X74168000Y-129032000D03*
X96520000Y-74269600D03*
X74168000Y-75692000D03*
X84836000Y-84836000D03*
X101396800Y-101600000D03*
X83820000Y-72136000D03*
X84357882Y-81280000D03*
X86360000Y-123952000D03*
X86927764Y-81280000D03*
D18*
X146253000Y-126035000D03*
D19*
X99568000Y-101600000D03*
X75692000Y-71120000D03*
D18*
X164592000Y-127312608D03*
D19*
X83820000Y-76200000D03*
D18*
X126315754Y-114984246D03*
D19*
X96520000Y-75387200D03*
X127105080Y-119380000D03*
X86360000Y-127508000D03*
D18*
X164592000Y-125593224D03*
D19*
X90782587Y-81280000D03*
X78740000Y-80264000D03*
D18*
X153488571Y-125730000D03*
D19*
X77216000Y-72644000D03*
X78740000Y-77216000D03*
X95504000Y-66548000D03*
X116332000Y-114300000D03*
X87185000Y-71819000D03*
D18*
X99060000Y-112740000D03*
D19*
X112776000Y-114808000D03*
X116459000Y-123444000D03*
D18*
X156101142Y-127000000D03*
D19*
X86868000Y-94488000D03*
X106680000Y-118364000D03*
X99777174Y-84328000D03*
X95910400Y-101600000D03*
X97739200Y-101600000D03*
X80264000Y-84836000D03*
X98552000Y-73152000D03*
X138176000Y-68580000D03*
X77216000Y-81788000D03*
X97207292Y-82804000D03*
X77216000Y-68072000D03*
X91918115Y-84328000D03*
D18*
X101092000Y-109220000D03*
X104140000Y-109220000D03*
D19*
X99161600Y-78740000D03*
X141732000Y-119888000D03*
X91440000Y-79756000D03*
X85852000Y-94488000D03*
X78435200Y-60960000D03*
X89916000Y-79756000D03*
D18*
X82296000Y-65532000D03*
D19*
X126682500Y-125476000D03*
D18*
X150876000Y-124460000D03*
D19*
X97028000Y-64516000D03*
X146812000Y-67056000D03*
D18*
X86868000Y-103124000D03*
D19*
X98653600Y-100584000D03*
X83312000Y-84836000D03*
X87376000Y-78740000D03*
X99777174Y-82804000D03*
X100380800Y-78740000D03*
D18*
X92456000Y-101600000D03*
X88900000Y-103124000D03*
D19*
X99060000Y-102616000D03*
D18*
X89916000Y-98552000D03*
D19*
X80264000Y-86360000D03*
X147320000Y-107188000D03*
D18*
X122707918Y-115036082D03*
X166116000Y-129032000D03*
D19*
X104648000Y-103124000D03*
X117919500Y-125476000D03*
X81788000Y-70612000D03*
X130275700Y-119380000D03*
X97028000Y-66548000D03*
X115316000Y-113284000D03*
X85344000Y-78232000D03*
X81788000Y-84836000D03*
X95504000Y-78740000D03*
X97207292Y-81280000D03*
X75692000Y-84836000D03*
X81788000Y-72136000D03*
X83820000Y-74168000D03*
X74168000Y-78740000D03*
X81280000Y-123952000D03*
X93065600Y-62484000D03*
X91199000Y-115583000D03*
D18*
X154359428Y-124460000D03*
D19*
X130809998Y-67056000D03*
X80873600Y-64516000D03*
X96012000Y-79756000D03*
X74168000Y-71120000D03*
X100076000Y-112776000D03*
D18*
X110920000Y-110744000D03*
X103632000Y-103632000D03*
D19*
X131064000Y-123444000D03*
D18*
X106489000Y-80073000D03*
D19*
X108712000Y-125476000D03*
X75692000Y-127508000D03*
X93352469Y-81280000D03*
X93203056Y-84328000D03*
X75996800Y-64516000D03*
X118872000Y-115824000D03*
X90424000Y-123952000D03*
X128693332Y-67056000D03*
X118872000Y-111252000D03*
D18*
X166116000Y-127312608D03*
X87884000Y-98552000D03*
D19*
X77216000Y-78740000D03*
X110617000Y-123444000D03*
X127000000Y-68580000D03*
D18*
X152617714Y-127000000D03*
D19*
X142748000Y-68580000D03*
X97536000Y-106172000D03*
X104648000Y-102108000D03*
X114998500Y-125476000D03*
X85852000Y-79756000D03*
X99060000Y-109474000D03*
X141224000Y-112268000D03*
X77724000Y-125984000D03*
X118872000Y-110236000D03*
X75692000Y-80264000D03*
X91948000Y-72136000D03*
X117348000Y-114300000D03*
X97942400Y-62484000D03*
X96723200Y-78740000D03*
X164592000Y-120396000D03*
X91948000Y-70104000D03*
X96012000Y-106172000D03*
X75692000Y-69596000D03*
D18*
X99568000Y-104648000D03*
D19*
X80873600Y-62484000D03*
X97028000Y-67564000D03*
X142240000Y-119380000D03*
X97028000Y-68580000D03*
X90633174Y-84328000D03*
X93065600Y-60960000D03*
X95504000Y-67564000D03*
X114422616Y-119380000D03*
X83312000Y-86360000D03*
D18*
X155230285Y-125730000D03*
D19*
X78740000Y-75692000D03*
X88392000Y-123952000D03*
X125519772Y-121412000D03*
X117348000Y-112268000D03*
X98492233Y-84328000D03*
X114300000Y-114300000D03*
X99060000Y-110744000D03*
X147320000Y-106172000D03*
X164592000Y-122428000D03*
X142748000Y-119888000D03*
X147320000Y-108204000D03*
X77216000Y-86360000D03*
X93590127Y-113730688D03*
X96520000Y-123952000D03*
X83820000Y-70612000D03*
X71120000Y-127508000D03*
X95504000Y-65532000D03*
X83072941Y-81280000D03*
X72771000Y-124460000D03*
X97536000Y-73152000D03*
X73558400Y-65532000D03*
X74168000Y-69596000D03*
X88188800Y-62484000D03*
X99060000Y-108204000D03*
X83312000Y-60960000D03*
X74168000Y-83312000D03*
X124460000Y-68580000D03*
X96520000Y-121412000D03*
X72771000Y-125984000D03*
X74676000Y-62484000D03*
D18*
X154359428Y-127000000D03*
D19*
X78435200Y-62484000D03*
X98044000Y-72136000D03*
D18*
X152400000Y-123190000D03*
D19*
X102616000Y-102616000D03*
X96520000Y-73152000D03*
X124460000Y-70612000D03*
D18*
X88900000Y-97536000D03*
D19*
X118872000Y-114300000D03*
X101062115Y-81280000D03*
X94996000Y-123952000D03*
D18*
X78232000Y-113284000D03*
D19*
X118872000Y-112268000D03*
D18*
X85344000Y-101600000D03*
D19*
X91948000Y-71120000D03*
X75692000Y-78740000D03*
X95504000Y-73152000D03*
X104140000Y-100584000D03*
X88392000Y-125476000D03*
X71120000Y-125984000D03*
X87884000Y-79756000D03*
X95504000Y-75387200D03*
X77724000Y-124460000D03*
X74168000Y-127508000D03*
X80873600Y-60960000D03*
X96824800Y-100584000D03*
D18*
%TO.N,/Driver/i_v*%
X136144000Y-118364000D03*
X135860657Y-114300000D03*
D19*
%TO.N,/Driver/V*%
X139700000Y-93472000D03*
X139192000Y-83312000D03*
X141935200Y-90424000D03*
X162998223Y-80469095D03*
X139192000Y-85344000D03*
X145288000Y-94488000D03*
X142240000Y-84328000D03*
X164014223Y-79453095D03*
X139192000Y-84328000D03*
X144170400Y-90424000D03*
X140817600Y-90424000D03*
X164014223Y-81485095D03*
X140208000Y-83312000D03*
X139700000Y-91440000D03*
X162998223Y-81485095D03*
X144272000Y-85344000D03*
X161982223Y-81485095D03*
X141935200Y-93472000D03*
X143256000Y-85344000D03*
X145288000Y-90424000D03*
X143052800Y-92456000D03*
X145288000Y-93472000D03*
X145288000Y-85344000D03*
X161982223Y-79453095D03*
X144170400Y-91440000D03*
X161982223Y-80469095D03*
X164014223Y-80469095D03*
X162998223Y-79453095D03*
X145288000Y-84328000D03*
X140208000Y-85344000D03*
X139700000Y-90424000D03*
X144170400Y-92456000D03*
X141224000Y-83312000D03*
X141935200Y-91440000D03*
X142240000Y-85344000D03*
X145288000Y-83312000D03*
X145288000Y-92456000D03*
X143052800Y-94488000D03*
X140208000Y-84328000D03*
X143052800Y-90424000D03*
X144170400Y-94488000D03*
X143256000Y-83312000D03*
X143052800Y-91440000D03*
X139700000Y-92456000D03*
X140817600Y-93472000D03*
X141935200Y-92456000D03*
X141224000Y-85344000D03*
X145288000Y-91440000D03*
X140817600Y-92456000D03*
X144272000Y-83312000D03*
X143052800Y-93472000D03*
X140817600Y-94488000D03*
X141935200Y-94488000D03*
X141224000Y-84328000D03*
X143256000Y-84328000D03*
X144272000Y-84328000D03*
X142240000Y-83312000D03*
X144170400Y-93472000D03*
X140817600Y-91440000D03*
X139700000Y-94488000D03*
D18*
%TO.N,/Driver/V_CHN*%
X120396000Y-104140000D03*
X123444000Y-104140000D03*
%TO.N,/Driver/i_u*%
X134620000Y-114300000D03*
X134620000Y-116840000D03*
D19*
%TO.N,/Driver/U*%
X122021600Y-94488000D03*
X125476000Y-83820000D03*
X120904000Y-94488000D03*
X125374400Y-90424000D03*
X124460000Y-84836000D03*
X120396000Y-84836000D03*
X122021600Y-91440000D03*
X124256800Y-90424000D03*
X124460000Y-83820000D03*
X120904000Y-91440000D03*
X123444000Y-82804000D03*
X125374400Y-91440000D03*
X123139200Y-93472000D03*
X125476000Y-84836000D03*
X125374400Y-93472000D03*
X123139200Y-90424000D03*
X165100000Y-75892861D03*
X122428000Y-83820000D03*
X120396000Y-82804000D03*
X123444000Y-83820000D03*
X124256800Y-94488000D03*
X122021600Y-93472000D03*
X126492000Y-83820000D03*
X123139200Y-91440000D03*
X126492000Y-90424000D03*
X125476000Y-82804000D03*
X164084000Y-74876861D03*
X123139200Y-94488000D03*
X124256800Y-93472000D03*
X126492000Y-93472000D03*
X120904000Y-92456000D03*
X123139200Y-92456000D03*
X125374400Y-94488000D03*
X121412000Y-82804000D03*
X123444000Y-84836000D03*
X122021600Y-90424000D03*
X122428000Y-84836000D03*
X120904000Y-90424000D03*
X124256800Y-91440000D03*
X122428000Y-82804000D03*
X162052000Y-74876861D03*
X163068000Y-74876861D03*
X121412000Y-83820000D03*
X162052000Y-75892861D03*
X126492000Y-91440000D03*
X122021600Y-92456000D03*
X125374400Y-92456000D03*
X124256800Y-92456000D03*
X163068000Y-73860861D03*
X120904000Y-93472000D03*
X126492000Y-92456000D03*
X124460000Y-82804000D03*
X164084000Y-73860861D03*
X164084000Y-75892861D03*
X163068000Y-75892861D03*
X126492000Y-94488000D03*
X121412000Y-84836000D03*
X162052000Y-73860861D03*
X126492000Y-84836000D03*
X165100000Y-73860861D03*
X126492000Y-82804000D03*
X120396000Y-83820000D03*
D18*
%TO.N,+3V3*%
X146178000Y-122554000D03*
D19*
X163576000Y-119380000D03*
X163576000Y-127000000D03*
D18*
X96012000Y-103124000D03*
D19*
X85852000Y-114808000D03*
X91948000Y-119888000D03*
D18*
X145288000Y-118364000D03*
D19*
X81280000Y-111760000D03*
X94701992Y-114513992D03*
X147320000Y-129032000D03*
X78740000Y-111760000D03*
D18*
%TO.N,/Driver/i_w*%
X158581500Y-114214500D03*
X159004000Y-119888000D03*
D19*
%TO.N,/VBUS_AD*%
X102616000Y-98869000D03*
X103124000Y-86360000D03*
%TO.N,/Driver/W*%
X158496000Y-88900000D03*
X163576000Y-84836000D03*
X162052000Y-86868000D03*
X156972000Y-93980000D03*
X160020000Y-92964000D03*
X158496000Y-92964000D03*
X159004000Y-83820000D03*
X162052000Y-85852000D03*
X159004000Y-86868000D03*
X156972000Y-89916000D03*
X160020000Y-91948000D03*
X156972000Y-87884000D03*
X156972000Y-92964000D03*
X157480000Y-86868000D03*
X158496000Y-89916000D03*
X160020000Y-94996000D03*
X158496000Y-90932000D03*
X158496000Y-91948000D03*
X157480000Y-83820000D03*
X156972000Y-91948000D03*
X156972000Y-90932000D03*
X160020000Y-88900000D03*
X160528000Y-85852000D03*
X166624000Y-83820000D03*
X165100000Y-86868000D03*
X160528000Y-83820000D03*
X160528000Y-84836000D03*
X165100000Y-83820000D03*
X157480000Y-84836000D03*
X160020000Y-87884000D03*
X158496000Y-93980000D03*
X156972000Y-94996000D03*
X160020000Y-90932000D03*
X158496000Y-94996000D03*
X163576000Y-85852000D03*
X162052000Y-83820000D03*
X160020000Y-89916000D03*
X159004000Y-84836000D03*
X166624000Y-86868000D03*
X157480000Y-85852000D03*
X160528000Y-86868000D03*
X163576000Y-83820000D03*
X158496000Y-87884000D03*
X159004000Y-85852000D03*
X156972000Y-88900000D03*
X160020000Y-93980000D03*
X163576000Y-86868000D03*
X162052000Y-84836000D03*
D18*
%TO.N,/Driver/W_CHN*%
X137160000Y-105156000D03*
X134620000Y-105156000D03*
X118872000Y-104140000D03*
X123952000Y-105156000D03*
D19*
%TO.N,/RST*%
X102108000Y-111760000D03*
X88900000Y-113284000D03*
X85852000Y-108712000D03*
%TO.N,/SWDIO*%
X98044000Y-116332000D03*
%TO.N,/SWCLK*%
X99060000Y-116332000D03*
%TO.N,/DEBUG_TX*%
X96012000Y-115824000D03*
X102108000Y-116840000D03*
%TO.N,/DEBUG_RX*%
X97028000Y-116332000D03*
X103124000Y-117856000D03*
%TO.N,+12L*%
X84836000Y-92964000D03*
X86360000Y-86868000D03*
%TO.N,+24V*%
X101600000Y-76200000D03*
X87630000Y-76962000D03*
%TO.N,/Driver/bus_cur+*%
X141986000Y-106172000D03*
X125476000Y-102616000D03*
X126238000Y-101600000D03*
X162052000Y-102616000D03*
X163576000Y-103632000D03*
X145034000Y-101600000D03*
X144272000Y-101600000D03*
X141224000Y-107188000D03*
X145796000Y-101600000D03*
X127000000Y-102616000D03*
X145796000Y-103632000D03*
X125476000Y-101600000D03*
X162814000Y-102616000D03*
X162052000Y-101600000D03*
X145034000Y-103632000D03*
X126238000Y-103632000D03*
X141986000Y-107188000D03*
X162814000Y-103632000D03*
X127000000Y-101600000D03*
X142748000Y-107188000D03*
X138875000Y-112459000D03*
X144272000Y-103632000D03*
X163576000Y-101600000D03*
D18*
X138875000Y-120205000D03*
D19*
X141986000Y-108204000D03*
X163576000Y-102616000D03*
X127000000Y-103632000D03*
X145034000Y-102616000D03*
X141224000Y-108204000D03*
X162052000Y-103632000D03*
X144272000Y-102616000D03*
X142748000Y-106172000D03*
X125476000Y-103632000D03*
X141224000Y-106172000D03*
D18*
X138875000Y-116141000D03*
D19*
X142748000Y-108204000D03*
X162814000Y-101600000D03*
X126238000Y-102616000D03*
X145796000Y-102616000D03*
%TO.N,Net-(C38-Pad1)*%
X102933000Y-78549000D03*
X102883000Y-73660000D03*
%TD*%
D20*
%TO.N,/TIM1_CH1*%
X78028800Y-88087200D02*
X78028800Y-90627200D01*
X78232000Y-87884000D02*
X78028800Y-88087200D01*
%TO.N,/TIM1_CH2*%
X76098400Y-90525600D02*
X76098400Y-88493600D01*
%TO.N,/TIM1_CH1N*%
X82804000Y-96520000D02*
X80772000Y-96520000D01*
%TO.N,/TIM1_CH3N*%
X80772000Y-97536000D02*
X83820000Y-97536000D01*
D21*
%TO.N,/Driver/i_v*%
X135860657Y-114300000D02*
X135860657Y-118080657D01*
X135860657Y-118080657D02*
X136144000Y-118364000D01*
D20*
%TO.N,/Driver/V_CHN*%
X120396000Y-104140000D02*
X123444000Y-104140000D01*
D21*
%TO.N,/Driver/i_u*%
X134620000Y-116840000D02*
X134620000Y-114300000D01*
%TO.N,+3V3*%
X147320000Y-123696000D02*
X146178000Y-122554000D01*
X145922000Y-122554000D02*
X145288000Y-121920000D01*
D20*
X82296000Y-104648000D02*
X88392000Y-104648000D01*
D21*
X93472000Y-119888000D02*
X94701992Y-118658008D01*
X91948000Y-119888000D02*
X86868000Y-119888000D01*
X145288000Y-121920000D02*
X145288000Y-118364000D01*
D20*
X78740000Y-111760000D02*
X81280000Y-111760000D01*
X88392000Y-104648000D02*
X91440000Y-104648000D01*
X81280000Y-111760000D02*
X81280000Y-105664000D01*
X81280000Y-105664000D02*
X82296000Y-104648000D01*
X91440000Y-104648000D02*
X94488000Y-104648000D01*
D21*
X85852000Y-118872000D02*
X85852000Y-114808000D01*
X86868000Y-119888000D02*
X85852000Y-118872000D01*
X94701992Y-118658008D02*
X94701992Y-114513992D01*
X91948000Y-119888000D02*
X93472000Y-119888000D01*
X147320000Y-129032000D02*
X147320000Y-123696000D01*
X163576000Y-127000000D02*
X163576000Y-119380000D01*
D20*
X94488000Y-104648000D02*
X96012000Y-103124000D01*
D21*
X146178000Y-122554000D02*
X145922000Y-122554000D01*
%TO.N,/Driver/i_w*%
X158581500Y-114214500D02*
X158581500Y-119465500D01*
X158581500Y-119465500D02*
X159004000Y-119888000D01*
%TO.N,/VBUS_AD*%
X103124000Y-98361000D02*
X102616000Y-98869000D01*
X103124000Y-86360000D02*
X103124000Y-98361000D01*
D20*
%TO.N,/Driver/W_CHN*%
X118872000Y-104140000D02*
X119888000Y-105156000D01*
X134620000Y-105156000D02*
X137160000Y-105156000D01*
X119888000Y-105156000D02*
X123952000Y-105156000D01*
%TO.N,/RST*%
X89408000Y-111760000D02*
X88900000Y-111252000D01*
X85852000Y-108712000D02*
X88392000Y-108712000D01*
X89408000Y-111760000D02*
X88900000Y-111760000D01*
X88900000Y-112268000D02*
X89408000Y-111760000D01*
X88392000Y-108712000D02*
X88900000Y-109220000D01*
X88900000Y-109220000D02*
X88900000Y-111760000D01*
X88900000Y-111760000D02*
X88900000Y-113284000D01*
X89408000Y-111760000D02*
X102108000Y-111760000D01*
X88900000Y-113284000D02*
X88900000Y-112268000D01*
%TO.N,/SWDIO*%
X98044000Y-116332000D02*
X101356000Y-119644000D01*
X101356000Y-119644000D02*
X101356000Y-121920000D01*
%TO.N,/SWCLK*%
X103896000Y-121168000D02*
X103896000Y-121920000D01*
X99060000Y-116332000D02*
X103896000Y-121168000D01*
%TO.N,/DEBUG_TX*%
X97028000Y-114808000D02*
X96012000Y-115824000D01*
X101600000Y-116840000D02*
X99568000Y-114808000D01*
X102108000Y-116840000D02*
X101600000Y-116840000D01*
X99568000Y-114808000D02*
X97028000Y-114808000D01*
%TO.N,/DEBUG_RX*%
X99060000Y-115316000D02*
X98044000Y-115316000D01*
X98044000Y-115316000D02*
X97028000Y-116332000D01*
X103124000Y-117856000D02*
X101600000Y-117856000D01*
X101600000Y-117856000D02*
X99060000Y-115316000D01*
D21*
%TO.N,+12L*%
X86360000Y-91440000D02*
X84836000Y-92964000D01*
X86360000Y-86868000D02*
X86360000Y-91440000D01*
%TO.N,+24V*%
X101600000Y-76200000D02*
X100838000Y-76962000D01*
X100838000Y-76962000D02*
X87630000Y-76962000D01*
%TO.N,/Driver/bus_cur+*%
X138875000Y-112459000D02*
X138875000Y-109029000D01*
X139700000Y-108204000D02*
X142748000Y-108204000D01*
X138875000Y-109029000D02*
X139700000Y-108204000D01*
X138875000Y-116141000D02*
X138875000Y-120205000D01*
%TO.N,Net-(C38-Pad1)*%
X102883000Y-78499000D02*
X102933000Y-78549000D01*
X102883000Y-73660000D02*
X102883000Y-78499000D01*
%TD*%
%TA.AperFunction,Conductor*%
%TO.N,/Driver/W*%
G36*
X167147931Y-82824002D02*
G01*
X167168905Y-82840905D01*
X167603095Y-83275095D01*
X167637121Y-83337407D01*
X167640000Y-83364190D01*
X167640000Y-87323810D01*
X167619998Y-87391931D01*
X167603095Y-87412905D01*
X167168905Y-87847095D01*
X167106593Y-87881121D01*
X167079810Y-87884000D01*
X161036000Y-87884000D01*
X160528000Y-88392000D01*
X160528000Y-94943810D01*
X160507998Y-95011931D01*
X160491095Y-95032905D01*
X160056905Y-95467095D01*
X159994593Y-95501121D01*
X159967810Y-95504000D01*
X156590000Y-95504000D01*
X156521879Y-95483998D01*
X156475386Y-95430342D01*
X156464000Y-95378000D01*
X156464000Y-83364190D01*
X156484002Y-83296069D01*
X156500905Y-83275095D01*
X156935095Y-82840905D01*
X156997407Y-82806879D01*
X157024190Y-82804000D01*
X167079810Y-82804000D01*
X167147931Y-82824002D01*
G37*
%TD.AperFunction*%
%TD*%
%TA.AperFunction,Conductor*%
%TO.N,/Driver/bus_cur+*%
G36*
X164026121Y-101112002D02*
G01*
X164072614Y-101165658D01*
X164084000Y-101218000D01*
X164084000Y-104014000D01*
X164063998Y-104082121D01*
X164010342Y-104128614D01*
X163958000Y-104140000D01*
X125528190Y-104140000D01*
X125460069Y-104119998D01*
X125439095Y-104103095D01*
X125004905Y-103668905D01*
X124970879Y-103606593D01*
X124968000Y-103579810D01*
X124968000Y-101652190D01*
X124988002Y-101584069D01*
X125004905Y-101563095D01*
X125439095Y-101128905D01*
X125501407Y-101094879D01*
X125528190Y-101092000D01*
X163958000Y-101092000D01*
X164026121Y-101112002D01*
G37*
%TD.AperFunction*%
%TD*%
%TA.AperFunction,Conductor*%
%TO.N,GND*%
G36*
X115824000Y-108712000D02*
G01*
X114300000Y-108712000D01*
X114300000Y-105664000D01*
X115824000Y-105664000D01*
X115824000Y-108712000D01*
G37*
%TD.AperFunction*%
%TD*%
%TA.AperFunction,Conductor*%
%TO.N,GND*%
G36*
X169687621Y-60274502D02*
G01*
X169734114Y-60328158D01*
X169745500Y-60380500D01*
X169745500Y-109602000D01*
X169725498Y-109670121D01*
X169671842Y-109716614D01*
X169619500Y-109728000D01*
X144324190Y-109728000D01*
X144256069Y-109707998D01*
X144235095Y-109691095D01*
X143800905Y-109256905D01*
X143766879Y-109194593D01*
X143764000Y-109167810D01*
X143764000Y-107188000D01*
X143552405Y-106976405D01*
X143518379Y-106914093D01*
X143515500Y-106887310D01*
X143515500Y-105823678D01*
X143535502Y-105755557D01*
X143552405Y-105734583D01*
X143834583Y-105452405D01*
X143896895Y-105418379D01*
X143923678Y-105415500D01*
X145743810Y-105415500D01*
X145745465Y-105415411D01*
X145745477Y-105415411D01*
X145769865Y-105414104D01*
X145771545Y-105414014D01*
X145773222Y-105413834D01*
X145773231Y-105413833D01*
X145792170Y-105411797D01*
X145792171Y-105411797D01*
X145798328Y-105411135D01*
X145853355Y-105393905D01*
X145889057Y-105382726D01*
X145889060Y-105382725D01*
X145894961Y-105380877D01*
X145900385Y-105377915D01*
X145900390Y-105377913D01*
X145953325Y-105349007D01*
X145953327Y-105349006D01*
X145957273Y-105346851D01*
X145984270Y-105326641D01*
X146012797Y-105305286D01*
X146012801Y-105305282D01*
X146016399Y-105302589D01*
X146450589Y-104868399D01*
X146469147Y-104847740D01*
X146486050Y-104826766D01*
X146511339Y-104778423D01*
X146530119Y-104742523D01*
X146530120Y-104742521D01*
X146532987Y-104737040D01*
X146540973Y-104709842D01*
X146551720Y-104673242D01*
X146551721Y-104673238D01*
X146552989Y-104668919D01*
X146560071Y-104619664D01*
X146562861Y-104600258D01*
X146562861Y-104600251D01*
X146563500Y-104595810D01*
X146563500Y-104525500D01*
X146583502Y-104457379D01*
X146637158Y-104410886D01*
X146689500Y-104399500D01*
X163958000Y-104399500D01*
X163961346Y-104399140D01*
X163961351Y-104399140D01*
X164009795Y-104393932D01*
X164009801Y-104393931D01*
X164013159Y-104393570D01*
X164065501Y-104382184D01*
X164092291Y-104374834D01*
X164099142Y-104370933D01*
X164099144Y-104370932D01*
X164174899Y-104327794D01*
X164180278Y-104324731D01*
X164222989Y-104287722D01*
X164231811Y-104280078D01*
X164231816Y-104280073D01*
X164233934Y-104278238D01*
X164266056Y-104244949D01*
X164312987Y-104155230D01*
X164319486Y-104133096D01*
X164331720Y-104091432D01*
X164331721Y-104091428D01*
X164332989Y-104087109D01*
X164334325Y-104077822D01*
X164342861Y-104018448D01*
X164342861Y-104018441D01*
X164343500Y-104014000D01*
X164343500Y-101218000D01*
X164337570Y-101162841D01*
X164326184Y-101110499D01*
X164318834Y-101083709D01*
X164268731Y-100995722D01*
X164227898Y-100948598D01*
X164224078Y-100944189D01*
X164224073Y-100944184D01*
X164222238Y-100942066D01*
X164188949Y-100909944D01*
X164099230Y-100863013D01*
X164093294Y-100861270D01*
X164035432Y-100844280D01*
X164035428Y-100844279D01*
X164031109Y-100843011D01*
X164026661Y-100842371D01*
X164026654Y-100842370D01*
X163962448Y-100833139D01*
X163962441Y-100833139D01*
X163958000Y-100832500D01*
X130433500Y-100832500D01*
X130365379Y-100812498D01*
X130318886Y-100758842D01*
X130307500Y-100706500D01*
X130307500Y-95378000D01*
X138424500Y-95378000D01*
X138430430Y-95433159D01*
X138441816Y-95485501D01*
X138449166Y-95512291D01*
X138499269Y-95600278D01*
X138503321Y-95604954D01*
X138542864Y-95650589D01*
X138545762Y-95653934D01*
X138579051Y-95686056D01*
X138668770Y-95732987D01*
X138674706Y-95734730D01*
X138732568Y-95751720D01*
X138732572Y-95751721D01*
X138736891Y-95752989D01*
X138741339Y-95753629D01*
X138741346Y-95753630D01*
X138805552Y-95762861D01*
X138805559Y-95762861D01*
X138810000Y-95763500D01*
X145743810Y-95763500D01*
X145745465Y-95763411D01*
X145745477Y-95763411D01*
X145769865Y-95762104D01*
X145771545Y-95762014D01*
X145773222Y-95761834D01*
X145773231Y-95761833D01*
X145792170Y-95759797D01*
X145792171Y-95759797D01*
X145798328Y-95759135D01*
X145876269Y-95734730D01*
X145889057Y-95730726D01*
X145889060Y-95730725D01*
X145894961Y-95728877D01*
X145900385Y-95725915D01*
X145900390Y-95725913D01*
X145953325Y-95697007D01*
X145953327Y-95697006D01*
X145957273Y-95694851D01*
X145977381Y-95679798D01*
X146012797Y-95653286D01*
X146012801Y-95653282D01*
X146016399Y-95650589D01*
X146450589Y-95216399D01*
X146469147Y-95195740D01*
X146486050Y-95174766D01*
X146532987Y-95085040D01*
X146552989Y-95016919D01*
X146563500Y-94943810D01*
X146563500Y-84995678D01*
X146583502Y-84927557D01*
X146600405Y-84906583D01*
X146882583Y-84624405D01*
X146944895Y-84590379D01*
X146971678Y-84587500D01*
X154887810Y-84587500D01*
X154889465Y-84587411D01*
X154889477Y-84587411D01*
X154913865Y-84586104D01*
X154915545Y-84586014D01*
X154917222Y-84585834D01*
X154917231Y-84585833D01*
X154936170Y-84583797D01*
X154936171Y-84583797D01*
X154942328Y-84583135D01*
X154997355Y-84565905D01*
X155033057Y-84554726D01*
X155033060Y-84554725D01*
X155038961Y-84552877D01*
X155044385Y-84549915D01*
X155044390Y-84549913D01*
X155097325Y-84521007D01*
X155097327Y-84521006D01*
X155101273Y-84518851D01*
X155107064Y-84514516D01*
X155156797Y-84477286D01*
X155156801Y-84477282D01*
X155160399Y-84474589D01*
X155594589Y-84040399D01*
X155613147Y-84019740D01*
X155630050Y-83998766D01*
X155676987Y-83909040D01*
X155696989Y-83840919D01*
X155707500Y-83767810D01*
X155707500Y-82963678D01*
X155727502Y-82895557D01*
X155744405Y-82874583D01*
X156026583Y-82592405D01*
X156088895Y-82558379D01*
X156115678Y-82555500D01*
X156549322Y-82555500D01*
X156617443Y-82575502D01*
X156663936Y-82629158D01*
X156674040Y-82699432D01*
X156644546Y-82764012D01*
X156638417Y-82770595D01*
X156317411Y-83091601D01*
X156298853Y-83112260D01*
X156281950Y-83133234D01*
X156235013Y-83222960D01*
X156215011Y-83291081D01*
X156214371Y-83295529D01*
X156214370Y-83295536D01*
X156205139Y-83359742D01*
X156204500Y-83364190D01*
X156204500Y-95378000D01*
X156210430Y-95433159D01*
X156221816Y-95485501D01*
X156229166Y-95512291D01*
X156279269Y-95600278D01*
X156283321Y-95604954D01*
X156322864Y-95650589D01*
X156325762Y-95653934D01*
X156359051Y-95686056D01*
X156448770Y-95732987D01*
X156454706Y-95734730D01*
X156512568Y-95751720D01*
X156512572Y-95751721D01*
X156516891Y-95752989D01*
X156521339Y-95753629D01*
X156521346Y-95753630D01*
X156585552Y-95762861D01*
X156585559Y-95762861D01*
X156590000Y-95763500D01*
X159967810Y-95763500D01*
X159969465Y-95763411D01*
X159969477Y-95763411D01*
X159993865Y-95762104D01*
X159995545Y-95762014D01*
X159997222Y-95761834D01*
X159997231Y-95761833D01*
X160016170Y-95759797D01*
X160016171Y-95759797D01*
X160022328Y-95759135D01*
X160100269Y-95734730D01*
X160113057Y-95730726D01*
X160113060Y-95730725D01*
X160118961Y-95728877D01*
X160124385Y-95725915D01*
X160124390Y-95725913D01*
X160177325Y-95697007D01*
X160177327Y-95697006D01*
X160181273Y-95694851D01*
X160201381Y-95679798D01*
X160236797Y-95653286D01*
X160236801Y-95653282D01*
X160240399Y-95650589D01*
X160674589Y-95216399D01*
X160693147Y-95195740D01*
X160710050Y-95174766D01*
X160756987Y-95085040D01*
X160776989Y-95016919D01*
X160787500Y-94943810D01*
X160787500Y-88551678D01*
X160807502Y-88483557D01*
X160824405Y-88462583D01*
X161106583Y-88180405D01*
X161168895Y-88146379D01*
X161195678Y-88143500D01*
X167079810Y-88143500D01*
X167081465Y-88143411D01*
X167081477Y-88143411D01*
X167105865Y-88142104D01*
X167107545Y-88142014D01*
X167109222Y-88141834D01*
X167109231Y-88141833D01*
X167128170Y-88139797D01*
X167128171Y-88139797D01*
X167134328Y-88139135D01*
X167189355Y-88121905D01*
X167225057Y-88110726D01*
X167225060Y-88110725D01*
X167230961Y-88108877D01*
X167236385Y-88105915D01*
X167236390Y-88105913D01*
X167289325Y-88077007D01*
X167289327Y-88077006D01*
X167293273Y-88074851D01*
X167299064Y-88070516D01*
X167348797Y-88033286D01*
X167348801Y-88033282D01*
X167352399Y-88030589D01*
X167786589Y-87596399D01*
X167805147Y-87575740D01*
X167822050Y-87554766D01*
X167868987Y-87465040D01*
X167888989Y-87396919D01*
X167899500Y-87323810D01*
X167899500Y-83364190D01*
X167898014Y-83336455D01*
X167895135Y-83309672D01*
X167877905Y-83254645D01*
X167866726Y-83218943D01*
X167866725Y-83218940D01*
X167864877Y-83213039D01*
X167861915Y-83207615D01*
X167861913Y-83207610D01*
X167833007Y-83154675D01*
X167833006Y-83154673D01*
X167830851Y-83150727D01*
X167803048Y-83113587D01*
X167789286Y-83095203D01*
X167789282Y-83095199D01*
X167786589Y-83091601D01*
X167462290Y-82767302D01*
X167428264Y-82704990D01*
X167433329Y-82634175D01*
X167475876Y-82577339D01*
X167537916Y-82552929D01*
X167543809Y-82552295D01*
X167569159Y-82549570D01*
X167621501Y-82538184D01*
X167648291Y-82530834D01*
X167655142Y-82526933D01*
X167655144Y-82526932D01*
X167730899Y-82483794D01*
X167736278Y-82480731D01*
X167789934Y-82434238D01*
X167822056Y-82400949D01*
X167868987Y-82311230D01*
X167888989Y-82243109D01*
X167894549Y-82204443D01*
X167898861Y-82174448D01*
X167898861Y-82174441D01*
X167899500Y-82170000D01*
X167899500Y-78866000D01*
X167896914Y-78841943D01*
X167893932Y-78814205D01*
X167893931Y-78814199D01*
X167893570Y-78810841D01*
X167882184Y-78758499D01*
X167874834Y-78731709D01*
X167861040Y-78707484D01*
X167827794Y-78649101D01*
X167824731Y-78643722D01*
X167783898Y-78596598D01*
X167780078Y-78592189D01*
X167780073Y-78592184D01*
X167778238Y-78590066D01*
X167744949Y-78557944D01*
X167655230Y-78511013D01*
X167649294Y-78509270D01*
X167591432Y-78492280D01*
X167591428Y-78492279D01*
X167587109Y-78491011D01*
X167582661Y-78490371D01*
X167582654Y-78490370D01*
X167518448Y-78481139D01*
X167518441Y-78481139D01*
X167514000Y-78480500D01*
X153976190Y-78480500D01*
X153974535Y-78480589D01*
X153974523Y-78480589D01*
X153951022Y-78481848D01*
X153948455Y-78481986D01*
X153946778Y-78482166D01*
X153946769Y-78482167D01*
X153927830Y-78484203D01*
X153927829Y-78484203D01*
X153921672Y-78484865D01*
X153866645Y-78502095D01*
X153830943Y-78513274D01*
X153830940Y-78513275D01*
X153825039Y-78515123D01*
X153819615Y-78518085D01*
X153819610Y-78518087D01*
X153777458Y-78541105D01*
X153762727Y-78549149D01*
X153759127Y-78551844D01*
X153707203Y-78590714D01*
X153707199Y-78590718D01*
X153703601Y-78593411D01*
X153269411Y-79027601D01*
X153250853Y-79048260D01*
X153233950Y-79069234D01*
X153187013Y-79158960D01*
X153167011Y-79227081D01*
X153166371Y-79231529D01*
X153166370Y-79231536D01*
X153159924Y-79276374D01*
X153156500Y-79300190D01*
X153156500Y-82136322D01*
X153136498Y-82204443D01*
X153119595Y-82225417D01*
X152837417Y-82507595D01*
X152775105Y-82541621D01*
X152748322Y-82544500D01*
X139244190Y-82544500D01*
X139242535Y-82544589D01*
X139242523Y-82544589D01*
X139219022Y-82545848D01*
X139216455Y-82545986D01*
X139214778Y-82546166D01*
X139214769Y-82546167D01*
X139195830Y-82548203D01*
X139195829Y-82548203D01*
X139189672Y-82548865D01*
X139159288Y-82558379D01*
X139098943Y-82577274D01*
X139098940Y-82577275D01*
X139093039Y-82579123D01*
X139087615Y-82582085D01*
X139087610Y-82582087D01*
X139047005Y-82604260D01*
X139030727Y-82613149D01*
X139027127Y-82615844D01*
X138975203Y-82654714D01*
X138975199Y-82654718D01*
X138971601Y-82657411D01*
X138537411Y-83091601D01*
X138518853Y-83112260D01*
X138501950Y-83133234D01*
X138455013Y-83222960D01*
X138435011Y-83291081D01*
X138434371Y-83295529D01*
X138434370Y-83295536D01*
X138425139Y-83359742D01*
X138424500Y-83364190D01*
X138424500Y-95378000D01*
X130307500Y-95378000D01*
X130307500Y-81947678D01*
X130327502Y-81879557D01*
X130344405Y-81858583D01*
X130702589Y-81500399D01*
X130721147Y-81479740D01*
X130738050Y-81458766D01*
X130784987Y-81369040D01*
X130804989Y-81300919D01*
X130807513Y-81283370D01*
X130814861Y-81232258D01*
X130814861Y-81232251D01*
X130815500Y-81227810D01*
X130815500Y-80209206D01*
X145244501Y-80209206D01*
X145261806Y-80415278D01*
X145318807Y-80614066D01*
X145321625Y-80619548D01*
X145321626Y-80619552D01*
X145410514Y-80792509D01*
X145410517Y-80792513D01*
X145413334Y-80797995D01*
X145541786Y-80960061D01*
X145699271Y-81094091D01*
X145879789Y-81194980D01*
X146076466Y-81258884D01*
X146281809Y-81283370D01*
X146287944Y-81282898D01*
X146287946Y-81282898D01*
X146481856Y-81267977D01*
X146481860Y-81267976D01*
X146487998Y-81267504D01*
X146687178Y-81211892D01*
X146692682Y-81209112D01*
X146692684Y-81209111D01*
X146866262Y-81121431D01*
X146866264Y-81121430D01*
X146871763Y-81118652D01*
X147034722Y-80991334D01*
X147038748Y-80986670D01*
X147038751Y-80986667D01*
X147165819Y-80839457D01*
X147165820Y-80839455D01*
X147169848Y-80834789D01*
X147271995Y-80654979D01*
X147337270Y-80458753D01*
X147363189Y-80253586D01*
X147363602Y-80224000D01*
X147343422Y-80018189D01*
X147283651Y-79820217D01*
X147202163Y-79666960D01*
X147189459Y-79643067D01*
X147189457Y-79643064D01*
X147186565Y-79637625D01*
X147182674Y-79632855D01*
X147182672Y-79632851D01*
X147059758Y-79482143D01*
X147059755Y-79482140D01*
X147055863Y-79477368D01*
X147051114Y-79473439D01*
X146901271Y-79349478D01*
X146901266Y-79349475D01*
X146896522Y-79345550D01*
X146891103Y-79342620D01*
X146891100Y-79342618D01*
X146720032Y-79250122D01*
X146720027Y-79250120D01*
X146714612Y-79247192D01*
X146517063Y-79186040D01*
X146510938Y-79185396D01*
X146510937Y-79185396D01*
X146317526Y-79165068D01*
X146317524Y-79165068D01*
X146311397Y-79164424D01*
X146185229Y-79175906D01*
X146111591Y-79182607D01*
X146111590Y-79182607D01*
X146105450Y-79183166D01*
X145907066Y-79241554D01*
X145901601Y-79244411D01*
X145729261Y-79334508D01*
X145729257Y-79334511D01*
X145723801Y-79337363D01*
X145562635Y-79466943D01*
X145429708Y-79625360D01*
X145330082Y-79806578D01*
X145267553Y-80003696D01*
X145266867Y-80009813D01*
X145266866Y-80009817D01*
X145259386Y-80076505D01*
X145244501Y-80209206D01*
X130815500Y-80209206D01*
X130815500Y-79374000D01*
X130812864Y-79349478D01*
X130809932Y-79322205D01*
X130809931Y-79322199D01*
X130809570Y-79318841D01*
X130798184Y-79266499D01*
X130790834Y-79239709D01*
X130781182Y-79222758D01*
X130743794Y-79157101D01*
X130740731Y-79151722D01*
X130699898Y-79104598D01*
X130696078Y-79100189D01*
X130696073Y-79100184D01*
X130694238Y-79098066D01*
X130660949Y-79065944D01*
X130571230Y-79019013D01*
X130565294Y-79017270D01*
X130507432Y-79000280D01*
X130507428Y-79000279D01*
X130503109Y-78999011D01*
X130498661Y-78998371D01*
X130498654Y-78998370D01*
X130434448Y-78989139D01*
X130434441Y-78989139D01*
X130430000Y-78988500D01*
X129084190Y-78988500D01*
X129082535Y-78988589D01*
X129082523Y-78988589D01*
X129059022Y-78989848D01*
X129056455Y-78989986D01*
X129054778Y-78990166D01*
X129054769Y-78990167D01*
X129035830Y-78992203D01*
X129035829Y-78992203D01*
X129029672Y-78992865D01*
X128974645Y-79010095D01*
X128938943Y-79021274D01*
X128938940Y-79021275D01*
X128933039Y-79023123D01*
X128927615Y-79026085D01*
X128927610Y-79026087D01*
X128887005Y-79048260D01*
X128870727Y-79057149D01*
X128867127Y-79059844D01*
X128815203Y-79098714D01*
X128815199Y-79098718D01*
X128811601Y-79101411D01*
X128377411Y-79535601D01*
X128358853Y-79556260D01*
X128341950Y-79577234D01*
X128339081Y-79582719D01*
X128310359Y-79637625D01*
X128295013Y-79666960D01*
X128275011Y-79735081D01*
X128274371Y-79739529D01*
X128274370Y-79739536D01*
X128265508Y-79801178D01*
X128264500Y-79808190D01*
X128264500Y-100424322D01*
X128244498Y-100492443D01*
X128227595Y-100513417D01*
X127945417Y-100795595D01*
X127883105Y-100829621D01*
X127856322Y-100832500D01*
X125528190Y-100832500D01*
X125526535Y-100832589D01*
X125526523Y-100832589D01*
X125503022Y-100833848D01*
X125500455Y-100833986D01*
X125498778Y-100834166D01*
X125498769Y-100834167D01*
X125479830Y-100836203D01*
X125479829Y-100836203D01*
X125473672Y-100836865D01*
X125418645Y-100854095D01*
X125382943Y-100865274D01*
X125382940Y-100865275D01*
X125377039Y-100867123D01*
X125371615Y-100870085D01*
X125371610Y-100870087D01*
X125318675Y-100898993D01*
X125314727Y-100901149D01*
X125311127Y-100903844D01*
X125259203Y-100942714D01*
X125259199Y-100942718D01*
X125255601Y-100945411D01*
X124821411Y-101379601D01*
X124802853Y-101400260D01*
X124785950Y-101421234D01*
X124739013Y-101510960D01*
X124719011Y-101579081D01*
X124708500Y-101652190D01*
X124708500Y-103579810D01*
X124709986Y-103607545D01*
X124712865Y-103634328D01*
X124714716Y-103640238D01*
X124733065Y-103698838D01*
X124743123Y-103730961D01*
X124746085Y-103736385D01*
X124746087Y-103736390D01*
X124774993Y-103789325D01*
X124777149Y-103793273D01*
X124779844Y-103796873D01*
X124818714Y-103848797D01*
X124818718Y-103848801D01*
X124821411Y-103852399D01*
X125255601Y-104286589D01*
X125276260Y-104305147D01*
X125297234Y-104322050D01*
X125386960Y-104368987D01*
X125406873Y-104374834D01*
X125450758Y-104387720D01*
X125450762Y-104387721D01*
X125455081Y-104388989D01*
X125459529Y-104389629D01*
X125459536Y-104389630D01*
X125523742Y-104398861D01*
X125523749Y-104398861D01*
X125528190Y-104399500D01*
X134155409Y-104399500D01*
X134223530Y-104419502D01*
X134270023Y-104473158D01*
X134280127Y-104543432D01*
X134250633Y-104608012D01*
X134238238Y-104620449D01*
X134135765Y-104709842D01*
X134135761Y-104709846D01*
X134130039Y-104714838D01*
X134038950Y-104844444D01*
X133981406Y-104992037D01*
X133960729Y-105149096D01*
X133978113Y-105306553D01*
X133980723Y-105313684D01*
X133980723Y-105313686D01*
X134017471Y-105414104D01*
X134032553Y-105455319D01*
X134036789Y-105461622D01*
X134036789Y-105461623D01*
X134105994Y-105564610D01*
X134120908Y-105586805D01*
X134126527Y-105591918D01*
X134126528Y-105591919D01*
X134136744Y-105601215D01*
X134238076Y-105693419D01*
X134377293Y-105769008D01*
X134530522Y-105809207D01*
X134614477Y-105810526D01*
X134681319Y-105811576D01*
X134681322Y-105811576D01*
X134688916Y-105811695D01*
X134843332Y-105776329D01*
X134913742Y-105740917D01*
X134978072Y-105708563D01*
X134978075Y-105708561D01*
X134984855Y-105705151D01*
X134990626Y-105700222D01*
X134990629Y-105700220D01*
X135099537Y-105607203D01*
X135105314Y-105602269D01*
X135106855Y-105600125D01*
X135165875Y-105564610D01*
X135197793Y-105560500D01*
X136583254Y-105560500D01*
X136651375Y-105580502D01*
X136668050Y-105593304D01*
X136778076Y-105693419D01*
X136917293Y-105769008D01*
X137070522Y-105809207D01*
X137154477Y-105810526D01*
X137221319Y-105811576D01*
X137221322Y-105811576D01*
X137228916Y-105811695D01*
X137383332Y-105776329D01*
X137453742Y-105740917D01*
X137518072Y-105708563D01*
X137518075Y-105708561D01*
X137524855Y-105705151D01*
X137530626Y-105700222D01*
X137530629Y-105700220D01*
X137639536Y-105607204D01*
X137639536Y-105607203D01*
X137645314Y-105602269D01*
X137737755Y-105473624D01*
X137796842Y-105326641D01*
X137819162Y-105169807D01*
X137819307Y-105156000D01*
X137800276Y-104998733D01*
X137744280Y-104850546D01*
X137704872Y-104793207D01*
X137658855Y-104726251D01*
X137658854Y-104726249D01*
X137654553Y-104719992D01*
X137602082Y-104673242D01*
X137541849Y-104619577D01*
X137504294Y-104559326D01*
X137505273Y-104488337D01*
X137544478Y-104429146D01*
X137609459Y-104400547D01*
X137625668Y-104399500D01*
X139822500Y-104399500D01*
X139890621Y-104419502D01*
X139937114Y-104473158D01*
X139948500Y-104525500D01*
X139948500Y-106554000D01*
X139928498Y-106622121D01*
X139874842Y-106668614D01*
X139822500Y-106680000D01*
X113844190Y-106680000D01*
X113776069Y-106659998D01*
X113755095Y-106643095D01*
X111245096Y-104133096D01*
X118212729Y-104133096D01*
X118215778Y-104160710D01*
X118228957Y-104280078D01*
X118230113Y-104290553D01*
X118232723Y-104297684D01*
X118232723Y-104297686D01*
X118281407Y-104430721D01*
X118284553Y-104439319D01*
X118288789Y-104445622D01*
X118288789Y-104445623D01*
X118345543Y-104530081D01*
X118372908Y-104570805D01*
X118378527Y-104575918D01*
X118378528Y-104575919D01*
X118484460Y-104672309D01*
X118490076Y-104677419D01*
X118629293Y-104753008D01*
X118782522Y-104793207D01*
X118840613Y-104794119D01*
X118904852Y-104795129D01*
X118972651Y-104816198D01*
X118991968Y-104832018D01*
X119624485Y-105464535D01*
X119624489Y-105464538D01*
X119647277Y-105487326D01*
X119667154Y-105497454D01*
X119684011Y-105507784D01*
X119702071Y-105520905D01*
X119711504Y-105523970D01*
X119723295Y-105527801D01*
X119741561Y-105535366D01*
X119761445Y-105545498D01*
X119771238Y-105547049D01*
X119783487Y-105548989D01*
X119802713Y-105553605D01*
X119814500Y-105557435D01*
X119814502Y-105557435D01*
X119823934Y-105560500D01*
X123375254Y-105560500D01*
X123443375Y-105580502D01*
X123460050Y-105593304D01*
X123570076Y-105693419D01*
X123709293Y-105769008D01*
X123862522Y-105809207D01*
X123946477Y-105810526D01*
X124013319Y-105811576D01*
X124013322Y-105811576D01*
X124020916Y-105811695D01*
X124175332Y-105776329D01*
X124245742Y-105740917D01*
X124310072Y-105708563D01*
X124310075Y-105708561D01*
X124316855Y-105705151D01*
X124322626Y-105700222D01*
X124322629Y-105700220D01*
X124431536Y-105607204D01*
X124431536Y-105607203D01*
X124437314Y-105602269D01*
X124529755Y-105473624D01*
X124588842Y-105326641D01*
X124611162Y-105169807D01*
X124611307Y-105156000D01*
X124592276Y-104998733D01*
X124536280Y-104850546D01*
X124496872Y-104793207D01*
X124450855Y-104726251D01*
X124450854Y-104726249D01*
X124446553Y-104719992D01*
X124328275Y-104614611D01*
X124320889Y-104610700D01*
X124194988Y-104544039D01*
X124194989Y-104544039D01*
X124188274Y-104540484D01*
X124180911Y-104538635D01*
X124180907Y-104538633D01*
X124146858Y-104530081D01*
X124085662Y-104494087D01*
X124053641Y-104430721D01*
X124060646Y-104360880D01*
X124061795Y-104358022D01*
X124080842Y-104310641D01*
X124103162Y-104153807D01*
X124103307Y-104140000D01*
X124084276Y-103982733D01*
X124028280Y-103834546D01*
X123997201Y-103789325D01*
X123942855Y-103710251D01*
X123942854Y-103710249D01*
X123938553Y-103703992D01*
X123820275Y-103598611D01*
X123812889Y-103594700D01*
X123686988Y-103528039D01*
X123686989Y-103528039D01*
X123680274Y-103524484D01*
X123526633Y-103485892D01*
X123519034Y-103485852D01*
X123519033Y-103485852D01*
X123453181Y-103485507D01*
X123368221Y-103485062D01*
X123360841Y-103486834D01*
X123360839Y-103486834D01*
X123221563Y-103520271D01*
X123221560Y-103520272D01*
X123214184Y-103522043D01*
X123073414Y-103594700D01*
X122954039Y-103698838D01*
X122953198Y-103697874D01*
X122899349Y-103731050D01*
X122866157Y-103735500D01*
X120973906Y-103735500D01*
X120905785Y-103715498D01*
X120890087Y-103703577D01*
X120812363Y-103634328D01*
X120772275Y-103598611D01*
X120764889Y-103594700D01*
X120638988Y-103528039D01*
X120638989Y-103528039D01*
X120632274Y-103524484D01*
X120478633Y-103485892D01*
X120471034Y-103485852D01*
X120471033Y-103485852D01*
X120405181Y-103485507D01*
X120320221Y-103485062D01*
X120312841Y-103486834D01*
X120312839Y-103486834D01*
X120173563Y-103520271D01*
X120173560Y-103520272D01*
X120166184Y-103522043D01*
X120025414Y-103594700D01*
X119906039Y-103698838D01*
X119814950Y-103828444D01*
X119757406Y-103976037D01*
X119756414Y-103983571D01*
X119756015Y-103985126D01*
X119719701Y-104046133D01*
X119656169Y-104077822D01*
X119585590Y-104070132D01*
X119530372Y-104025506D01*
X119512705Y-103986278D01*
X119512276Y-103982733D01*
X119456280Y-103834546D01*
X119425201Y-103789325D01*
X119370855Y-103710251D01*
X119370854Y-103710249D01*
X119366553Y-103703992D01*
X119248275Y-103598611D01*
X119240889Y-103594700D01*
X119114988Y-103528039D01*
X119114989Y-103528039D01*
X119108274Y-103524484D01*
X118954633Y-103485892D01*
X118947034Y-103485852D01*
X118947033Y-103485852D01*
X118881181Y-103485507D01*
X118796221Y-103485062D01*
X118788841Y-103486834D01*
X118788839Y-103486834D01*
X118649563Y-103520271D01*
X118649560Y-103520272D01*
X118642184Y-103522043D01*
X118501414Y-103594700D01*
X118382039Y-103698838D01*
X118290950Y-103828444D01*
X118233406Y-103976037D01*
X118232414Y-103983570D01*
X118232414Y-103983571D01*
X118219370Y-104082654D01*
X118212729Y-104133096D01*
X111245096Y-104133096D01*
X103668905Y-96556905D01*
X103634879Y-96494593D01*
X103632000Y-96467810D01*
X103632000Y-95378000D01*
X119628500Y-95378000D01*
X119634430Y-95433159D01*
X119645816Y-95485501D01*
X119653166Y-95512291D01*
X119703269Y-95600278D01*
X119707321Y-95604954D01*
X119746864Y-95650589D01*
X119749762Y-95653934D01*
X119783051Y-95686056D01*
X119872770Y-95732987D01*
X119878706Y-95734730D01*
X119936568Y-95751720D01*
X119936572Y-95751721D01*
X119940891Y-95752989D01*
X119945339Y-95753629D01*
X119945346Y-95753630D01*
X120009552Y-95762861D01*
X120009559Y-95762861D01*
X120014000Y-95763500D01*
X126947810Y-95763500D01*
X126949465Y-95763411D01*
X126949477Y-95763411D01*
X126973865Y-95762104D01*
X126975545Y-95762014D01*
X126977222Y-95761834D01*
X126977231Y-95761833D01*
X126996170Y-95759797D01*
X126996171Y-95759797D01*
X127002328Y-95759135D01*
X127080269Y-95734730D01*
X127093057Y-95730726D01*
X127093060Y-95730725D01*
X127098961Y-95728877D01*
X127104385Y-95725915D01*
X127104390Y-95725913D01*
X127157325Y-95697007D01*
X127157327Y-95697006D01*
X127161273Y-95694851D01*
X127181381Y-95679798D01*
X127216797Y-95653286D01*
X127216801Y-95653282D01*
X127220399Y-95650589D01*
X127654589Y-95216399D01*
X127673147Y-95195740D01*
X127690050Y-95174766D01*
X127736987Y-95085040D01*
X127756989Y-95016919D01*
X127767500Y-94943810D01*
X127767500Y-76867678D01*
X127787502Y-76799557D01*
X127804405Y-76778583D01*
X128086583Y-76496405D01*
X128148895Y-76462379D01*
X128175678Y-76459500D01*
X128397384Y-76459500D01*
X128465505Y-76479502D01*
X128511998Y-76533158D01*
X128522102Y-76603432D01*
X128509758Y-76635645D01*
X128511910Y-76636536D01*
X128507161Y-76648000D01*
X128500266Y-76658320D01*
X128485500Y-76732554D01*
X128485501Y-78382687D01*
X128492612Y-78418439D01*
X128496555Y-78438262D01*
X128500266Y-78456922D01*
X128507161Y-78467241D01*
X128507162Y-78467243D01*
X128523044Y-78491011D01*
X128556516Y-78541105D01*
X128640699Y-78597355D01*
X128714933Y-78612121D01*
X129539866Y-78612121D01*
X130365066Y-78612120D01*
X130400818Y-78605009D01*
X130427126Y-78599777D01*
X130427128Y-78599776D01*
X130439301Y-78597355D01*
X130449621Y-78590460D01*
X130449622Y-78590459D01*
X130513168Y-78547998D01*
X130523484Y-78541105D01*
X130579734Y-78456922D01*
X130594500Y-78382688D01*
X130594499Y-76732555D01*
X130579734Y-76658320D01*
X130572838Y-76648000D01*
X130568089Y-76636534D01*
X130571473Y-76635132D01*
X130556636Y-76587751D01*
X130575418Y-76519284D01*
X130628234Y-76471840D01*
X130682616Y-76459500D01*
X145325719Y-76459500D01*
X145393840Y-76479502D01*
X145440333Y-76533158D01*
X145450437Y-76603432D01*
X145420943Y-76668012D01*
X145395721Y-76690265D01*
X145320516Y-76740516D01*
X145264266Y-76824699D01*
X145249500Y-76898933D01*
X145249501Y-78549066D01*
X145256612Y-78584818D01*
X145261802Y-78610912D01*
X145264266Y-78623301D01*
X145271161Y-78633620D01*
X145271162Y-78633622D01*
X145277911Y-78643722D01*
X145320516Y-78707484D01*
X145404699Y-78763734D01*
X145478933Y-78778500D01*
X146303866Y-78778500D01*
X147129066Y-78778499D01*
X147164818Y-78771388D01*
X147191126Y-78766156D01*
X147191128Y-78766155D01*
X147203301Y-78763734D01*
X147213621Y-78756839D01*
X147213622Y-78756838D01*
X147277168Y-78714377D01*
X147287484Y-78707484D01*
X147343734Y-78623301D01*
X147358500Y-78549067D01*
X147358499Y-76898934D01*
X147348018Y-76846238D01*
X147346156Y-76836874D01*
X147346155Y-76836872D01*
X147343734Y-76824699D01*
X147326935Y-76799557D01*
X147294377Y-76750832D01*
X147287484Y-76740516D01*
X147212279Y-76690265D01*
X147166751Y-76635788D01*
X147157904Y-76565344D01*
X147188545Y-76501300D01*
X147248947Y-76463989D01*
X147282281Y-76459500D01*
X156304322Y-76459500D01*
X156372443Y-76479502D01*
X156393417Y-76496405D01*
X156751601Y-76854589D01*
X156772260Y-76873147D01*
X156793234Y-76890050D01*
X156882960Y-76936987D01*
X156902873Y-76942834D01*
X156946758Y-76955720D01*
X156946762Y-76955721D01*
X156951081Y-76956989D01*
X156955529Y-76957629D01*
X156955536Y-76957630D01*
X157019742Y-76966861D01*
X157019749Y-76966861D01*
X157024190Y-76967500D01*
X168530000Y-76967500D01*
X168533346Y-76967140D01*
X168533351Y-76967140D01*
X168581795Y-76961932D01*
X168581801Y-76961931D01*
X168585159Y-76961570D01*
X168637501Y-76950184D01*
X168664291Y-76942834D01*
X168671142Y-76938933D01*
X168671144Y-76938932D01*
X168746899Y-76895794D01*
X168752278Y-76892731D01*
X168794989Y-76855722D01*
X168803811Y-76848078D01*
X168803816Y-76848073D01*
X168805934Y-76846238D01*
X168838056Y-76812949D01*
X168884987Y-76723230D01*
X168886730Y-76717294D01*
X168903720Y-76659432D01*
X168903721Y-76659428D01*
X168904989Y-76655109D01*
X168907660Y-76636536D01*
X168914861Y-76586448D01*
X168914861Y-76586441D01*
X168915500Y-76582000D01*
X168915500Y-73712190D01*
X168914014Y-73684455D01*
X168911135Y-73657672D01*
X168893905Y-73602645D01*
X168882726Y-73566943D01*
X168882725Y-73566940D01*
X168880877Y-73561039D01*
X168877915Y-73555615D01*
X168877913Y-73555610D01*
X168849007Y-73502675D01*
X168849006Y-73502673D01*
X168846851Y-73498727D01*
X168819048Y-73461587D01*
X168805286Y-73443203D01*
X168805282Y-73443199D01*
X168802589Y-73439601D01*
X168368399Y-73005411D01*
X168347740Y-72986853D01*
X168326766Y-72969950D01*
X168237040Y-72923013D01*
X168215064Y-72916560D01*
X168173242Y-72904280D01*
X168173238Y-72904279D01*
X168168919Y-72903011D01*
X168164471Y-72902371D01*
X168164464Y-72902370D01*
X168100258Y-72893139D01*
X168100251Y-72893139D01*
X168095810Y-72892500D01*
X125528190Y-72892500D01*
X125526535Y-72892589D01*
X125526523Y-72892589D01*
X125503022Y-72893848D01*
X125500455Y-72893986D01*
X125498778Y-72894166D01*
X125498769Y-72894167D01*
X125479830Y-72896203D01*
X125479829Y-72896203D01*
X125473672Y-72896865D01*
X125418645Y-72914095D01*
X125382943Y-72925274D01*
X125382940Y-72925275D01*
X125377039Y-72927123D01*
X125371615Y-72930085D01*
X125371610Y-72930087D01*
X125318675Y-72958993D01*
X125314727Y-72961149D01*
X125311127Y-72963844D01*
X125259203Y-73002714D01*
X125259199Y-73002718D01*
X125255601Y-73005411D01*
X124821411Y-73439601D01*
X124802853Y-73460260D01*
X124785950Y-73481234D01*
X124739013Y-73570960D01*
X124719011Y-73639081D01*
X124718371Y-73643529D01*
X124718370Y-73643536D01*
X124709139Y-73707742D01*
X124708500Y-73712190D01*
X124708500Y-81628322D01*
X124688498Y-81696443D01*
X124671595Y-81717417D01*
X124389417Y-81999595D01*
X124327105Y-82033621D01*
X124300322Y-82036500D01*
X120448190Y-82036500D01*
X120446535Y-82036589D01*
X120446523Y-82036589D01*
X120423022Y-82037848D01*
X120420455Y-82037986D01*
X120418778Y-82038166D01*
X120418769Y-82038167D01*
X120399830Y-82040203D01*
X120399829Y-82040203D01*
X120393672Y-82040865D01*
X120338645Y-82058095D01*
X120302943Y-82069274D01*
X120302940Y-82069275D01*
X120297039Y-82071123D01*
X120291615Y-82074085D01*
X120291610Y-82074087D01*
X120238675Y-82102993D01*
X120234727Y-82105149D01*
X120231127Y-82107844D01*
X120179203Y-82146714D01*
X120179199Y-82146718D01*
X120175601Y-82149411D01*
X119741411Y-82583601D01*
X119722853Y-82604260D01*
X119705950Y-82625234D01*
X119659013Y-82714960D01*
X119639011Y-82783081D01*
X119628500Y-82856190D01*
X119628500Y-95378000D01*
X103632000Y-95378000D01*
X103632000Y-86607623D01*
X103641591Y-86559404D01*
X103661069Y-86512380D01*
X103664228Y-86504754D01*
X103683285Y-86360000D01*
X103664228Y-86215246D01*
X103641591Y-86160596D01*
X103632000Y-86112377D01*
X103632000Y-79026827D01*
X109684501Y-79026827D01*
X109701806Y-79232899D01*
X109758807Y-79431687D01*
X109761625Y-79437169D01*
X109761626Y-79437173D01*
X109850514Y-79610130D01*
X109850517Y-79610134D01*
X109853334Y-79615616D01*
X109981786Y-79777682D01*
X109986479Y-79781676D01*
X109986480Y-79781677D01*
X110031765Y-79820217D01*
X110139271Y-79911712D01*
X110319789Y-80012601D01*
X110516466Y-80076505D01*
X110721809Y-80100991D01*
X110727944Y-80100519D01*
X110727946Y-80100519D01*
X110921856Y-80085598D01*
X110921860Y-80085597D01*
X110927998Y-80085125D01*
X111127178Y-80029513D01*
X111132682Y-80026733D01*
X111132684Y-80026732D01*
X111306262Y-79939052D01*
X111306264Y-79939051D01*
X111311763Y-79936273D01*
X111474722Y-79808955D01*
X111478748Y-79804291D01*
X111478751Y-79804288D01*
X111605819Y-79657078D01*
X111605820Y-79657076D01*
X111609848Y-79652410D01*
X111711995Y-79472600D01*
X111752952Y-79349478D01*
X111775325Y-79282222D01*
X111775326Y-79282219D01*
X111777270Y-79276374D01*
X111803189Y-79071207D01*
X111803602Y-79041621D01*
X111783422Y-78835810D01*
X111723651Y-78637838D01*
X111655290Y-78509270D01*
X111629459Y-78460688D01*
X111629457Y-78460685D01*
X111626565Y-78455246D01*
X111622674Y-78450476D01*
X111622672Y-78450472D01*
X111499758Y-78299764D01*
X111499755Y-78299761D01*
X111495863Y-78294989D01*
X111488966Y-78289283D01*
X111341271Y-78167099D01*
X111341266Y-78167096D01*
X111336522Y-78163171D01*
X111331103Y-78160241D01*
X111331100Y-78160239D01*
X111160032Y-78067743D01*
X111160027Y-78067741D01*
X111154612Y-78064813D01*
X110957063Y-78003661D01*
X110950938Y-78003017D01*
X110950937Y-78003017D01*
X110757526Y-77982689D01*
X110757524Y-77982689D01*
X110751397Y-77982045D01*
X110625229Y-77993527D01*
X110551591Y-78000228D01*
X110551590Y-78000228D01*
X110545450Y-78000787D01*
X110347066Y-78059175D01*
X110341601Y-78062032D01*
X110169261Y-78152129D01*
X110169257Y-78152132D01*
X110163801Y-78154984D01*
X110002635Y-78284564D01*
X109869708Y-78442981D01*
X109770082Y-78624199D01*
X109707553Y-78821317D01*
X109706867Y-78827434D01*
X109706866Y-78827438D01*
X109688103Y-78994716D01*
X109684501Y-79026827D01*
X103632000Y-79026827D01*
X103632000Y-75716554D01*
X109689500Y-75716554D01*
X109689501Y-77366687D01*
X109704266Y-77440922D01*
X109760516Y-77525105D01*
X109844699Y-77581355D01*
X109918933Y-77596121D01*
X110743866Y-77596121D01*
X111569066Y-77596120D01*
X111604818Y-77589009D01*
X111631126Y-77583777D01*
X111631128Y-77583776D01*
X111643301Y-77581355D01*
X111653621Y-77574460D01*
X111653622Y-77574459D01*
X111717168Y-77531998D01*
X111727484Y-77525105D01*
X111783734Y-77440922D01*
X111798500Y-77366688D01*
X111798499Y-75716555D01*
X111783734Y-75642320D01*
X111727484Y-75558137D01*
X111643301Y-75501887D01*
X111569067Y-75487121D01*
X110744134Y-75487121D01*
X109918934Y-75487122D01*
X109883182Y-75494233D01*
X109856874Y-75499465D01*
X109856872Y-75499466D01*
X109844699Y-75501887D01*
X109834379Y-75508782D01*
X109834378Y-75508783D01*
X109773985Y-75549137D01*
X109760516Y-75558137D01*
X109704266Y-75642320D01*
X109689500Y-75716554D01*
X103632000Y-75716554D01*
X103632000Y-69696383D01*
X127572951Y-69696383D01*
X127573248Y-69701535D01*
X127573248Y-69701539D01*
X127575007Y-69732041D01*
X127586719Y-69935162D01*
X127587856Y-69940208D01*
X127587857Y-69940214D01*
X127609295Y-70035340D01*
X127639301Y-70168487D01*
X127729284Y-70390090D01*
X127854254Y-70594021D01*
X128010852Y-70774803D01*
X128194874Y-70927581D01*
X128199326Y-70930183D01*
X128199331Y-70930186D01*
X128374910Y-71032786D01*
X128401377Y-71048252D01*
X128624817Y-71133575D01*
X128629883Y-71134606D01*
X128629884Y-71134606D01*
X128684729Y-71145764D01*
X128859191Y-71181259D01*
X128993499Y-71186184D01*
X129093043Y-71189835D01*
X129093048Y-71189835D01*
X129098207Y-71190024D01*
X129103327Y-71189368D01*
X129103329Y-71189368D01*
X129330316Y-71160290D01*
X129330317Y-71160290D01*
X129335444Y-71159633D01*
X129340394Y-71158148D01*
X129559577Y-71092390D01*
X129559582Y-71092388D01*
X129564532Y-71090903D01*
X129779319Y-70985680D01*
X129783524Y-70982680D01*
X129783530Y-70982677D01*
X129969832Y-70849789D01*
X129969834Y-70849787D01*
X129974036Y-70846790D01*
X130143454Y-70677962D01*
X130176000Y-70632669D01*
X164108001Y-70632669D01*
X164108371Y-70639490D01*
X164113895Y-70690352D01*
X164117521Y-70705604D01*
X164162676Y-70826054D01*
X164171214Y-70841649D01*
X164247715Y-70943724D01*
X164260276Y-70956285D01*
X164362351Y-71032786D01*
X164377946Y-71041324D01*
X164498394Y-71086478D01*
X164513649Y-71090105D01*
X164564514Y-71095631D01*
X164571328Y-71096000D01*
X165843885Y-71096000D01*
X165859124Y-71091525D01*
X165860329Y-71090135D01*
X165862000Y-71082452D01*
X165862000Y-71077884D01*
X166370000Y-71077884D01*
X166374475Y-71093123D01*
X166375865Y-71094328D01*
X166383548Y-71095999D01*
X167660669Y-71095999D01*
X167667490Y-71095629D01*
X167718352Y-71090105D01*
X167733604Y-71086479D01*
X167854054Y-71041324D01*
X167869649Y-71032786D01*
X167971724Y-70956285D01*
X167984285Y-70943724D01*
X168060786Y-70841649D01*
X168069324Y-70826054D01*
X168114478Y-70705606D01*
X168118105Y-70690351D01*
X168123631Y-70639486D01*
X168124000Y-70632672D01*
X168124000Y-69360115D01*
X168119525Y-69344876D01*
X168118135Y-69343671D01*
X168110452Y-69342000D01*
X166388115Y-69342000D01*
X166372876Y-69346475D01*
X166371671Y-69347865D01*
X166370000Y-69355548D01*
X166370000Y-71077884D01*
X165862000Y-71077884D01*
X165862000Y-69360115D01*
X165857525Y-69344876D01*
X165856135Y-69343671D01*
X165848452Y-69342000D01*
X164126116Y-69342000D01*
X164110877Y-69346475D01*
X164109672Y-69347865D01*
X164108001Y-69355548D01*
X164108001Y-70632669D01*
X130176000Y-70632669D01*
X130283023Y-70483731D01*
X130329304Y-70390090D01*
X130386701Y-70273955D01*
X130386702Y-70273953D01*
X130388995Y-70269313D01*
X130458524Y-70040466D01*
X130489743Y-69803337D01*
X130491485Y-69732041D01*
X130471887Y-69493669D01*
X130413620Y-69261699D01*
X130318249Y-69042360D01*
X130188335Y-68841543D01*
X130181472Y-68834000D01*
X130164989Y-68815885D01*
X164108000Y-68815885D01*
X164112475Y-68831124D01*
X164113865Y-68832329D01*
X164121548Y-68834000D01*
X165843885Y-68834000D01*
X165859124Y-68829525D01*
X165860329Y-68828135D01*
X165862000Y-68820452D01*
X165862000Y-68815885D01*
X166370000Y-68815885D01*
X166374475Y-68831124D01*
X166375865Y-68832329D01*
X166383548Y-68834000D01*
X168105884Y-68834000D01*
X168121123Y-68829525D01*
X168122328Y-68828135D01*
X168123999Y-68820452D01*
X168123999Y-67543331D01*
X168123629Y-67536510D01*
X168118105Y-67485648D01*
X168114479Y-67470396D01*
X168069324Y-67349946D01*
X168060786Y-67334351D01*
X167984285Y-67232276D01*
X167971724Y-67219715D01*
X167869649Y-67143214D01*
X167854054Y-67134676D01*
X167733606Y-67089522D01*
X167718351Y-67085895D01*
X167667486Y-67080369D01*
X167660672Y-67080000D01*
X166388115Y-67080000D01*
X166372876Y-67084475D01*
X166371671Y-67085865D01*
X166370000Y-67093548D01*
X166370000Y-68815885D01*
X165862000Y-68815885D01*
X165862000Y-67098116D01*
X165857525Y-67082877D01*
X165856135Y-67081672D01*
X165848452Y-67080001D01*
X164571331Y-67080001D01*
X164564510Y-67080371D01*
X164513648Y-67085895D01*
X164498396Y-67089521D01*
X164377946Y-67134676D01*
X164362351Y-67143214D01*
X164260276Y-67219715D01*
X164247715Y-67232276D01*
X164171214Y-67334351D01*
X164162676Y-67349946D01*
X164117522Y-67470394D01*
X164113895Y-67485649D01*
X164108369Y-67536514D01*
X164108000Y-67543328D01*
X164108000Y-68815885D01*
X130164989Y-68815885D01*
X130030844Y-68668463D01*
X130030842Y-68668462D01*
X130027366Y-68664641D01*
X130023315Y-68661442D01*
X130023311Y-68661438D01*
X129843725Y-68519610D01*
X129839667Y-68516405D01*
X129630277Y-68400815D01*
X129404819Y-68320977D01*
X129356046Y-68312289D01*
X129174438Y-68279939D01*
X129174434Y-68279939D01*
X129169350Y-68279033D01*
X129085548Y-68278009D01*
X128935360Y-68276174D01*
X128935358Y-68276174D01*
X128930191Y-68276111D01*
X128771680Y-68300367D01*
X128698876Y-68311507D01*
X128698874Y-68311508D01*
X128693767Y-68312289D01*
X128661906Y-68322703D01*
X128471340Y-68384990D01*
X128471338Y-68384991D01*
X128466427Y-68386596D01*
X128254275Y-68497035D01*
X128250142Y-68500138D01*
X128250139Y-68500140D01*
X128067145Y-68637536D01*
X128063010Y-68640641D01*
X127897767Y-68813557D01*
X127894853Y-68817829D01*
X127894852Y-68817830D01*
X127883822Y-68834000D01*
X127762985Y-69011140D01*
X127662284Y-69228083D01*
X127598366Y-69458561D01*
X127597817Y-69463695D01*
X127597817Y-69463697D01*
X127594614Y-69493669D01*
X127572951Y-69696383D01*
X103632000Y-69696383D01*
X103632000Y-67126062D01*
X104640873Y-67126062D01*
X104650169Y-67138077D01*
X104701374Y-67173931D01*
X104710869Y-67179414D01*
X104908327Y-67271490D01*
X104918619Y-67275236D01*
X105129068Y-67331625D01*
X105139861Y-67333528D01*
X105356905Y-67352517D01*
X105367855Y-67352517D01*
X105584899Y-67333528D01*
X105595692Y-67331625D01*
X105806141Y-67275236D01*
X105816433Y-67271490D01*
X106013891Y-67179414D01*
X106023386Y-67173931D01*
X106075428Y-67137491D01*
X106083804Y-67127012D01*
X106076736Y-67113566D01*
X105375192Y-66412022D01*
X105361248Y-66404408D01*
X105359415Y-66404539D01*
X105352800Y-66408790D01*
X104647303Y-67114287D01*
X104640873Y-67126062D01*
X103632000Y-67126062D01*
X103632000Y-66045475D01*
X104049863Y-66045475D01*
X104068852Y-66262519D01*
X104070755Y-66273312D01*
X104127144Y-66483761D01*
X104130890Y-66494053D01*
X104222966Y-66691511D01*
X104228449Y-66701006D01*
X104264889Y-66753048D01*
X104275368Y-66761424D01*
X104288814Y-66754356D01*
X104990358Y-66052812D01*
X104996736Y-66041132D01*
X105726788Y-66041132D01*
X105726919Y-66042965D01*
X105731170Y-66049580D01*
X106436667Y-66755077D01*
X106448442Y-66761507D01*
X106460457Y-66752211D01*
X106496311Y-66701006D01*
X106501794Y-66691511D01*
X106567686Y-66550205D01*
X106614604Y-66496920D01*
X106682881Y-66477459D01*
X106750841Y-66498001D01*
X106796906Y-66552024D01*
X106807881Y-66603454D01*
X106807881Y-66865066D01*
X106822646Y-66939301D01*
X106878896Y-67023484D01*
X106963079Y-67079734D01*
X107037313Y-67094500D01*
X107862246Y-67094500D01*
X108687446Y-67094499D01*
X108723198Y-67087388D01*
X108749506Y-67082156D01*
X108749508Y-67082155D01*
X108761681Y-67079734D01*
X108772001Y-67072839D01*
X108772002Y-67072838D01*
X108835548Y-67030377D01*
X108845864Y-67023484D01*
X108902114Y-66939301D01*
X108916880Y-66865067D01*
X108916879Y-65214934D01*
X108906407Y-65162283D01*
X108904536Y-65152874D01*
X108904535Y-65152872D01*
X108902114Y-65140699D01*
X108845864Y-65056516D01*
X108761681Y-65000266D01*
X108687447Y-64985500D01*
X107862514Y-64985500D01*
X107037314Y-64985501D01*
X107001562Y-64992612D01*
X106975254Y-64997844D01*
X106975252Y-64997845D01*
X106963079Y-65000266D01*
X106952759Y-65007161D01*
X106952758Y-65007162D01*
X106892365Y-65047516D01*
X106878896Y-65056516D01*
X106822646Y-65140699D01*
X106807880Y-65214933D01*
X106807880Y-65476544D01*
X106787878Y-65544665D01*
X106734222Y-65591158D01*
X106663948Y-65601262D01*
X106599368Y-65571768D01*
X106567685Y-65529794D01*
X106501794Y-65388489D01*
X106496311Y-65378994D01*
X106459871Y-65326952D01*
X106449392Y-65318576D01*
X106435946Y-65325644D01*
X105734402Y-66027188D01*
X105726788Y-66041132D01*
X104996736Y-66041132D01*
X104997972Y-66038868D01*
X104997841Y-66037035D01*
X104993590Y-66030420D01*
X104288093Y-65324923D01*
X104276318Y-65318493D01*
X104264303Y-65327789D01*
X104228449Y-65378994D01*
X104222966Y-65388489D01*
X104130890Y-65585947D01*
X104127144Y-65596239D01*
X104070755Y-65806688D01*
X104068852Y-65817481D01*
X104049863Y-66034525D01*
X104049863Y-66045475D01*
X103632000Y-66045475D01*
X103632000Y-64952988D01*
X104640956Y-64952988D01*
X104648024Y-64966434D01*
X105349568Y-65667978D01*
X105363512Y-65675592D01*
X105365345Y-65675461D01*
X105371960Y-65671210D01*
X106077457Y-64965713D01*
X106083887Y-64953938D01*
X106074591Y-64941923D01*
X106023386Y-64906069D01*
X106013891Y-64900586D01*
X105816433Y-64808510D01*
X105806141Y-64804764D01*
X105595692Y-64748375D01*
X105584899Y-64746472D01*
X105367855Y-64727483D01*
X105356905Y-64727483D01*
X105139861Y-64746472D01*
X105129068Y-64748375D01*
X104918619Y-64804764D01*
X104908327Y-64808510D01*
X104710869Y-64900586D01*
X104701374Y-64906069D01*
X104649332Y-64942509D01*
X104640956Y-64952988D01*
X103632000Y-64952988D01*
X103632000Y-63506974D01*
X127577500Y-63506974D01*
X127577501Y-65957107D01*
X127592266Y-66031342D01*
X127648516Y-66115525D01*
X127732699Y-66171775D01*
X127806933Y-66186541D01*
X129031802Y-66186541D01*
X130257066Y-66186540D01*
X130292818Y-66179429D01*
X130319126Y-66174197D01*
X130319128Y-66174196D01*
X130331301Y-66171775D01*
X130341621Y-66164880D01*
X130341622Y-66164879D01*
X130405168Y-66122418D01*
X130415484Y-66115525D01*
X130471734Y-66031342D01*
X130486500Y-65957108D01*
X130486499Y-63961944D01*
X164357183Y-63961944D01*
X164369694Y-64222419D01*
X164420569Y-64478185D01*
X164508690Y-64723621D01*
X164510906Y-64727745D01*
X164625988Y-64941923D01*
X164632120Y-64953336D01*
X164634915Y-64957079D01*
X164634917Y-64957082D01*
X164785357Y-65158545D01*
X164785362Y-65158551D01*
X164788149Y-65162283D01*
X164791458Y-65165563D01*
X164791463Y-65165569D01*
X164970031Y-65342585D01*
X164973348Y-65345873D01*
X164977110Y-65348631D01*
X164977113Y-65348634D01*
X165093346Y-65433860D01*
X165183649Y-65500073D01*
X165187780Y-65502247D01*
X165187781Y-65502247D01*
X165410298Y-65619319D01*
X165410304Y-65619321D01*
X165414433Y-65621494D01*
X165660629Y-65707469D01*
X165665222Y-65708341D01*
X165912239Y-65755239D01*
X165912242Y-65755239D01*
X165916828Y-65756110D01*
X166040725Y-65760978D01*
X166172735Y-65766165D01*
X166172740Y-65766165D01*
X166177403Y-65766348D01*
X166270885Y-65756110D01*
X166431976Y-65738468D01*
X166431981Y-65738467D01*
X166436629Y-65737958D01*
X166688811Y-65671564D01*
X166888092Y-65585947D01*
X166924107Y-65570474D01*
X166924110Y-65570472D01*
X166928410Y-65568625D01*
X166932390Y-65566162D01*
X166932394Y-65566160D01*
X167146188Y-65433860D01*
X167146192Y-65433857D01*
X167150161Y-65431401D01*
X167349194Y-65262907D01*
X167521135Y-65066845D01*
X167559525Y-65007162D01*
X167659680Y-64851453D01*
X167662208Y-64847523D01*
X167769314Y-64609757D01*
X167840099Y-64358772D01*
X167856862Y-64227007D01*
X167872611Y-64103212D01*
X167872611Y-64103206D01*
X167873009Y-64100081D01*
X167875420Y-64008000D01*
X167856094Y-63747941D01*
X167798542Y-63493595D01*
X167779612Y-63444915D01*
X167719324Y-63289886D01*
X167704027Y-63250550D01*
X167574625Y-63024145D01*
X167413180Y-62819353D01*
X167223239Y-62640674D01*
X167008973Y-62492032D01*
X167004783Y-62489966D01*
X167004780Y-62489964D01*
X166779278Y-62378759D01*
X166779275Y-62378758D01*
X166775090Y-62376694D01*
X166526728Y-62297193D01*
X166522121Y-62296443D01*
X166522118Y-62296442D01*
X166273955Y-62256026D01*
X166273956Y-62256026D01*
X166269344Y-62255275D01*
X166142875Y-62253620D01*
X166013267Y-62251923D01*
X166013264Y-62251923D01*
X166008590Y-62251862D01*
X165750196Y-62287028D01*
X165745710Y-62288336D01*
X165745708Y-62288336D01*
X165715321Y-62297193D01*
X165499838Y-62360000D01*
X165263016Y-62469177D01*
X165259111Y-62471737D01*
X165259106Y-62471740D01*
X165048846Y-62609592D01*
X165048841Y-62609596D01*
X165044933Y-62612158D01*
X164850379Y-62785804D01*
X164683629Y-62986300D01*
X164548345Y-63209240D01*
X164546538Y-63213548D01*
X164546538Y-63213549D01*
X164454624Y-63432740D01*
X164447500Y-63449728D01*
X164446349Y-63454260D01*
X164446348Y-63454263D01*
X164414475Y-63579765D01*
X164383310Y-63702480D01*
X164357183Y-63961944D01*
X130486499Y-63961944D01*
X130486499Y-63506975D01*
X130471734Y-63432740D01*
X130415484Y-63348557D01*
X130331301Y-63292307D01*
X130257067Y-63277541D01*
X129032198Y-63277541D01*
X127806934Y-63277542D01*
X127771182Y-63284653D01*
X127744874Y-63289885D01*
X127744872Y-63289886D01*
X127732699Y-63292307D01*
X127722379Y-63299202D01*
X127722378Y-63299203D01*
X127661985Y-63339557D01*
X127648516Y-63348557D01*
X127592266Y-63432740D01*
X127577500Y-63506974D01*
X103632000Y-63506974D01*
X103632000Y-60380500D01*
X103652002Y-60312379D01*
X103705658Y-60265886D01*
X103758000Y-60254500D01*
X169619500Y-60254500D01*
X169687621Y-60274502D01*
G37*
%TD.AperFunction*%
%TD*%
%TA.AperFunction,Conductor*%
%TO.N,GND*%
G36*
X104648000Y-84836000D02*
G01*
X101600000Y-84836000D01*
X101600000Y-83312000D01*
X104648000Y-83312000D01*
X104648000Y-84836000D01*
G37*
%TD.AperFunction*%
%TD*%
%TA.AperFunction,Conductor*%
%TO.N,/Driver/V*%
G36*
X167582121Y-78760002D02*
G01*
X167628614Y-78813658D01*
X167640000Y-78866000D01*
X167640000Y-82170000D01*
X167619998Y-82238121D01*
X167566342Y-82284614D01*
X167514000Y-82296000D01*
X155956000Y-82296000D01*
X155448000Y-82804000D01*
X155448000Y-83767810D01*
X155427998Y-83835931D01*
X155411095Y-83856905D01*
X154976905Y-84291095D01*
X154914593Y-84325121D01*
X154887810Y-84328000D01*
X146812000Y-84328000D01*
X146304000Y-84836000D01*
X146304000Y-94943810D01*
X146283998Y-95011931D01*
X146267095Y-95032905D01*
X145832905Y-95467095D01*
X145770593Y-95501121D01*
X145743810Y-95504000D01*
X138810000Y-95504000D01*
X138741879Y-95483998D01*
X138695386Y-95430342D01*
X138684000Y-95378000D01*
X138684000Y-83364190D01*
X138704002Y-83296069D01*
X138720905Y-83275095D01*
X139155095Y-82840905D01*
X139217407Y-82806879D01*
X139244190Y-82804000D01*
X152908000Y-82804000D01*
X153416000Y-82296000D01*
X153416000Y-79300190D01*
X153436002Y-79232069D01*
X153452905Y-79211095D01*
X153887095Y-78776905D01*
X153949407Y-78742879D01*
X153976190Y-78740000D01*
X167514000Y-78740000D01*
X167582121Y-78760002D01*
G37*
%TD.AperFunction*%
%TD*%
%TA.AperFunction,Conductor*%
%TO.N,/Driver/bus_cur+*%
G36*
X130498121Y-79268002D02*
G01*
X130544614Y-79321658D01*
X130556000Y-79374000D01*
X130556000Y-81227810D01*
X130535998Y-81295931D01*
X130519095Y-81316905D01*
X130048000Y-81788000D01*
X130048000Y-103632000D01*
X129540000Y-104140000D01*
X125528190Y-104140000D01*
X125460069Y-104119998D01*
X125439095Y-104103095D01*
X125004905Y-103668905D01*
X124970879Y-103606593D01*
X124968000Y-103579810D01*
X124968000Y-101652190D01*
X124988002Y-101584069D01*
X125004905Y-101563095D01*
X125439095Y-101128905D01*
X125501407Y-101094879D01*
X125528190Y-101092000D01*
X128016000Y-101092000D01*
X128524000Y-100584000D01*
X128524000Y-79808190D01*
X128544002Y-79740069D01*
X128560905Y-79719095D01*
X128995095Y-79284905D01*
X129057407Y-79250879D01*
X129084190Y-79248000D01*
X130430000Y-79248000D01*
X130498121Y-79268002D01*
G37*
%TD.AperFunction*%
%TD*%
%TA.AperFunction,Conductor*%
%TO.N,/Driver/U*%
G36*
X168163931Y-73172002D02*
G01*
X168184905Y-73188905D01*
X168619095Y-73623095D01*
X168653121Y-73685407D01*
X168656000Y-73712190D01*
X168656000Y-76582000D01*
X168635998Y-76650121D01*
X168582342Y-76696614D01*
X168530000Y-76708000D01*
X157024190Y-76708000D01*
X156956069Y-76687998D01*
X156935095Y-76671095D01*
X156464000Y-76200000D01*
X128016000Y-76200000D01*
X127508000Y-76708000D01*
X127508000Y-94943810D01*
X127487998Y-95011931D01*
X127471095Y-95032905D01*
X127036905Y-95467095D01*
X126974593Y-95501121D01*
X126947810Y-95504000D01*
X120014000Y-95504000D01*
X119945879Y-95483998D01*
X119899386Y-95430342D01*
X119888000Y-95378000D01*
X119888000Y-82856190D01*
X119908002Y-82788069D01*
X119924905Y-82767095D01*
X120359095Y-82332905D01*
X120421407Y-82298879D01*
X120448190Y-82296000D01*
X124460000Y-82296000D01*
X124968000Y-81788000D01*
X124968000Y-73712190D01*
X124988002Y-73644069D01*
X125004905Y-73623095D01*
X125439095Y-73188905D01*
X125501407Y-73154879D01*
X125528190Y-73152000D01*
X168095810Y-73152000D01*
X168163931Y-73172002D01*
G37*
%TD.AperFunction*%
%TD*%
%TA.AperFunction,Conductor*%
%TO.N,GND*%
G36*
X102558121Y-60274502D02*
G01*
X102604614Y-60328158D01*
X102616000Y-60380500D01*
X102616000Y-73103808D01*
X102595998Y-73171929D01*
X102566705Y-73203770D01*
X102487526Y-73264526D01*
X102398645Y-73380358D01*
X102342772Y-73515246D01*
X102323715Y-73660000D01*
X102342772Y-73804754D01*
X102345932Y-73812383D01*
X102368909Y-73867855D01*
X102378500Y-73916073D01*
X102378500Y-75997039D01*
X102358498Y-76065160D01*
X102304842Y-76111653D01*
X102234568Y-76121757D01*
X102169988Y-76092263D01*
X102136091Y-76045258D01*
X102087515Y-75927986D01*
X102087514Y-75927984D01*
X102084355Y-75920358D01*
X101995474Y-75804526D01*
X101988924Y-75799500D01*
X101988921Y-75799497D01*
X101886196Y-75720673D01*
X101886194Y-75720672D01*
X101879643Y-75715645D01*
X101744754Y-75659772D01*
X101600000Y-75640715D01*
X101591812Y-75641793D01*
X101463432Y-75658694D01*
X101463430Y-75658695D01*
X101455246Y-75659772D01*
X101407430Y-75679578D01*
X101327986Y-75712485D01*
X101327984Y-75712486D01*
X101320358Y-75715645D01*
X101204526Y-75804526D01*
X101115645Y-75920358D01*
X101112486Y-75927984D01*
X101112485Y-75927986D01*
X101089507Y-75983460D01*
X101062193Y-76024336D01*
X100665934Y-76420595D01*
X100603622Y-76454621D01*
X100576839Y-76457500D01*
X87886072Y-76457500D01*
X87837854Y-76447909D01*
X87782383Y-76424932D01*
X87774754Y-76421772D01*
X87630000Y-76402715D01*
X87621812Y-76403793D01*
X87493432Y-76420694D01*
X87493430Y-76420695D01*
X87485246Y-76421772D01*
X87437430Y-76441578D01*
X87357986Y-76474485D01*
X87357984Y-76474486D01*
X87350358Y-76477645D01*
X87234526Y-76566526D01*
X87145645Y-76682358D01*
X87142486Y-76689984D01*
X87142485Y-76689986D01*
X87122677Y-76737807D01*
X87089772Y-76817246D01*
X87088695Y-76825430D01*
X87088694Y-76825432D01*
X87080187Y-76890050D01*
X87070715Y-76962000D01*
X87089772Y-77106754D01*
X87145645Y-77241642D01*
X87234526Y-77357474D01*
X87241076Y-77362500D01*
X87241079Y-77362503D01*
X87343804Y-77441327D01*
X87350357Y-77446355D01*
X87485246Y-77502228D01*
X87630000Y-77521285D01*
X87638188Y-77520207D01*
X87766566Y-77503306D01*
X87774754Y-77502228D01*
X87837855Y-77476091D01*
X87886072Y-77466500D01*
X100767376Y-77466500D01*
X100779381Y-77467841D01*
X100779421Y-77467345D01*
X100788368Y-77468065D01*
X100797124Y-77470046D01*
X100850382Y-77466742D01*
X100858184Y-77466500D01*
X100874226Y-77466500D01*
X100878657Y-77465865D01*
X100878662Y-77465865D01*
X100882687Y-77465288D01*
X100884457Y-77465035D01*
X100894514Y-77464004D01*
X100916976Y-77462611D01*
X100932400Y-77461654D01*
X100932402Y-77461654D01*
X100941359Y-77461098D01*
X100949799Y-77458051D01*
X100953089Y-77457370D01*
X100968938Y-77453418D01*
X100972168Y-77452473D01*
X100981052Y-77451201D01*
X100989223Y-77447486D01*
X101023763Y-77431782D01*
X101033128Y-77427970D01*
X101068837Y-77415078D01*
X101068840Y-77415076D01*
X101077284Y-77412028D01*
X101084533Y-77406732D01*
X101087490Y-77405160D01*
X101101614Y-77396907D01*
X101104437Y-77395102D01*
X101112605Y-77391388D01*
X101119402Y-77385531D01*
X101119404Y-77385530D01*
X101148153Y-77360757D01*
X101156064Y-77354475D01*
X101166944Y-77346527D01*
X101177806Y-77335665D01*
X101184653Y-77329307D01*
X101215282Y-77302915D01*
X101222082Y-77297056D01*
X101226966Y-77289521D01*
X101232699Y-77282949D01*
X101241926Y-77271545D01*
X101775664Y-76737807D01*
X101816540Y-76710493D01*
X101879643Y-76684355D01*
X101899001Y-76669501D01*
X101988921Y-76600503D01*
X101988924Y-76600500D01*
X101995474Y-76595474D01*
X102011847Y-76574137D01*
X102039914Y-76537558D01*
X102084355Y-76479642D01*
X102092699Y-76459500D01*
X102136091Y-76354742D01*
X102180640Y-76299462D01*
X102248003Y-76277041D01*
X102316795Y-76294600D01*
X102365173Y-76346562D01*
X102378500Y-76402961D01*
X102378500Y-78428376D01*
X102377159Y-78440381D01*
X102377655Y-78440421D01*
X102376935Y-78449368D01*
X102374954Y-78458124D01*
X102375510Y-78467084D01*
X102377634Y-78501332D01*
X102376798Y-78525575D01*
X102374793Y-78540807D01*
X102374793Y-78540811D01*
X102373715Y-78549000D01*
X102376841Y-78572745D01*
X102385411Y-78637838D01*
X102392772Y-78693754D01*
X102395931Y-78701380D01*
X102441272Y-78810841D01*
X102448645Y-78828642D01*
X102537526Y-78944474D01*
X102544072Y-78949497D01*
X102544075Y-78949500D01*
X102566704Y-78966864D01*
X102608571Y-79024202D01*
X102616000Y-79066826D01*
X102616000Y-86112377D01*
X102606409Y-86160596D01*
X102583772Y-86215246D01*
X102564715Y-86360000D01*
X102565793Y-86368188D01*
X102580392Y-86479077D01*
X102583772Y-86504754D01*
X102586931Y-86512380D01*
X102606409Y-86559404D01*
X102616000Y-86607623D01*
X102616000Y-96520000D01*
X102618086Y-96522086D01*
X102619500Y-96531920D01*
X102619500Y-98099839D01*
X102599498Y-98167960D01*
X102582595Y-98188935D01*
X102440334Y-98331195D01*
X102399457Y-98358508D01*
X102358192Y-98375601D01*
X102336358Y-98384645D01*
X102220526Y-98473526D01*
X102215503Y-98480072D01*
X102208114Y-98489701D01*
X102131645Y-98589358D01*
X102128486Y-98596984D01*
X102128485Y-98596986D01*
X102114853Y-98629896D01*
X102075772Y-98724246D01*
X102074695Y-98732430D01*
X102074694Y-98732432D01*
X102071365Y-98757721D01*
X102056715Y-98869000D01*
X102075772Y-99013754D01*
X102131645Y-99148642D01*
X102220526Y-99264474D01*
X102227076Y-99269500D01*
X102227079Y-99269503D01*
X102329804Y-99348327D01*
X102336357Y-99353355D01*
X102471246Y-99409228D01*
X102616000Y-99428285D01*
X102624188Y-99427207D01*
X102752566Y-99410306D01*
X102760754Y-99409228D01*
X102895643Y-99353355D01*
X102902196Y-99348327D01*
X103004921Y-99269503D01*
X103004924Y-99269500D01*
X103011474Y-99264474D01*
X103100355Y-99148642D01*
X103126493Y-99085540D01*
X103153807Y-99044664D01*
X103430794Y-98767677D01*
X103440234Y-98760135D01*
X103439911Y-98759755D01*
X103446747Y-98753937D01*
X103454339Y-98749147D01*
X103489672Y-98709140D01*
X103495017Y-98703454D01*
X103506351Y-98692120D01*
X103509038Y-98688534D01*
X103509043Y-98688529D01*
X103512557Y-98683841D01*
X103518938Y-98676003D01*
X103544060Y-98647557D01*
X103550001Y-98640830D01*
X103553815Y-98632707D01*
X103555661Y-98629896D01*
X103564072Y-98615897D01*
X103565686Y-98612948D01*
X103571070Y-98605765D01*
X103585602Y-98567000D01*
X103587542Y-98561826D01*
X103591469Y-98552506D01*
X103607602Y-98518144D01*
X103607602Y-98518143D01*
X103611417Y-98510018D01*
X103612798Y-98501147D01*
X103613783Y-98497925D01*
X103617920Y-98482154D01*
X103618644Y-98478860D01*
X103621798Y-98470448D01*
X103625276Y-98423650D01*
X103626426Y-98413626D01*
X103628500Y-98400303D01*
X103628500Y-98384938D01*
X103628846Y-98375601D01*
X103631842Y-98335282D01*
X103632507Y-98326334D01*
X103630634Y-98317559D01*
X103630041Y-98308863D01*
X103628500Y-98294263D01*
X103628500Y-97836690D01*
X103648502Y-97768569D01*
X103702158Y-97722076D01*
X103772432Y-97711972D01*
X103837012Y-97741466D01*
X103843595Y-97747595D01*
X113284000Y-107188000D01*
X139822500Y-107188000D01*
X139890621Y-107208002D01*
X139937114Y-107261658D01*
X139948500Y-107314000D01*
X139948500Y-107573500D01*
X139928498Y-107641621D01*
X139874842Y-107688114D01*
X139822500Y-107699500D01*
X139770624Y-107699500D01*
X139758619Y-107698159D01*
X139758579Y-107698655D01*
X139749632Y-107697935D01*
X139740876Y-107695954D01*
X139697338Y-107698655D01*
X139687618Y-107699258D01*
X139679816Y-107699500D01*
X139663774Y-107699500D01*
X139659343Y-107700135D01*
X139659338Y-107700135D01*
X139655313Y-107700712D01*
X139653543Y-107700965D01*
X139643486Y-107701996D01*
X139621024Y-107703389D01*
X139605600Y-107704346D01*
X139605598Y-107704346D01*
X139596641Y-107704902D01*
X139588201Y-107707949D01*
X139584911Y-107708630D01*
X139569062Y-107712582D01*
X139565832Y-107713527D01*
X139556948Y-107714799D01*
X139546877Y-107719378D01*
X139514222Y-107734225D01*
X139504860Y-107738036D01*
X139469158Y-107750925D01*
X139469157Y-107750926D01*
X139460716Y-107753973D01*
X139453467Y-107759269D01*
X139450486Y-107760854D01*
X139436408Y-107769080D01*
X139433569Y-107770896D01*
X139425395Y-107774612D01*
X139418591Y-107780475D01*
X139389848Y-107805242D01*
X139381930Y-107811530D01*
X139371056Y-107819473D01*
X139360194Y-107830335D01*
X139353348Y-107836693D01*
X139315918Y-107868944D01*
X139311034Y-107876479D01*
X139305301Y-107883051D01*
X139296074Y-107894455D01*
X138568206Y-108622323D01*
X138558766Y-108629865D01*
X138559089Y-108630245D01*
X138552253Y-108636063D01*
X138544661Y-108640853D01*
X138538719Y-108647581D01*
X138509329Y-108680859D01*
X138503983Y-108686546D01*
X138492649Y-108697880D01*
X138489964Y-108701463D01*
X138489962Y-108701465D01*
X138486447Y-108706155D01*
X138480062Y-108713998D01*
X138448999Y-108749170D01*
X138445186Y-108757292D01*
X138443346Y-108760093D01*
X138434937Y-108774088D01*
X138433315Y-108777051D01*
X138427930Y-108784236D01*
X138424777Y-108792646D01*
X138424776Y-108792648D01*
X138411454Y-108828182D01*
X138407530Y-108837495D01*
X138387583Y-108879982D01*
X138386201Y-108888856D01*
X138385215Y-108892083D01*
X138381075Y-108907866D01*
X138380354Y-108911144D01*
X138377202Y-108919552D01*
X138376537Y-108928503D01*
X138373724Y-108966357D01*
X138372570Y-108976404D01*
X138370500Y-108989697D01*
X138370500Y-109005062D01*
X138370154Y-109014399D01*
X138366493Y-109063667D01*
X138368366Y-109072442D01*
X138368959Y-109081138D01*
X138370500Y-109095738D01*
X138370500Y-112202927D01*
X138360909Y-112251145D01*
X138340132Y-112301306D01*
X138334772Y-112314246D01*
X138315715Y-112459000D01*
X138334772Y-112603754D01*
X138390645Y-112738642D01*
X138395672Y-112745193D01*
X138459104Y-112827859D01*
X138479526Y-112854474D01*
X138486076Y-112859500D01*
X138486079Y-112859503D01*
X138588804Y-112938327D01*
X138595357Y-112943355D01*
X138730246Y-112999228D01*
X138875000Y-113018285D01*
X138883188Y-113017207D01*
X139011566Y-113000306D01*
X139019754Y-112999228D01*
X139154643Y-112943355D01*
X139161196Y-112938327D01*
X139263921Y-112859503D01*
X139263924Y-112859500D01*
X139270474Y-112854474D01*
X139290897Y-112827859D01*
X139354328Y-112745193D01*
X139359355Y-112738642D01*
X139415228Y-112603754D01*
X139434285Y-112459000D01*
X139415228Y-112314246D01*
X139409868Y-112301306D01*
X139389091Y-112251145D01*
X139379500Y-112202927D01*
X139379500Y-109290161D01*
X139399502Y-109222040D01*
X139416405Y-109201066D01*
X139829347Y-108788124D01*
X139891659Y-108754098D01*
X139962474Y-108759163D01*
X140020918Y-108804149D01*
X140023269Y-108808278D01*
X140039262Y-108826735D01*
X140065274Y-108856754D01*
X140069762Y-108861934D01*
X140103051Y-108894056D01*
X140192770Y-108940987D01*
X140198706Y-108942730D01*
X140256568Y-108959720D01*
X140256572Y-108959721D01*
X140260891Y-108960989D01*
X140265339Y-108961629D01*
X140265346Y-108961630D01*
X140329552Y-108970861D01*
X140329559Y-108970861D01*
X140334000Y-108971500D01*
X143130000Y-108971500D01*
X143198121Y-108991502D01*
X143244614Y-109045158D01*
X143256000Y-109097500D01*
X143256000Y-109220000D01*
X144272000Y-110236000D01*
X169619500Y-110236000D01*
X169687621Y-110256002D01*
X169734114Y-110309658D01*
X169745500Y-110362000D01*
X169745500Y-129619500D01*
X169725498Y-129687621D01*
X169671842Y-129734114D01*
X169619500Y-129745500D01*
X147670834Y-129745500D01*
X147602713Y-129725498D01*
X147556220Y-129671842D01*
X147546116Y-129601568D01*
X147575610Y-129536988D01*
X147600013Y-129516838D01*
X147599643Y-129516355D01*
X147708921Y-129432503D01*
X147708924Y-129432500D01*
X147715474Y-129427474D01*
X147804355Y-129311642D01*
X147860228Y-129176754D01*
X147879285Y-129032000D01*
X147860228Y-128887246D01*
X147857068Y-128879617D01*
X147834091Y-128824145D01*
X147824500Y-128775927D01*
X147824500Y-127000000D01*
X163016715Y-127000000D01*
X163035772Y-127144754D01*
X163091645Y-127279642D01*
X163180526Y-127395474D01*
X163187076Y-127400500D01*
X163187079Y-127400503D01*
X163289804Y-127479327D01*
X163296357Y-127484355D01*
X163431246Y-127540228D01*
X163576000Y-127559285D01*
X163584188Y-127558207D01*
X163712566Y-127541306D01*
X163720754Y-127540228D01*
X163855643Y-127484355D01*
X163862196Y-127479327D01*
X163964921Y-127400503D01*
X163964924Y-127400500D01*
X163971474Y-127395474D01*
X164060355Y-127279642D01*
X164116228Y-127144754D01*
X164135285Y-127000000D01*
X164116228Y-126855246D01*
X164113068Y-126847617D01*
X164090091Y-126792145D01*
X164080500Y-126743927D01*
X164080500Y-119636073D01*
X164090091Y-119587855D01*
X164113068Y-119532383D01*
X164116228Y-119524754D01*
X164117914Y-119511953D01*
X164134207Y-119388188D01*
X164135285Y-119380000D01*
X164128533Y-119328715D01*
X164117306Y-119243432D01*
X164117305Y-119243430D01*
X164116228Y-119235246D01*
X164079733Y-119147139D01*
X164063515Y-119107986D01*
X164063514Y-119107984D01*
X164060355Y-119100358D01*
X163995072Y-119015279D01*
X163976501Y-118991077D01*
X163976500Y-118991076D01*
X163971474Y-118984526D01*
X163964924Y-118979500D01*
X163964921Y-118979497D01*
X163862196Y-118900673D01*
X163862194Y-118900672D01*
X163855643Y-118895645D01*
X163720754Y-118839772D01*
X163576000Y-118820715D01*
X163567812Y-118821793D01*
X163439432Y-118838694D01*
X163439430Y-118838695D01*
X163431246Y-118839772D01*
X163407727Y-118849514D01*
X163303986Y-118892485D01*
X163303984Y-118892486D01*
X163296358Y-118895645D01*
X163180526Y-118984526D01*
X163091645Y-119100358D01*
X163088486Y-119107984D01*
X163088485Y-119107986D01*
X163072267Y-119147139D01*
X163035772Y-119235246D01*
X163034695Y-119243430D01*
X163034694Y-119243432D01*
X163023467Y-119328715D01*
X163016715Y-119380000D01*
X163017793Y-119388188D01*
X163034087Y-119511953D01*
X163035772Y-119524754D01*
X163038932Y-119532383D01*
X163061909Y-119587855D01*
X163071500Y-119636073D01*
X163071500Y-126743927D01*
X163061909Y-126792145D01*
X163038932Y-126847617D01*
X163035772Y-126855246D01*
X163016715Y-127000000D01*
X147824500Y-127000000D01*
X147824500Y-123766625D01*
X147825841Y-123754620D01*
X147825345Y-123754580D01*
X147826065Y-123745633D01*
X147828046Y-123736877D01*
X147824742Y-123683619D01*
X147824500Y-123675817D01*
X147824500Y-123659774D01*
X147823034Y-123649536D01*
X147822004Y-123639481D01*
X147819654Y-123601601D01*
X147819654Y-123601599D01*
X147819098Y-123592642D01*
X147816051Y-123584201D01*
X147815372Y-123580923D01*
X147811416Y-123565055D01*
X147810473Y-123561831D01*
X147809201Y-123552948D01*
X147805487Y-123544779D01*
X147805485Y-123544773D01*
X147789775Y-123510221D01*
X147785961Y-123500852D01*
X147773077Y-123465163D01*
X147770028Y-123456716D01*
X147764731Y-123449466D01*
X147763154Y-123446499D01*
X147754907Y-123432386D01*
X147753102Y-123429563D01*
X147749388Y-123421395D01*
X147718753Y-123385842D01*
X147712475Y-123377936D01*
X147704527Y-123367056D01*
X147693665Y-123356194D01*
X147687307Y-123349347D01*
X147660915Y-123318718D01*
X147655056Y-123311918D01*
X147647521Y-123307034D01*
X147640949Y-123301301D01*
X147629545Y-123292074D01*
X146860615Y-122523144D01*
X146826589Y-122460832D01*
X146824626Y-122449209D01*
X146818276Y-122396733D01*
X146762280Y-122248546D01*
X146729880Y-122201404D01*
X146676855Y-122124251D01*
X146676854Y-122124249D01*
X146672553Y-122117992D01*
X146554275Y-122012611D01*
X146414274Y-121938484D01*
X146260633Y-121899892D01*
X146253034Y-121899852D01*
X146253033Y-121899852D01*
X146187181Y-121899507D01*
X146102221Y-121899062D01*
X146094836Y-121900835D01*
X146072703Y-121906148D01*
X146001795Y-121902600D01*
X145954195Y-121872724D01*
X145829405Y-121747934D01*
X145795379Y-121685622D01*
X145792500Y-121658839D01*
X145792500Y-118824144D01*
X145816176Y-118750620D01*
X145865755Y-118681624D01*
X145924842Y-118534641D01*
X145943192Y-118405701D01*
X145946581Y-118381891D01*
X145946581Y-118381888D01*
X145947162Y-118377807D01*
X145947231Y-118371265D01*
X145947264Y-118368134D01*
X145947264Y-118368128D01*
X145947307Y-118364000D01*
X145928276Y-118206733D01*
X145872280Y-118058546D01*
X145782553Y-117927992D01*
X145664275Y-117822611D01*
X145656889Y-117818700D01*
X145530988Y-117752039D01*
X145530989Y-117752039D01*
X145524274Y-117748484D01*
X145370633Y-117709892D01*
X145363034Y-117709852D01*
X145363033Y-117709852D01*
X145297181Y-117709507D01*
X145212221Y-117709062D01*
X145204841Y-117710834D01*
X145204839Y-117710834D01*
X145065563Y-117744271D01*
X145065560Y-117744272D01*
X145058184Y-117746043D01*
X144917414Y-117818700D01*
X144798039Y-117922838D01*
X144706950Y-118052444D01*
X144704190Y-118059524D01*
X144674513Y-118135642D01*
X144649406Y-118200037D01*
X144648414Y-118207570D01*
X144648414Y-118207571D01*
X144630655Y-118342468D01*
X144628729Y-118357096D01*
X144633787Y-118402910D01*
X144640639Y-118464968D01*
X144646113Y-118514553D01*
X144648723Y-118521684D01*
X144648723Y-118521686D01*
X144685924Y-118623342D01*
X144700553Y-118663319D01*
X144704789Y-118669622D01*
X144704789Y-118669623D01*
X144762082Y-118754884D01*
X144783500Y-118825160D01*
X144783500Y-121849376D01*
X144782159Y-121861381D01*
X144782655Y-121861421D01*
X144781935Y-121870368D01*
X144779954Y-121879124D01*
X144781301Y-121900835D01*
X144783258Y-121932382D01*
X144783500Y-121940184D01*
X144783500Y-121956226D01*
X144784135Y-121960657D01*
X144784135Y-121960662D01*
X144784965Y-121966453D01*
X144785996Y-121976514D01*
X144788902Y-122023359D01*
X144791949Y-122031799D01*
X144792630Y-122035089D01*
X144796582Y-122050938D01*
X144797527Y-122054168D01*
X144798799Y-122063052D01*
X144802514Y-122071223D01*
X144818218Y-122105763D01*
X144822030Y-122115128D01*
X144834922Y-122150837D01*
X144834924Y-122150840D01*
X144837972Y-122159284D01*
X144843268Y-122166533D01*
X144844840Y-122169490D01*
X144853093Y-122183614D01*
X144854898Y-122186437D01*
X144858612Y-122194605D01*
X144864469Y-122201402D01*
X144864470Y-122201404D01*
X144889243Y-122230153D01*
X144895525Y-122238064D01*
X144903473Y-122248944D01*
X144914335Y-122259806D01*
X144920693Y-122266652D01*
X144952944Y-122304082D01*
X144960479Y-122308966D01*
X144967051Y-122314699D01*
X144978455Y-122323926D01*
X145515323Y-122860794D01*
X145522865Y-122870234D01*
X145523245Y-122869911D01*
X145529063Y-122876747D01*
X145533853Y-122884339D01*
X145540581Y-122890281D01*
X145573859Y-122919671D01*
X145579546Y-122925017D01*
X145590880Y-122936351D01*
X145594466Y-122939038D01*
X145594471Y-122939043D01*
X145599159Y-122942557D01*
X145606997Y-122948938D01*
X145642170Y-122980001D01*
X145650293Y-122983815D01*
X145653104Y-122985661D01*
X145667103Y-122994072D01*
X145670052Y-122995686D01*
X145677235Y-123001070D01*
X145685640Y-123004221D01*
X145685644Y-123004223D01*
X145687818Y-123005038D01*
X145728383Y-123029824D01*
X145790460Y-123086309D01*
X145796076Y-123091419D01*
X145935293Y-123167008D01*
X146088522Y-123207207D01*
X146088063Y-123208958D01*
X146144062Y-123234076D01*
X146151290Y-123240761D01*
X146778595Y-123868066D01*
X146812621Y-123930378D01*
X146815500Y-123957161D01*
X146815500Y-128775927D01*
X146805909Y-128824145D01*
X146782932Y-128879617D01*
X146779772Y-128887246D01*
X146760715Y-129032000D01*
X146779772Y-129176754D01*
X146835645Y-129311642D01*
X146924526Y-129427474D01*
X146931076Y-129432500D01*
X146931079Y-129432503D01*
X147040357Y-129516355D01*
X147039245Y-129517804D01*
X147081160Y-129561764D01*
X147094595Y-129631478D01*
X147068208Y-129697389D01*
X147010375Y-129738570D01*
X146969166Y-129745500D01*
X70380500Y-129745500D01*
X70312379Y-129725498D01*
X70265886Y-129671842D01*
X70254500Y-129619500D01*
X70254500Y-122814669D01*
X97458001Y-122814669D01*
X97458371Y-122821490D01*
X97463895Y-122872352D01*
X97467521Y-122887604D01*
X97512676Y-123008054D01*
X97521214Y-123023649D01*
X97597715Y-123125724D01*
X97610276Y-123138285D01*
X97712351Y-123214786D01*
X97727946Y-123223324D01*
X97848394Y-123268478D01*
X97863649Y-123272105D01*
X97914514Y-123277631D01*
X97921328Y-123278000D01*
X98543885Y-123278000D01*
X98559124Y-123273525D01*
X98560329Y-123272135D01*
X98562000Y-123264452D01*
X98562000Y-122192115D01*
X98557525Y-122176876D01*
X98556135Y-122175671D01*
X98548452Y-122174000D01*
X97476116Y-122174000D01*
X97460877Y-122178475D01*
X97459672Y-122179865D01*
X97458001Y-122187548D01*
X97458001Y-122814669D01*
X70254500Y-122814669D01*
X70254500Y-121647885D01*
X97458000Y-121647885D01*
X97462475Y-121663124D01*
X97463865Y-121664329D01*
X97471548Y-121666000D01*
X98543885Y-121666000D01*
X98559124Y-121661525D01*
X98560329Y-121660135D01*
X98562000Y-121652452D01*
X98562000Y-120580116D01*
X98557525Y-120564877D01*
X98556135Y-120563672D01*
X98548452Y-120562001D01*
X97921331Y-120562001D01*
X97914510Y-120562371D01*
X97863648Y-120567895D01*
X97848396Y-120571521D01*
X97727946Y-120616676D01*
X97712351Y-120625214D01*
X97610276Y-120701715D01*
X97597715Y-120714276D01*
X97521214Y-120816351D01*
X97512676Y-120831946D01*
X97467522Y-120952394D01*
X97463895Y-120967649D01*
X97458369Y-121018514D01*
X97458000Y-121025328D01*
X97458000Y-121647885D01*
X70254500Y-121647885D01*
X70254500Y-118377966D01*
X71820257Y-118377966D01*
X71850565Y-118512446D01*
X71853645Y-118522275D01*
X71933770Y-118719603D01*
X71938413Y-118728794D01*
X72049694Y-118910388D01*
X72055777Y-118918699D01*
X72195213Y-119079667D01*
X72202580Y-119086883D01*
X72366434Y-119222916D01*
X72374881Y-119228831D01*
X72558756Y-119336279D01*
X72568042Y-119340729D01*
X72767001Y-119416703D01*
X72776899Y-119419579D01*
X72880250Y-119440606D01*
X72894299Y-119439410D01*
X72898000Y-119429065D01*
X72898000Y-119428517D01*
X73406000Y-119428517D01*
X73410064Y-119442359D01*
X73423478Y-119444393D01*
X73430184Y-119443534D01*
X73440262Y-119441392D01*
X73644255Y-119380191D01*
X73653842Y-119376433D01*
X73845095Y-119282739D01*
X73853945Y-119277464D01*
X74027328Y-119153792D01*
X74035200Y-119147139D01*
X74186052Y-118996812D01*
X74192730Y-118988965D01*
X74317003Y-118816020D01*
X74322313Y-118807183D01*
X74416670Y-118616267D01*
X74420469Y-118606672D01*
X74482377Y-118402910D01*
X74484555Y-118392837D01*
X74485986Y-118381962D01*
X74483775Y-118367778D01*
X74470617Y-118364000D01*
X73424115Y-118364000D01*
X73408876Y-118368475D01*
X73407671Y-118369865D01*
X73406000Y-118377548D01*
X73406000Y-119428517D01*
X72898000Y-119428517D01*
X72898000Y-118382115D01*
X72893525Y-118366876D01*
X72892135Y-118365671D01*
X72884452Y-118364000D01*
X71835225Y-118364000D01*
X71821694Y-118367973D01*
X71820257Y-118377966D01*
X70254500Y-118377966D01*
X70254500Y-117844183D01*
X71816389Y-117844183D01*
X71817912Y-117852607D01*
X71830292Y-117856000D01*
X74470344Y-117856000D01*
X74483875Y-117852027D01*
X74485180Y-117842947D01*
X74443214Y-117675875D01*
X74439894Y-117666124D01*
X74354972Y-117470814D01*
X74350105Y-117461739D01*
X74234426Y-117282926D01*
X74228136Y-117274757D01*
X74084806Y-117117240D01*
X74077273Y-117110215D01*
X73910139Y-116978222D01*
X73901552Y-116972517D01*
X73715117Y-116869599D01*
X73705705Y-116865369D01*
X73591391Y-116824888D01*
X73533855Y-116783294D01*
X73507939Y-116717196D01*
X73521873Y-116647580D01*
X73571232Y-116596549D01*
X73592943Y-116586804D01*
X73603165Y-116583334D01*
X73780276Y-116484147D01*
X73789166Y-116476754D01*
X73924462Y-116364228D01*
X73936345Y-116354345D01*
X73978121Y-116304115D01*
X74062453Y-116202718D01*
X74062455Y-116202715D01*
X74066147Y-116198276D01*
X74165334Y-116021165D01*
X74167190Y-116015698D01*
X74167192Y-116015693D01*
X74228728Y-115834414D01*
X74228729Y-115834409D01*
X74230584Y-115828945D01*
X74231412Y-115823236D01*
X74231413Y-115823231D01*
X74259179Y-115631727D01*
X74259712Y-115628053D01*
X74261232Y-115570000D01*
X74248834Y-115435072D01*
X74243187Y-115373613D01*
X74243186Y-115373610D01*
X74242658Y-115367859D01*
X74239435Y-115356432D01*
X74189125Y-115178046D01*
X74189124Y-115178044D01*
X74187557Y-115172487D01*
X74176978Y-115151033D01*
X74100331Y-114995609D01*
X74097776Y-114990428D01*
X73976320Y-114827779D01*
X73954923Y-114808000D01*
X85292715Y-114808000D01*
X85311772Y-114952754D01*
X85314932Y-114960383D01*
X85337909Y-115015855D01*
X85347500Y-115064073D01*
X85347500Y-118801376D01*
X85346159Y-118813381D01*
X85346655Y-118813421D01*
X85345935Y-118822368D01*
X85343954Y-118831124D01*
X85344687Y-118842932D01*
X85347258Y-118884382D01*
X85347500Y-118892184D01*
X85347500Y-118908226D01*
X85348135Y-118912657D01*
X85348135Y-118912662D01*
X85348965Y-118918453D01*
X85349996Y-118928514D01*
X85352902Y-118975359D01*
X85355949Y-118983799D01*
X85356630Y-118987089D01*
X85360582Y-119002938D01*
X85361527Y-119006168D01*
X85362799Y-119015052D01*
X85366514Y-119023223D01*
X85382218Y-119057763D01*
X85386030Y-119067128D01*
X85398922Y-119102837D01*
X85398924Y-119102840D01*
X85401972Y-119111284D01*
X85407268Y-119118533D01*
X85408840Y-119121490D01*
X85417093Y-119135614D01*
X85418898Y-119138437D01*
X85422612Y-119146605D01*
X85428469Y-119153402D01*
X85428470Y-119153404D01*
X85453243Y-119182153D01*
X85459525Y-119190064D01*
X85467473Y-119200944D01*
X85478335Y-119211806D01*
X85484693Y-119218652D01*
X85516944Y-119256082D01*
X85524479Y-119260966D01*
X85531051Y-119266699D01*
X85542455Y-119275926D01*
X86461323Y-120194794D01*
X86468865Y-120204234D01*
X86469245Y-120203911D01*
X86475063Y-120210747D01*
X86479853Y-120218339D01*
X86486581Y-120224281D01*
X86519859Y-120253671D01*
X86525546Y-120259017D01*
X86536880Y-120270351D01*
X86540463Y-120273036D01*
X86540465Y-120273038D01*
X86545155Y-120276553D01*
X86552998Y-120282938D01*
X86588170Y-120314001D01*
X86596292Y-120317814D01*
X86599093Y-120319654D01*
X86613088Y-120328063D01*
X86616051Y-120329685D01*
X86623236Y-120335070D01*
X86631646Y-120338223D01*
X86631648Y-120338224D01*
X86667182Y-120351546D01*
X86676495Y-120355470D01*
X86718982Y-120375417D01*
X86727856Y-120376799D01*
X86731083Y-120377785D01*
X86746866Y-120381925D01*
X86750144Y-120382646D01*
X86758552Y-120385798D01*
X86772309Y-120386820D01*
X86805357Y-120389276D01*
X86815404Y-120390430D01*
X86823886Y-120391751D01*
X86823889Y-120391751D01*
X86828697Y-120392500D01*
X86844062Y-120392500D01*
X86853400Y-120392846D01*
X86902667Y-120396507D01*
X86911442Y-120394634D01*
X86920138Y-120394041D01*
X86934738Y-120392500D01*
X91691928Y-120392500D01*
X91740145Y-120402091D01*
X91803246Y-120428228D01*
X91811434Y-120429306D01*
X91871024Y-120437151D01*
X91948000Y-120447285D01*
X91956188Y-120446207D01*
X92084566Y-120429306D01*
X92092754Y-120428228D01*
X92155855Y-120402091D01*
X92204072Y-120392500D01*
X93401376Y-120392500D01*
X93413381Y-120393841D01*
X93413421Y-120393345D01*
X93422368Y-120394065D01*
X93431124Y-120396046D01*
X93484382Y-120392742D01*
X93492184Y-120392500D01*
X93508226Y-120392500D01*
X93512657Y-120391865D01*
X93512662Y-120391865D01*
X93516687Y-120391288D01*
X93518457Y-120391035D01*
X93528514Y-120390004D01*
X93550976Y-120388611D01*
X93566400Y-120387654D01*
X93566402Y-120387654D01*
X93575359Y-120387098D01*
X93583799Y-120384051D01*
X93587089Y-120383370D01*
X93602938Y-120379418D01*
X93606168Y-120378473D01*
X93615052Y-120377201D01*
X93657763Y-120357782D01*
X93667128Y-120353970D01*
X93702837Y-120341078D01*
X93702840Y-120341076D01*
X93711284Y-120338028D01*
X93718533Y-120332732D01*
X93721490Y-120331160D01*
X93735614Y-120322907D01*
X93738437Y-120321102D01*
X93746605Y-120317388D01*
X93753402Y-120311531D01*
X93753404Y-120311530D01*
X93782153Y-120286757D01*
X93790064Y-120280475D01*
X93800944Y-120272527D01*
X93811806Y-120261665D01*
X93818653Y-120255307D01*
X93849282Y-120228915D01*
X93856082Y-120223056D01*
X93860966Y-120215521D01*
X93866699Y-120208949D01*
X93875926Y-120197545D01*
X95008786Y-119064685D01*
X95018226Y-119057143D01*
X95017903Y-119056763D01*
X95024739Y-119050945D01*
X95032331Y-119046155D01*
X95067664Y-119006148D01*
X95073009Y-119000462D01*
X95084343Y-118989128D01*
X95087030Y-118985542D01*
X95087035Y-118985537D01*
X95090549Y-118980849D01*
X95096930Y-118973011D01*
X95122052Y-118944565D01*
X95127993Y-118937838D01*
X95131807Y-118929715D01*
X95133653Y-118926904D01*
X95142064Y-118912905D01*
X95143678Y-118909956D01*
X95149062Y-118902773D01*
X95165534Y-118858834D01*
X95169461Y-118849514D01*
X95185594Y-118815152D01*
X95185594Y-118815151D01*
X95189409Y-118807026D01*
X95190790Y-118798155D01*
X95191775Y-118794933D01*
X95195912Y-118779162D01*
X95196636Y-118775868D01*
X95199790Y-118767456D01*
X95201042Y-118750618D01*
X95203268Y-118720658D01*
X95204418Y-118710634D01*
X95206492Y-118697311D01*
X95206492Y-118681946D01*
X95206838Y-118672609D01*
X95209834Y-118632290D01*
X95210499Y-118623342D01*
X95208626Y-118614567D01*
X95208033Y-118605871D01*
X95206492Y-118591271D01*
X95206492Y-115876139D01*
X95222091Y-115823015D01*
X95442060Y-115823015D01*
X95453388Y-115840641D01*
X95457414Y-115859693D01*
X95469685Y-115952899D01*
X95471772Y-115968754D01*
X95527645Y-116103642D01*
X95559483Y-116145134D01*
X95603669Y-116202718D01*
X95616526Y-116219474D01*
X95623076Y-116224500D01*
X95623079Y-116224503D01*
X95725804Y-116303327D01*
X95732357Y-116308355D01*
X95832687Y-116349913D01*
X95856018Y-116359577D01*
X95867246Y-116364228D01*
X96012000Y-116383285D01*
X96020188Y-116382207D01*
X96148566Y-116365306D01*
X96156754Y-116364228D01*
X96165337Y-116360673D01*
X96284015Y-116311515D01*
X96284017Y-116311514D01*
X96291643Y-116308355D01*
X96292873Y-116307411D01*
X96358848Y-116291406D01*
X96425940Y-116314626D01*
X96469827Y-116370433D01*
X96477775Y-116400817D01*
X96484457Y-116451571D01*
X96487772Y-116476754D01*
X96506608Y-116522228D01*
X96539297Y-116601144D01*
X96543645Y-116611642D01*
X96560803Y-116634003D01*
X96627498Y-116720921D01*
X96632526Y-116727474D01*
X96639076Y-116732500D01*
X96639079Y-116732503D01*
X96688220Y-116770210D01*
X96748357Y-116816355D01*
X96883246Y-116872228D01*
X97028000Y-116891285D01*
X97036188Y-116890207D01*
X97085106Y-116883767D01*
X97172754Y-116872228D01*
X97307643Y-116816355D01*
X97367780Y-116770210D01*
X97416921Y-116732503D01*
X97416924Y-116732500D01*
X97423474Y-116727474D01*
X97431361Y-116717196D01*
X97436038Y-116711101D01*
X97493377Y-116669234D01*
X97564248Y-116665013D01*
X97626150Y-116699778D01*
X97635962Y-116711101D01*
X97640639Y-116717196D01*
X97648526Y-116727474D01*
X97655076Y-116732500D01*
X97655079Y-116732503D01*
X97704220Y-116770210D01*
X97764357Y-116816355D01*
X97899246Y-116872228D01*
X97986896Y-116883767D01*
X98051822Y-116912489D01*
X98059544Y-116919594D01*
X100914595Y-119774645D01*
X100948621Y-119836957D01*
X100951500Y-119863740D01*
X100951500Y-120805073D01*
X100931498Y-120873194D01*
X100880616Y-120918030D01*
X100878463Y-120918824D01*
X100704010Y-121022612D01*
X100699670Y-121026418D01*
X100699666Y-121026421D01*
X100679723Y-121043911D01*
X100551392Y-121156455D01*
X100425720Y-121315869D01*
X100423031Y-121320980D01*
X100423029Y-121320983D01*
X100411507Y-121342883D01*
X100362087Y-121393856D01*
X100292955Y-121410018D01*
X100226059Y-121386239D01*
X100182638Y-121330068D01*
X100173999Y-121284215D01*
X100173999Y-121025331D01*
X100173629Y-121018510D01*
X100168105Y-120967648D01*
X100164479Y-120952396D01*
X100119324Y-120831946D01*
X100110786Y-120816351D01*
X100034285Y-120714276D01*
X100021724Y-120701715D01*
X99919649Y-120625214D01*
X99904054Y-120616676D01*
X99783606Y-120571522D01*
X99768351Y-120567895D01*
X99717486Y-120562369D01*
X99710672Y-120562000D01*
X99088115Y-120562000D01*
X99072876Y-120566475D01*
X99071671Y-120567865D01*
X99070000Y-120575548D01*
X99070000Y-123259884D01*
X99074475Y-123275123D01*
X99075865Y-123276328D01*
X99083548Y-123277999D01*
X99710669Y-123277999D01*
X99717490Y-123277629D01*
X99768352Y-123272105D01*
X99783604Y-123268479D01*
X99904054Y-123223324D01*
X99919649Y-123214786D01*
X100021724Y-123138285D01*
X100034285Y-123125724D01*
X100110786Y-123023649D01*
X100119324Y-123008054D01*
X100164478Y-122887606D01*
X100168105Y-122872351D01*
X100173631Y-122821486D01*
X100174000Y-122814672D01*
X100174000Y-122557976D01*
X100194002Y-122489855D01*
X100247658Y-122443362D01*
X100317932Y-122433258D01*
X100382512Y-122462752D01*
X100402895Y-122485254D01*
X100512533Y-122640389D01*
X100657938Y-122782035D01*
X100662742Y-122785245D01*
X100716980Y-122821486D01*
X100826720Y-122894812D01*
X100832023Y-122897090D01*
X100832026Y-122897092D01*
X100944900Y-122945586D01*
X101013228Y-122974942D01*
X101074202Y-122988739D01*
X101205579Y-123018467D01*
X101205584Y-123018468D01*
X101211216Y-123019742D01*
X101216987Y-123019969D01*
X101216989Y-123019969D01*
X101276756Y-123022317D01*
X101414053Y-123027712D01*
X101514499Y-123013148D01*
X101609231Y-122999413D01*
X101609236Y-122999412D01*
X101614945Y-122998584D01*
X101620409Y-122996729D01*
X101620414Y-122996728D01*
X101801693Y-122935192D01*
X101801698Y-122935190D01*
X101807165Y-122933334D01*
X101984276Y-122834147D01*
X101999495Y-122821490D01*
X102135913Y-122708031D01*
X102140345Y-122704345D01*
X102270147Y-122548276D01*
X102369334Y-122371165D01*
X102371190Y-122365698D01*
X102371192Y-122365693D01*
X102432728Y-122184414D01*
X102432729Y-122184409D01*
X102434584Y-122178945D01*
X102435412Y-122173236D01*
X102435413Y-122173231D01*
X102463179Y-121981727D01*
X102463712Y-121978053D01*
X102465232Y-121920000D01*
X102453797Y-121795551D01*
X102447187Y-121723613D01*
X102447186Y-121723610D01*
X102446658Y-121717859D01*
X102444732Y-121711029D01*
X102393125Y-121528046D01*
X102393124Y-121528044D01*
X102391557Y-121522487D01*
X102380978Y-121501033D01*
X102304331Y-121345609D01*
X102301776Y-121340428D01*
X102180320Y-121177779D01*
X102031258Y-121039987D01*
X102026375Y-121036906D01*
X102026371Y-121036903D01*
X101864464Y-120934748D01*
X101859581Y-120931667D01*
X101854221Y-120929528D01*
X101854214Y-120929525D01*
X101839811Y-120923779D01*
X101783951Y-120879959D01*
X101760500Y-120806749D01*
X101760500Y-119908740D01*
X101780502Y-119840619D01*
X101834158Y-119794126D01*
X101904432Y-119784022D01*
X101969012Y-119813516D01*
X101975595Y-119819645D01*
X103114015Y-120958065D01*
X103148041Y-121020377D01*
X103142976Y-121091192D01*
X103108001Y-121141889D01*
X103091392Y-121156455D01*
X102965720Y-121315869D01*
X102963031Y-121320980D01*
X102963029Y-121320983D01*
X102951507Y-121342883D01*
X102871203Y-121495515D01*
X102811007Y-121689378D01*
X102787148Y-121890964D01*
X102800424Y-122093522D01*
X102801845Y-122099118D01*
X102801846Y-122099123D01*
X102842655Y-122259806D01*
X102850392Y-122290269D01*
X102852809Y-122295512D01*
X102902945Y-122404265D01*
X102935377Y-122474616D01*
X103052533Y-122640389D01*
X103197938Y-122782035D01*
X103202742Y-122785245D01*
X103256980Y-122821486D01*
X103366720Y-122894812D01*
X103372023Y-122897090D01*
X103372026Y-122897092D01*
X103484900Y-122945586D01*
X103553228Y-122974942D01*
X103614202Y-122988739D01*
X103745579Y-123018467D01*
X103745584Y-123018468D01*
X103751216Y-123019742D01*
X103756987Y-123019969D01*
X103756989Y-123019969D01*
X103816756Y-123022317D01*
X103954053Y-123027712D01*
X104054499Y-123013148D01*
X104149231Y-122999413D01*
X104149236Y-122999412D01*
X104154945Y-122998584D01*
X104160409Y-122996729D01*
X104160414Y-122996728D01*
X104341693Y-122935192D01*
X104341698Y-122935190D01*
X104347165Y-122933334D01*
X104524276Y-122834147D01*
X104539495Y-122821490D01*
X104675913Y-122708031D01*
X104680345Y-122704345D01*
X104810147Y-122548276D01*
X104909334Y-122371165D01*
X104911190Y-122365698D01*
X104911192Y-122365693D01*
X104972728Y-122184414D01*
X104972729Y-122184409D01*
X104974584Y-122178945D01*
X104975412Y-122173236D01*
X104975413Y-122173231D01*
X105003179Y-121981727D01*
X105003712Y-121978053D01*
X105005232Y-121920000D01*
X105002564Y-121890964D01*
X105327148Y-121890964D01*
X105340424Y-122093522D01*
X105341845Y-122099118D01*
X105341846Y-122099123D01*
X105382655Y-122259806D01*
X105390392Y-122290269D01*
X105392809Y-122295512D01*
X105442945Y-122404265D01*
X105475377Y-122474616D01*
X105592533Y-122640389D01*
X105737938Y-122782035D01*
X105742742Y-122785245D01*
X105796980Y-122821486D01*
X105906720Y-122894812D01*
X105912023Y-122897090D01*
X105912026Y-122897092D01*
X106024900Y-122945586D01*
X106093228Y-122974942D01*
X106154202Y-122988739D01*
X106285579Y-123018467D01*
X106285584Y-123018468D01*
X106291216Y-123019742D01*
X106296987Y-123019969D01*
X106296989Y-123019969D01*
X106356756Y-123022317D01*
X106494053Y-123027712D01*
X106594499Y-123013148D01*
X106689231Y-122999413D01*
X106689236Y-122999412D01*
X106694945Y-122998584D01*
X106700409Y-122996729D01*
X106700414Y-122996728D01*
X106881693Y-122935192D01*
X106881698Y-122935190D01*
X106887165Y-122933334D01*
X107064276Y-122834147D01*
X107079495Y-122821490D01*
X107215913Y-122708031D01*
X107220345Y-122704345D01*
X107350147Y-122548276D01*
X107449334Y-122371165D01*
X107451190Y-122365698D01*
X107451192Y-122365693D01*
X107512728Y-122184414D01*
X107512729Y-122184409D01*
X107514584Y-122178945D01*
X107515412Y-122173236D01*
X107515413Y-122173231D01*
X107543179Y-121981727D01*
X107543712Y-121978053D01*
X107545232Y-121920000D01*
X107533797Y-121795551D01*
X107527187Y-121723613D01*
X107527186Y-121723610D01*
X107526658Y-121717859D01*
X107524732Y-121711029D01*
X107473125Y-121528046D01*
X107473124Y-121528044D01*
X107471557Y-121522487D01*
X107460978Y-121501033D01*
X107384331Y-121345609D01*
X107381776Y-121340428D01*
X107260320Y-121177779D01*
X107111258Y-121039987D01*
X107106375Y-121036906D01*
X107106371Y-121036903D01*
X106944464Y-120934748D01*
X106939581Y-120931667D01*
X106751039Y-120856446D01*
X106745379Y-120855320D01*
X106745375Y-120855319D01*
X106557613Y-120817971D01*
X106557610Y-120817971D01*
X106551946Y-120816844D01*
X106546171Y-120816768D01*
X106546167Y-120816768D01*
X106444793Y-120815441D01*
X106348971Y-120814187D01*
X106343274Y-120815166D01*
X106343273Y-120815166D01*
X106154607Y-120847585D01*
X106148910Y-120848564D01*
X105958463Y-120918824D01*
X105784010Y-121022612D01*
X105779670Y-121026418D01*
X105779666Y-121026421D01*
X105759723Y-121043911D01*
X105631392Y-121156455D01*
X105505720Y-121315869D01*
X105503031Y-121320980D01*
X105503029Y-121320983D01*
X105491507Y-121342883D01*
X105411203Y-121495515D01*
X105351007Y-121689378D01*
X105327148Y-121890964D01*
X105002564Y-121890964D01*
X104993797Y-121795551D01*
X104987187Y-121723613D01*
X104987186Y-121723610D01*
X104986658Y-121717859D01*
X104984732Y-121711029D01*
X104933125Y-121528046D01*
X104933124Y-121528044D01*
X104931557Y-121522487D01*
X104920978Y-121501033D01*
X104844331Y-121345609D01*
X104841776Y-121340428D01*
X104720320Y-121177779D01*
X104571258Y-121039987D01*
X104566375Y-121036906D01*
X104566371Y-121036903D01*
X104404464Y-120934748D01*
X104399581Y-120931667D01*
X104211039Y-120856446D01*
X104190250Y-120852311D01*
X104180438Y-120850359D01*
X104115925Y-120815875D01*
X103498146Y-120198096D01*
X138215729Y-120198096D01*
X138222149Y-120256249D01*
X138231515Y-120341078D01*
X138233113Y-120355553D01*
X138235723Y-120362684D01*
X138235723Y-120362686D01*
X138266682Y-120447285D01*
X138287553Y-120504319D01*
X138291789Y-120510622D01*
X138291789Y-120510623D01*
X138338487Y-120580116D01*
X138375908Y-120635805D01*
X138381527Y-120640918D01*
X138381528Y-120640919D01*
X138462147Y-120714276D01*
X138493076Y-120742419D01*
X138632293Y-120818008D01*
X138785522Y-120858207D01*
X138869477Y-120859526D01*
X138936319Y-120860576D01*
X138936322Y-120860576D01*
X138943916Y-120860695D01*
X139098332Y-120825329D01*
X139168742Y-120789917D01*
X139233072Y-120757563D01*
X139233075Y-120757561D01*
X139239855Y-120754151D01*
X139245626Y-120749222D01*
X139245629Y-120749220D01*
X139354536Y-120656204D01*
X139354536Y-120656203D01*
X139360314Y-120651269D01*
X139452755Y-120522624D01*
X139511842Y-120375641D01*
X139526517Y-120272527D01*
X139533581Y-120222891D01*
X139533581Y-120222888D01*
X139534162Y-120218807D01*
X139534307Y-120205000D01*
X139515276Y-120047733D01*
X139459280Y-119899546D01*
X139401660Y-119815708D01*
X139379500Y-119744341D01*
X139379500Y-116601144D01*
X139403176Y-116527620D01*
X139452755Y-116458624D01*
X139511842Y-116311641D01*
X139525891Y-116212923D01*
X139533581Y-116158891D01*
X139533581Y-116158888D01*
X139534162Y-116154807D01*
X139534307Y-116141000D01*
X139515276Y-115983733D01*
X139459280Y-115835546D01*
X139426814Y-115788307D01*
X139373855Y-115711251D01*
X139373854Y-115711249D01*
X139369553Y-115704992D01*
X139251275Y-115599611D01*
X139243889Y-115595700D01*
X139161327Y-115551986D01*
X139111274Y-115525484D01*
X138957633Y-115486892D01*
X138950034Y-115486852D01*
X138950033Y-115486852D01*
X138884181Y-115486507D01*
X138799221Y-115486062D01*
X138791841Y-115487834D01*
X138791839Y-115487834D01*
X138652563Y-115521271D01*
X138652560Y-115521272D01*
X138645184Y-115523043D01*
X138504414Y-115595700D01*
X138385039Y-115699838D01*
X138293950Y-115829444D01*
X138265178Y-115903241D01*
X138249646Y-115943079D01*
X138236406Y-115977037D01*
X138235414Y-115984570D01*
X138235414Y-115984571D01*
X138217668Y-116119371D01*
X138215729Y-116134096D01*
X138233113Y-116291553D01*
X138235723Y-116298684D01*
X138235723Y-116298686D01*
X138284522Y-116432035D01*
X138287553Y-116440319D01*
X138291789Y-116446622D01*
X138291789Y-116446623D01*
X138349082Y-116531884D01*
X138370500Y-116602160D01*
X138370500Y-119744676D01*
X138347587Y-119817126D01*
X138293950Y-119893444D01*
X138236406Y-120041037D01*
X138235414Y-120048570D01*
X138235414Y-120048571D01*
X138217148Y-120187319D01*
X138215729Y-120198096D01*
X103498146Y-120198096D01*
X101775645Y-118475595D01*
X101741619Y-118413283D01*
X101746684Y-118342468D01*
X101789231Y-118285632D01*
X101855751Y-118260821D01*
X101864740Y-118260500D01*
X102697518Y-118260500D01*
X102765639Y-118280502D01*
X102774222Y-118286538D01*
X102831054Y-118330147D01*
X102844357Y-118340355D01*
X102979246Y-118396228D01*
X103124000Y-118415285D01*
X103132188Y-118414207D01*
X103260566Y-118397306D01*
X103268754Y-118396228D01*
X103403643Y-118340355D01*
X103410196Y-118335327D01*
X103512921Y-118256503D01*
X103512924Y-118256500D01*
X103519474Y-118251474D01*
X103556396Y-118203357D01*
X103603328Y-118142193D01*
X103608355Y-118135642D01*
X103616126Y-118116883D01*
X103648062Y-118039781D01*
X103664228Y-118000754D01*
X103683285Y-117856000D01*
X103672750Y-117775976D01*
X103665306Y-117719432D01*
X103665305Y-117719430D01*
X103664228Y-117711246D01*
X103608355Y-117576358D01*
X103519474Y-117460526D01*
X103512924Y-117455500D01*
X103512921Y-117455497D01*
X103410196Y-117376673D01*
X103410194Y-117376672D01*
X103403643Y-117371645D01*
X103268754Y-117315772D01*
X103124000Y-117296715D01*
X103115812Y-117297793D01*
X102987432Y-117314694D01*
X102987430Y-117314695D01*
X102979246Y-117315772D01*
X102844358Y-117371645D01*
X102774220Y-117425464D01*
X102708001Y-117451063D01*
X102697518Y-117451500D01*
X102590114Y-117451500D01*
X102521993Y-117431498D01*
X102475500Y-117377842D01*
X102465396Y-117307568D01*
X102494890Y-117242988D01*
X102497912Y-117239742D01*
X102503474Y-117235474D01*
X102592355Y-117119642D01*
X102648228Y-116984754D01*
X102652206Y-116954542D01*
X102666207Y-116848188D01*
X102667285Y-116840000D01*
X102666376Y-116833096D01*
X133960729Y-116833096D01*
X133966323Y-116883767D01*
X133976752Y-116978222D01*
X133978113Y-116990553D01*
X133980723Y-116997684D01*
X133980723Y-116997686D01*
X134027750Y-117126193D01*
X134032553Y-117139319D01*
X134036789Y-117145622D01*
X134036789Y-117145623D01*
X134097167Y-117235474D01*
X134120908Y-117270805D01*
X134126527Y-117275918D01*
X134126528Y-117275919D01*
X134228260Y-117368487D01*
X134238076Y-117377419D01*
X134377293Y-117453008D01*
X134530522Y-117493207D01*
X134614477Y-117494526D01*
X134681319Y-117495576D01*
X134681322Y-117495576D01*
X134688916Y-117495695D01*
X134843332Y-117460329D01*
X134964706Y-117399285D01*
X134978072Y-117392563D01*
X134978075Y-117392561D01*
X134984855Y-117389151D01*
X134990626Y-117384222D01*
X134990629Y-117384220D01*
X135099536Y-117291204D01*
X135099536Y-117291203D01*
X135105314Y-117286269D01*
X135127836Y-117254926D01*
X135183830Y-117211280D01*
X135254533Y-117204834D01*
X135317497Y-117237637D01*
X135352732Y-117299274D01*
X135356157Y-117328454D01*
X135356157Y-118010033D01*
X135354816Y-118022038D01*
X135355312Y-118022078D01*
X135354592Y-118031025D01*
X135352611Y-118039781D01*
X135353167Y-118048741D01*
X135355915Y-118093039D01*
X135356157Y-118100841D01*
X135356157Y-118116883D01*
X135356792Y-118121314D01*
X135356792Y-118121319D01*
X135357622Y-118127110D01*
X135358653Y-118137171D01*
X135361559Y-118184016D01*
X135364606Y-118192456D01*
X135365287Y-118195746D01*
X135369239Y-118211595D01*
X135370184Y-118214825D01*
X135371456Y-118223709D01*
X135375171Y-118231880D01*
X135390875Y-118266420D01*
X135394687Y-118275785D01*
X135407579Y-118311494D01*
X135407581Y-118311497D01*
X135410629Y-118319941D01*
X135415925Y-118327190D01*
X135417497Y-118330147D01*
X135425750Y-118344271D01*
X135427555Y-118347094D01*
X135431269Y-118355262D01*
X135437126Y-118362059D01*
X135437127Y-118362061D01*
X135442360Y-118368134D01*
X135454408Y-118382115D01*
X135461900Y-118390810D01*
X135468194Y-118398737D01*
X135473281Y-118405701D01*
X135496774Y-118466196D01*
X135502113Y-118514553D01*
X135504723Y-118521684D01*
X135504723Y-118521686D01*
X135541924Y-118623342D01*
X135556553Y-118663319D01*
X135560789Y-118669622D01*
X135560789Y-118669623D01*
X135639468Y-118786709D01*
X135644908Y-118794805D01*
X135650527Y-118799918D01*
X135650528Y-118799919D01*
X135754326Y-118894367D01*
X135762076Y-118901419D01*
X135901293Y-118977008D01*
X136054522Y-119017207D01*
X136138477Y-119018526D01*
X136205319Y-119019576D01*
X136205322Y-119019576D01*
X136212916Y-119019695D01*
X136367332Y-118984329D01*
X136459770Y-118937838D01*
X136502072Y-118916563D01*
X136502075Y-118916561D01*
X136508855Y-118913151D01*
X136514626Y-118908222D01*
X136514629Y-118908220D01*
X136623536Y-118815204D01*
X136623536Y-118815203D01*
X136629314Y-118810269D01*
X136721755Y-118681624D01*
X136780842Y-118534641D01*
X136799192Y-118405701D01*
X136802581Y-118381891D01*
X136802581Y-118381888D01*
X136803162Y-118377807D01*
X136803231Y-118371265D01*
X136803264Y-118368134D01*
X136803264Y-118368128D01*
X136803307Y-118364000D01*
X136784276Y-118206733D01*
X136728280Y-118058546D01*
X136638553Y-117927992D01*
X136520275Y-117822611D01*
X136432197Y-117775976D01*
X136381354Y-117726423D01*
X136365157Y-117664622D01*
X136365157Y-114760144D01*
X136388833Y-114686620D01*
X136438412Y-114617624D01*
X136497499Y-114470641D01*
X136513600Y-114357503D01*
X136519238Y-114317891D01*
X136519238Y-114317888D01*
X136519819Y-114313807D01*
X136519964Y-114300000D01*
X136508782Y-114207596D01*
X157922229Y-114207596D01*
X157939613Y-114365053D01*
X157942223Y-114372184D01*
X157942223Y-114372186D01*
X157989203Y-114500565D01*
X157994053Y-114513819D01*
X157998289Y-114520122D01*
X157998289Y-114520123D01*
X158055582Y-114605384D01*
X158077000Y-114675660D01*
X158077000Y-119394876D01*
X158075659Y-119406881D01*
X158076155Y-119406921D01*
X158075435Y-119415868D01*
X158073454Y-119424624D01*
X158075152Y-119451992D01*
X158076758Y-119477882D01*
X158077000Y-119485684D01*
X158077000Y-119501726D01*
X158077635Y-119506157D01*
X158077635Y-119506162D01*
X158078465Y-119511953D01*
X158079496Y-119522014D01*
X158082402Y-119568859D01*
X158085449Y-119577299D01*
X158086130Y-119580589D01*
X158090082Y-119596438D01*
X158091027Y-119599668D01*
X158092299Y-119608552D01*
X158096014Y-119616723D01*
X158111718Y-119651263D01*
X158115530Y-119660628D01*
X158128422Y-119696337D01*
X158128424Y-119696340D01*
X158131472Y-119704784D01*
X158136768Y-119712033D01*
X158138340Y-119714990D01*
X158146593Y-119729114D01*
X158148398Y-119731937D01*
X158152112Y-119740105D01*
X158157969Y-119746902D01*
X158157970Y-119746904D01*
X158182743Y-119775653D01*
X158189025Y-119783564D01*
X158196973Y-119794444D01*
X158207835Y-119805306D01*
X158214193Y-119812152D01*
X158246444Y-119849582D01*
X158253979Y-119854466D01*
X158260551Y-119860199D01*
X158271955Y-119869426D01*
X158321024Y-119918495D01*
X158355050Y-119980807D01*
X158357167Y-119993759D01*
X158362113Y-120038553D01*
X158364723Y-120045684D01*
X158364723Y-120045686D01*
X158368232Y-120055273D01*
X158416553Y-120187319D01*
X158420789Y-120193622D01*
X158420789Y-120193623D01*
X158497688Y-120308060D01*
X158504908Y-120318805D01*
X158510527Y-120323918D01*
X158510528Y-120323919D01*
X158586827Y-120393345D01*
X158622076Y-120425419D01*
X158761293Y-120501008D01*
X158914522Y-120541207D01*
X158998477Y-120542526D01*
X159065319Y-120543576D01*
X159065322Y-120543576D01*
X159072916Y-120543695D01*
X159227332Y-120508329D01*
X159348706Y-120447285D01*
X159362072Y-120440563D01*
X159362075Y-120440561D01*
X159368855Y-120437151D01*
X159374626Y-120432222D01*
X159374629Y-120432220D01*
X159483536Y-120339204D01*
X159483536Y-120339203D01*
X159489314Y-120334269D01*
X159581755Y-120205624D01*
X159640842Y-120058641D01*
X159660787Y-119918495D01*
X159662581Y-119905891D01*
X159662581Y-119905888D01*
X159663162Y-119901807D01*
X159663250Y-119893444D01*
X159663264Y-119892134D01*
X159663264Y-119892128D01*
X159663307Y-119888000D01*
X159644276Y-119730733D01*
X159588280Y-119582546D01*
X159498553Y-119451992D01*
X159380275Y-119346611D01*
X159240274Y-119272484D01*
X159232911Y-119270635D01*
X159232907Y-119270633D01*
X159181305Y-119257672D01*
X159120109Y-119221678D01*
X159088088Y-119158312D01*
X159086000Y-119135468D01*
X159086000Y-114674644D01*
X159109676Y-114601120D01*
X159159255Y-114532124D01*
X159218342Y-114385141D01*
X159231044Y-114295892D01*
X159240081Y-114232391D01*
X159240081Y-114232388D01*
X159240662Y-114228307D01*
X159240807Y-114214500D01*
X159221776Y-114057233D01*
X159165780Y-113909046D01*
X159108227Y-113825306D01*
X159080355Y-113784751D01*
X159080354Y-113784749D01*
X159076053Y-113778492D01*
X159064676Y-113768355D01*
X158965811Y-113680271D01*
X158957775Y-113673111D01*
X158950389Y-113669200D01*
X158824488Y-113602539D01*
X158824489Y-113602539D01*
X158817774Y-113598984D01*
X158664133Y-113560392D01*
X158656534Y-113560352D01*
X158656533Y-113560352D01*
X158590681Y-113560007D01*
X158505721Y-113559562D01*
X158498341Y-113561334D01*
X158498339Y-113561334D01*
X158359063Y-113594771D01*
X158359060Y-113594772D01*
X158351684Y-113596543D01*
X158210914Y-113669200D01*
X158091539Y-113773338D01*
X158000450Y-113902944D01*
X157971678Y-113976740D01*
X157949095Y-114034664D01*
X157942906Y-114050537D01*
X157941914Y-114058070D01*
X157941914Y-114058071D01*
X157929776Y-114150273D01*
X157922229Y-114207596D01*
X136508782Y-114207596D01*
X136500933Y-114142733D01*
X136444937Y-113994546D01*
X136418297Y-113955785D01*
X136359512Y-113870251D01*
X136359511Y-113870249D01*
X136355210Y-113863992D01*
X136236932Y-113758611D01*
X136229546Y-113754700D01*
X136103645Y-113688039D01*
X136103646Y-113688039D01*
X136096931Y-113684484D01*
X135943290Y-113645892D01*
X135935691Y-113645852D01*
X135935690Y-113645852D01*
X135869838Y-113645507D01*
X135784878Y-113645062D01*
X135777498Y-113646834D01*
X135777496Y-113646834D01*
X135638220Y-113680271D01*
X135638217Y-113680272D01*
X135630841Y-113682043D01*
X135490071Y-113754700D01*
X135370696Y-113858838D01*
X135366328Y-113865052D01*
X135366327Y-113865054D01*
X135343644Y-113897328D01*
X135288109Y-113941559D01*
X135217477Y-113948744D01*
X135154173Y-113916602D01*
X135136721Y-113896246D01*
X135114553Y-113863992D01*
X134996275Y-113758611D01*
X134988889Y-113754700D01*
X134862988Y-113688039D01*
X134862989Y-113688039D01*
X134856274Y-113684484D01*
X134702633Y-113645892D01*
X134695034Y-113645852D01*
X134695033Y-113645852D01*
X134629181Y-113645507D01*
X134544221Y-113645062D01*
X134536841Y-113646834D01*
X134536839Y-113646834D01*
X134397563Y-113680271D01*
X134397560Y-113680272D01*
X134390184Y-113682043D01*
X134249414Y-113754700D01*
X134130039Y-113858838D01*
X134038950Y-113988444D01*
X134024122Y-114026477D01*
X133990195Y-114113495D01*
X133981406Y-114136037D01*
X133980414Y-114143570D01*
X133980414Y-114143571D01*
X133963647Y-114270932D01*
X133960729Y-114293096D01*
X133968673Y-114365053D01*
X133976190Y-114433134D01*
X133978113Y-114450553D01*
X133980723Y-114457684D01*
X133980723Y-114457686D01*
X134027221Y-114584748D01*
X134032553Y-114599319D01*
X134036789Y-114605622D01*
X134036789Y-114605623D01*
X134094082Y-114690884D01*
X134115500Y-114761160D01*
X134115500Y-116379676D01*
X134092587Y-116452126D01*
X134038950Y-116528444D01*
X134026425Y-116560569D01*
X134006513Y-116611642D01*
X133981406Y-116676037D01*
X133980414Y-116683570D01*
X133980414Y-116683571D01*
X133961810Y-116824888D01*
X133960729Y-116833096D01*
X102666376Y-116833096D01*
X102652471Y-116727474D01*
X102649306Y-116703432D01*
X102649305Y-116703430D01*
X102648228Y-116695246D01*
X102607346Y-116596549D01*
X102595515Y-116567986D01*
X102595514Y-116567984D01*
X102592355Y-116560358D01*
X102531042Y-116480453D01*
X102508501Y-116451077D01*
X102508500Y-116451076D01*
X102503474Y-116444526D01*
X102496924Y-116439500D01*
X102496921Y-116439497D01*
X102394196Y-116360673D01*
X102394194Y-116360672D01*
X102387643Y-116355645D01*
X102252754Y-116299772D01*
X102212132Y-116294424D01*
X102116188Y-116281793D01*
X102108000Y-116280715D01*
X102099812Y-116281793D01*
X101971432Y-116298694D01*
X101971430Y-116298695D01*
X101963246Y-116299772D01*
X101942525Y-116308355D01*
X101835986Y-116352485D01*
X101835984Y-116352486D01*
X101828358Y-116355645D01*
X101823016Y-116359744D01*
X101754709Y-116376317D01*
X101687616Y-116353099D01*
X101671605Y-116339555D01*
X99831515Y-114499465D01*
X99831511Y-114499462D01*
X99808723Y-114476674D01*
X99788844Y-114466545D01*
X99771989Y-114456216D01*
X99761953Y-114448925D01*
X99753929Y-114443095D01*
X99732704Y-114436199D01*
X99714438Y-114428633D01*
X99694555Y-114418502D01*
X99672513Y-114415011D01*
X99653287Y-114410395D01*
X99641500Y-114406565D01*
X99641498Y-114406565D01*
X99632066Y-114403500D01*
X96963934Y-114403500D01*
X96954502Y-114406565D01*
X96954500Y-114406565D01*
X96942713Y-114410395D01*
X96923487Y-114415011D01*
X96901445Y-114418502D01*
X96881562Y-114428633D01*
X96863296Y-114436199D01*
X96842071Y-114443095D01*
X96834047Y-114448925D01*
X96824011Y-114456216D01*
X96807156Y-114466545D01*
X96787277Y-114476674D01*
X96764489Y-114499462D01*
X96764485Y-114499465D01*
X96027544Y-115236406D01*
X95965232Y-115270432D01*
X95954901Y-115272232D01*
X95917667Y-115277134D01*
X95875432Y-115282694D01*
X95875430Y-115282695D01*
X95867246Y-115283772D01*
X95859619Y-115286931D01*
X95859620Y-115286931D01*
X95739986Y-115336485D01*
X95739984Y-115336486D01*
X95732358Y-115339645D01*
X95616526Y-115428526D01*
X95527645Y-115544358D01*
X95524486Y-115551984D01*
X95524485Y-115551986D01*
X95515489Y-115573704D01*
X95471772Y-115679246D01*
X95470695Y-115687430D01*
X95470694Y-115687432D01*
X95457414Y-115788307D01*
X95442060Y-115823015D01*
X95222091Y-115823015D01*
X95222421Y-115821890D01*
X95207997Y-115791276D01*
X95206492Y-115771861D01*
X95206492Y-114770065D01*
X95216083Y-114721847D01*
X95239060Y-114666375D01*
X95242220Y-114658746D01*
X95261277Y-114513992D01*
X95251540Y-114440030D01*
X95243298Y-114377424D01*
X95243297Y-114377422D01*
X95242220Y-114369238D01*
X95220951Y-114317891D01*
X95189507Y-114241978D01*
X95189506Y-114241976D01*
X95186347Y-114234350D01*
X95141907Y-114176434D01*
X95102493Y-114125069D01*
X95102492Y-114125068D01*
X95097466Y-114118518D01*
X95090916Y-114113492D01*
X95090913Y-114113489D01*
X94988188Y-114034665D01*
X94988186Y-114034664D01*
X94981635Y-114029637D01*
X94846746Y-113973764D01*
X94701992Y-113954707D01*
X94693804Y-113955785D01*
X94565424Y-113972686D01*
X94565422Y-113972687D01*
X94557238Y-113973764D01*
X94522174Y-113988288D01*
X94429978Y-114026477D01*
X94429976Y-114026478D01*
X94422350Y-114029637D01*
X94306518Y-114118518D01*
X94301495Y-114125064D01*
X94297731Y-114129969D01*
X94217637Y-114234350D01*
X94214478Y-114241976D01*
X94214477Y-114241978D01*
X94183033Y-114317891D01*
X94161764Y-114369238D01*
X94160687Y-114377422D01*
X94160686Y-114377424D01*
X94152444Y-114440030D01*
X94142707Y-114513992D01*
X94161764Y-114658746D01*
X94164924Y-114666375D01*
X94187901Y-114721847D01*
X94197492Y-114770065D01*
X94197492Y-118396847D01*
X94177490Y-118464968D01*
X94160587Y-118485942D01*
X93299934Y-119346595D01*
X93237622Y-119380621D01*
X93210839Y-119383500D01*
X92204072Y-119383500D01*
X92155854Y-119373909D01*
X92150792Y-119371812D01*
X92092754Y-119347772D01*
X92083936Y-119346611D01*
X91956188Y-119329793D01*
X91948000Y-119328715D01*
X91939812Y-119329793D01*
X91811432Y-119346694D01*
X91811430Y-119346695D01*
X91803246Y-119347772D01*
X91795617Y-119350932D01*
X91740145Y-119373909D01*
X91691927Y-119383500D01*
X87129161Y-119383500D01*
X87061040Y-119363498D01*
X87040066Y-119346595D01*
X86393405Y-118699934D01*
X86359379Y-118637622D01*
X86356500Y-118610839D01*
X86356500Y-115064073D01*
X86366091Y-115015855D01*
X86389068Y-114960383D01*
X86392228Y-114952754D01*
X86411285Y-114808000D01*
X86406291Y-114770065D01*
X86393306Y-114671432D01*
X86393305Y-114671430D01*
X86392228Y-114663246D01*
X86368261Y-114605384D01*
X86339515Y-114535986D01*
X86339514Y-114535984D01*
X86336355Y-114528358D01*
X86285470Y-114462043D01*
X86252501Y-114419077D01*
X86252500Y-114419076D01*
X86247474Y-114412526D01*
X86240924Y-114407500D01*
X86240921Y-114407497D01*
X86138196Y-114328673D01*
X86138194Y-114328672D01*
X86131643Y-114323645D01*
X85996754Y-114267772D01*
X85852000Y-114248715D01*
X85843812Y-114249793D01*
X85715432Y-114266694D01*
X85715430Y-114266695D01*
X85707246Y-114267772D01*
X85664290Y-114285565D01*
X85579986Y-114320485D01*
X85579984Y-114320486D01*
X85572358Y-114323645D01*
X85518394Y-114365053D01*
X85464295Y-114406565D01*
X85456526Y-114412526D01*
X85367645Y-114528358D01*
X85364486Y-114535984D01*
X85364485Y-114535986D01*
X85335739Y-114605384D01*
X85311772Y-114663246D01*
X85310695Y-114671430D01*
X85310694Y-114671432D01*
X85297709Y-114770065D01*
X85292715Y-114808000D01*
X73954923Y-114808000D01*
X73827258Y-114689987D01*
X73822375Y-114686906D01*
X73822371Y-114686903D01*
X73660464Y-114584748D01*
X73655581Y-114581667D01*
X73467039Y-114506446D01*
X73461379Y-114505320D01*
X73461375Y-114505319D01*
X73273613Y-114467971D01*
X73273610Y-114467971D01*
X73267946Y-114466844D01*
X73262171Y-114466768D01*
X73262167Y-114466768D01*
X73160793Y-114465441D01*
X73064971Y-114464187D01*
X73059274Y-114465166D01*
X73059273Y-114465166D01*
X72870607Y-114497585D01*
X72864910Y-114498564D01*
X72674463Y-114568824D01*
X72500010Y-114672612D01*
X72495670Y-114676418D01*
X72495666Y-114676421D01*
X72354967Y-114799812D01*
X72347392Y-114806455D01*
X72221720Y-114965869D01*
X72219031Y-114970980D01*
X72219029Y-114970983D01*
X72206073Y-114995609D01*
X72127203Y-115145515D01*
X72067007Y-115339378D01*
X72043148Y-115540964D01*
X72056424Y-115743522D01*
X72057845Y-115749118D01*
X72057846Y-115749123D01*
X72089381Y-115873288D01*
X72106392Y-115940269D01*
X72108809Y-115945512D01*
X72146010Y-116026208D01*
X72191377Y-116124616D01*
X72194710Y-116129332D01*
X72258416Y-116219474D01*
X72308533Y-116290389D01*
X72453938Y-116432035D01*
X72622720Y-116544812D01*
X72628023Y-116547090D01*
X72628026Y-116547092D01*
X72724954Y-116588735D01*
X72779647Y-116634003D01*
X72801184Y-116701654D01*
X72782727Y-116770210D01*
X72730136Y-116817904D01*
X72714361Y-116824268D01*
X72628868Y-116852212D01*
X72619359Y-116856209D01*
X72430463Y-116954542D01*
X72421738Y-116960036D01*
X72251433Y-117087905D01*
X72243726Y-117094748D01*
X72096590Y-117248717D01*
X72090104Y-117256727D01*
X71970098Y-117432649D01*
X71965000Y-117441623D01*
X71875338Y-117634783D01*
X71871775Y-117644470D01*
X71816389Y-117844183D01*
X70254500Y-117844183D01*
X70254500Y-113000964D01*
X72043148Y-113000964D01*
X72056424Y-113203522D01*
X72057845Y-113209118D01*
X72057846Y-113209123D01*
X72079508Y-113294414D01*
X72106392Y-113400269D01*
X72108809Y-113405512D01*
X72146010Y-113486208D01*
X72191377Y-113584616D01*
X72194710Y-113589332D01*
X72258416Y-113679474D01*
X72308533Y-113750389D01*
X72312675Y-113754424D01*
X72326976Y-113768355D01*
X72453938Y-113892035D01*
X72458742Y-113895245D01*
X72470031Y-113902788D01*
X72622720Y-114004812D01*
X72628023Y-114007090D01*
X72628026Y-114007092D01*
X72716707Y-114045192D01*
X72809228Y-114084942D01*
X72882244Y-114101464D01*
X73001579Y-114128467D01*
X73001584Y-114128468D01*
X73007216Y-114129742D01*
X73012987Y-114129969D01*
X73012989Y-114129969D01*
X73072756Y-114132317D01*
X73210053Y-114137712D01*
X73310499Y-114123148D01*
X73405231Y-114109413D01*
X73405236Y-114109412D01*
X73410945Y-114108584D01*
X73416409Y-114106729D01*
X73416414Y-114106728D01*
X73597693Y-114045192D01*
X73597698Y-114045190D01*
X73603165Y-114043334D01*
X73618647Y-114034664D01*
X73701178Y-113988444D01*
X73780276Y-113944147D01*
X73821305Y-113910024D01*
X73924462Y-113824228D01*
X73936345Y-113814345D01*
X73978496Y-113763664D01*
X74062453Y-113662718D01*
X74062455Y-113662715D01*
X74066147Y-113658276D01*
X74165334Y-113481165D01*
X74167190Y-113475698D01*
X74167192Y-113475693D01*
X74228728Y-113294414D01*
X74228729Y-113294409D01*
X74230584Y-113288945D01*
X74231412Y-113283236D01*
X74231413Y-113283231D01*
X74259179Y-113091727D01*
X74259712Y-113088053D01*
X74261232Y-113030000D01*
X74242658Y-112827859D01*
X74241090Y-112822299D01*
X74189125Y-112638046D01*
X74189124Y-112638044D01*
X74187557Y-112632487D01*
X74177149Y-112611380D01*
X74100331Y-112455609D01*
X74097776Y-112450428D01*
X73976320Y-112287779D01*
X73827258Y-112149987D01*
X73822375Y-112146906D01*
X73822371Y-112146903D01*
X73660464Y-112044748D01*
X73655581Y-112041667D01*
X73467039Y-111966446D01*
X73461379Y-111965320D01*
X73461375Y-111965319D01*
X73273613Y-111927971D01*
X73273610Y-111927971D01*
X73267946Y-111926844D01*
X73262171Y-111926768D01*
X73262167Y-111926768D01*
X73160793Y-111925441D01*
X73064971Y-111924187D01*
X73059274Y-111925166D01*
X73059273Y-111925166D01*
X72870607Y-111957585D01*
X72864910Y-111958564D01*
X72674463Y-112028824D01*
X72500010Y-112132612D01*
X72495670Y-112136418D01*
X72495666Y-112136421D01*
X72440841Y-112184502D01*
X72347392Y-112266455D01*
X72221720Y-112425869D01*
X72219031Y-112430980D01*
X72219029Y-112430983D01*
X72206073Y-112455609D01*
X72127203Y-112605515D01*
X72067007Y-112799378D01*
X72043148Y-113000964D01*
X70254500Y-113000964D01*
X70254500Y-111760000D01*
X78180715Y-111760000D01*
X78199772Y-111904754D01*
X78207853Y-111924263D01*
X78252387Y-112031776D01*
X78255645Y-112039642D01*
X78344526Y-112155474D01*
X78351076Y-112160500D01*
X78351079Y-112160503D01*
X78453804Y-112239327D01*
X78460357Y-112244355D01*
X78595246Y-112300228D01*
X78740000Y-112319285D01*
X78748188Y-112318207D01*
X78876566Y-112301306D01*
X78884754Y-112300228D01*
X79019643Y-112244355D01*
X79040968Y-112227992D01*
X79089778Y-112190538D01*
X79155998Y-112164937D01*
X79166482Y-112164500D01*
X80853518Y-112164500D01*
X80921639Y-112184502D01*
X80930222Y-112190538D01*
X80979033Y-112227992D01*
X81000357Y-112244355D01*
X81135246Y-112300228D01*
X81280000Y-112319285D01*
X81288188Y-112318207D01*
X81416566Y-112301306D01*
X81424754Y-112300228D01*
X81559643Y-112244355D01*
X81566196Y-112239327D01*
X81668921Y-112160503D01*
X81668924Y-112160500D01*
X81675474Y-112155474D01*
X81764355Y-112039642D01*
X81767614Y-112031776D01*
X81812147Y-111924263D01*
X81820228Y-111904754D01*
X81839285Y-111760000D01*
X81820228Y-111615246D01*
X81764355Y-111480358D01*
X81710536Y-111410220D01*
X81684937Y-111344001D01*
X81684500Y-111333518D01*
X81684500Y-108712000D01*
X85292715Y-108712000D01*
X85293793Y-108720188D01*
X85306532Y-108816949D01*
X85311772Y-108856754D01*
X85324631Y-108887798D01*
X85359259Y-108971396D01*
X85367645Y-108991642D01*
X85395992Y-109028584D01*
X85448873Y-109097500D01*
X85456526Y-109107474D01*
X85463076Y-109112500D01*
X85463079Y-109112503D01*
X85565804Y-109191327D01*
X85572357Y-109196355D01*
X85707246Y-109252228D01*
X85852000Y-109271285D01*
X85860188Y-109270207D01*
X85988566Y-109253306D01*
X85996754Y-109252228D01*
X86131643Y-109196355D01*
X86142300Y-109188178D01*
X86201778Y-109142538D01*
X86267998Y-109116937D01*
X86278482Y-109116500D01*
X88172259Y-109116500D01*
X88240380Y-109136502D01*
X88261354Y-109153404D01*
X88458595Y-109350644D01*
X88492620Y-109412956D01*
X88495500Y-109439740D01*
X88495500Y-111718248D01*
X88493949Y-111737958D01*
X88490458Y-111760000D01*
X88492009Y-111769792D01*
X88493949Y-111782041D01*
X88495500Y-111801752D01*
X88495500Y-112857518D01*
X88475498Y-112925639D01*
X88469471Y-112934211D01*
X88415645Y-113004358D01*
X88359772Y-113139246D01*
X88358695Y-113147430D01*
X88358694Y-113147432D01*
X88343841Y-113260255D01*
X88340715Y-113284000D01*
X88359772Y-113428754D01*
X88415645Y-113563642D01*
X88420672Y-113570193D01*
X88491669Y-113662718D01*
X88504526Y-113679474D01*
X88511076Y-113684500D01*
X88511079Y-113684503D01*
X88603024Y-113755055D01*
X88620357Y-113768355D01*
X88755246Y-113824228D01*
X88900000Y-113843285D01*
X88908188Y-113842207D01*
X89036566Y-113825306D01*
X89044754Y-113824228D01*
X89179643Y-113768355D01*
X89196976Y-113755055D01*
X89288921Y-113684503D01*
X89288924Y-113684500D01*
X89295474Y-113679474D01*
X89308332Y-113662718D01*
X89379328Y-113570193D01*
X89384355Y-113563642D01*
X89440228Y-113428754D01*
X89459285Y-113284000D01*
X89456159Y-113260255D01*
X89441306Y-113147432D01*
X89441305Y-113147430D01*
X89440228Y-113139246D01*
X89384355Y-113004358D01*
X89330536Y-112934220D01*
X89304937Y-112868001D01*
X89304500Y-112857518D01*
X89304500Y-112487741D01*
X89324502Y-112419620D01*
X89341404Y-112398646D01*
X89538644Y-112201405D01*
X89600956Y-112167380D01*
X89627740Y-112164500D01*
X101681518Y-112164500D01*
X101749639Y-112184502D01*
X101758222Y-112190538D01*
X101807033Y-112227992D01*
X101828357Y-112244355D01*
X101963246Y-112300228D01*
X102108000Y-112319285D01*
X102116188Y-112318207D01*
X102244566Y-112301306D01*
X102252754Y-112300228D01*
X102387643Y-112244355D01*
X102394196Y-112239327D01*
X102496921Y-112160503D01*
X102496924Y-112160500D01*
X102503474Y-112155474D01*
X102592355Y-112039642D01*
X102595614Y-112031776D01*
X102640147Y-111924263D01*
X102648228Y-111904754D01*
X102667285Y-111760000D01*
X102648228Y-111615246D01*
X102619107Y-111544942D01*
X102595515Y-111487986D01*
X102595513Y-111487983D01*
X102592355Y-111480358D01*
X102503474Y-111364526D01*
X102496924Y-111359500D01*
X102496921Y-111359497D01*
X102394196Y-111280673D01*
X102394194Y-111280672D01*
X102387643Y-111275645D01*
X102252754Y-111219772D01*
X102212132Y-111214424D01*
X102116188Y-111201793D01*
X102108000Y-111200715D01*
X102099812Y-111201793D01*
X101971432Y-111218694D01*
X101971430Y-111218695D01*
X101963246Y-111219772D01*
X101828358Y-111275645D01*
X101758220Y-111329464D01*
X101692001Y-111355063D01*
X101681518Y-111355500D01*
X89627740Y-111355500D01*
X89559619Y-111335498D01*
X89538644Y-111318595D01*
X89341404Y-111121354D01*
X89307379Y-111059042D01*
X89304500Y-111032259D01*
X89304500Y-109188166D01*
X89304499Y-109188160D01*
X89304499Y-109155934D01*
X89300665Y-109144133D01*
X89297606Y-109134718D01*
X89292990Y-109115493D01*
X89291049Y-109103241D01*
X89289498Y-109093445D01*
X89279366Y-109073560D01*
X89271801Y-109055296D01*
X89267970Y-109043507D01*
X89267969Y-109043506D01*
X89264904Y-109034071D01*
X89251791Y-109016022D01*
X89241457Y-108999161D01*
X89235826Y-108988109D01*
X89231326Y-108979277D01*
X89140723Y-108888674D01*
X88655515Y-108403465D01*
X88655511Y-108403462D01*
X88632723Y-108380674D01*
X88612844Y-108370545D01*
X88595989Y-108360216D01*
X88585953Y-108352925D01*
X88577929Y-108347095D01*
X88556704Y-108340199D01*
X88538438Y-108332633D01*
X88518555Y-108322502D01*
X88496513Y-108319011D01*
X88477287Y-108314395D01*
X88465500Y-108310565D01*
X88465498Y-108310565D01*
X88456066Y-108307500D01*
X86278482Y-108307500D01*
X86210361Y-108287498D01*
X86201778Y-108281462D01*
X86138196Y-108232673D01*
X86138194Y-108232672D01*
X86131643Y-108227645D01*
X85996754Y-108171772D01*
X85852000Y-108152715D01*
X85843812Y-108153793D01*
X85715432Y-108170694D01*
X85715430Y-108170695D01*
X85707246Y-108171772D01*
X85659430Y-108191578D01*
X85579986Y-108224485D01*
X85579984Y-108224486D01*
X85572358Y-108227645D01*
X85502222Y-108281462D01*
X85464295Y-108310565D01*
X85456526Y-108316526D01*
X85367645Y-108432358D01*
X85311772Y-108567246D01*
X85310695Y-108575430D01*
X85310694Y-108575432D01*
X85298193Y-108670389D01*
X85292715Y-108712000D01*
X81684500Y-108712000D01*
X81684500Y-105883740D01*
X81704502Y-105815619D01*
X81721405Y-105794645D01*
X82426645Y-105089405D01*
X82488957Y-105055379D01*
X82515740Y-105052500D01*
X94552066Y-105052500D01*
X94561498Y-105049435D01*
X94561500Y-105049435D01*
X94573287Y-105045605D01*
X94592513Y-105040989D01*
X94604762Y-105039049D01*
X94614555Y-105037498D01*
X94634439Y-105027366D01*
X94652705Y-105019801D01*
X94664496Y-105015970D01*
X94673929Y-105012905D01*
X94691989Y-104999784D01*
X94708846Y-104989454D01*
X94728723Y-104979326D01*
X94751511Y-104956538D01*
X94751515Y-104956535D01*
X95892987Y-103815063D01*
X95955299Y-103781037D01*
X95984060Y-103778174D01*
X96073318Y-103779576D01*
X96073321Y-103779576D01*
X96080916Y-103779695D01*
X96235332Y-103744329D01*
X96325782Y-103698838D01*
X96370072Y-103676563D01*
X96370075Y-103676561D01*
X96376855Y-103673151D01*
X96382626Y-103668222D01*
X96382629Y-103668220D01*
X96491536Y-103575204D01*
X96491536Y-103575203D01*
X96497314Y-103570269D01*
X96589755Y-103441624D01*
X96648842Y-103294641D01*
X96671162Y-103137807D01*
X96671307Y-103124000D01*
X96652276Y-102966733D01*
X96596280Y-102818546D01*
X96506553Y-102687992D01*
X96388275Y-102582611D01*
X96380889Y-102578700D01*
X96254988Y-102512039D01*
X96254989Y-102512039D01*
X96248274Y-102508484D01*
X96094633Y-102469892D01*
X96087034Y-102469852D01*
X96087033Y-102469852D01*
X96021181Y-102469507D01*
X95936221Y-102469062D01*
X95928841Y-102470834D01*
X95928839Y-102470834D01*
X95789563Y-102504271D01*
X95789560Y-102504272D01*
X95782184Y-102506043D01*
X95641414Y-102578700D01*
X95522039Y-102682838D01*
X95430950Y-102812444D01*
X95373406Y-102960037D01*
X95352729Y-103117096D01*
X95353563Y-103124647D01*
X95355448Y-103141726D01*
X95343042Y-103211630D01*
X95319307Y-103244644D01*
X94357353Y-104206597D01*
X94295043Y-104240621D01*
X94268260Y-104243500D01*
X82231934Y-104243500D01*
X82222502Y-104246565D01*
X82222500Y-104246565D01*
X82210713Y-104250395D01*
X82191487Y-104255011D01*
X82169445Y-104258502D01*
X82149562Y-104268633D01*
X82131296Y-104276199D01*
X82110071Y-104283095D01*
X82102047Y-104288925D01*
X82092011Y-104296216D01*
X82075156Y-104306545D01*
X82055277Y-104316674D01*
X82032489Y-104339462D01*
X82032485Y-104339465D01*
X80971465Y-105400485D01*
X80971462Y-105400489D01*
X80948674Y-105423277D01*
X80944171Y-105432115D01*
X80938546Y-105443154D01*
X80928216Y-105460011D01*
X80915095Y-105478071D01*
X80912030Y-105487504D01*
X80908199Y-105499295D01*
X80900634Y-105517561D01*
X80890502Y-105537445D01*
X80888951Y-105547238D01*
X80887011Y-105559487D01*
X80882395Y-105578713D01*
X80875500Y-105599934D01*
X80875500Y-111229500D01*
X80855498Y-111297621D01*
X80801842Y-111344114D01*
X80749500Y-111355500D01*
X79166482Y-111355500D01*
X79098361Y-111335498D01*
X79089778Y-111329462D01*
X79026196Y-111280673D01*
X79026194Y-111280672D01*
X79019643Y-111275645D01*
X78884754Y-111219772D01*
X78844132Y-111214424D01*
X78748188Y-111201793D01*
X78740000Y-111200715D01*
X78731812Y-111201793D01*
X78603432Y-111218694D01*
X78603430Y-111218695D01*
X78595246Y-111219772D01*
X78571761Y-111229500D01*
X78467986Y-111272485D01*
X78467984Y-111272486D01*
X78460358Y-111275645D01*
X78390222Y-111329462D01*
X78366061Y-111348002D01*
X78344526Y-111364526D01*
X78255645Y-111480358D01*
X78252487Y-111487983D01*
X78252485Y-111487986D01*
X78228893Y-111544942D01*
X78199772Y-111615246D01*
X78180715Y-111760000D01*
X70254500Y-111760000D01*
X70254500Y-110460964D01*
X72043148Y-110460964D01*
X72056424Y-110663522D01*
X72057845Y-110669118D01*
X72057846Y-110669123D01*
X72078119Y-110748945D01*
X72106392Y-110860269D01*
X72108809Y-110865512D01*
X72146010Y-110946208D01*
X72191377Y-111044616D01*
X72308533Y-111210389D01*
X72453938Y-111352035D01*
X72458742Y-111355245D01*
X72526400Y-111400453D01*
X72622720Y-111464812D01*
X72628023Y-111467090D01*
X72628026Y-111467092D01*
X72716707Y-111505192D01*
X72809228Y-111544942D01*
X72882244Y-111561464D01*
X73001579Y-111588467D01*
X73001584Y-111588468D01*
X73007216Y-111589742D01*
X73012987Y-111589969D01*
X73012989Y-111589969D01*
X73072756Y-111592317D01*
X73210053Y-111597712D01*
X73310499Y-111583148D01*
X73405231Y-111569413D01*
X73405236Y-111569412D01*
X73410945Y-111568584D01*
X73416409Y-111566729D01*
X73416414Y-111566728D01*
X73597693Y-111505192D01*
X73597698Y-111505190D01*
X73603165Y-111503334D01*
X73655879Y-111473813D01*
X73769428Y-111410222D01*
X73780276Y-111404147D01*
X73813772Y-111376289D01*
X73931913Y-111278031D01*
X73936345Y-111274345D01*
X74066147Y-111118276D01*
X74165334Y-110941165D01*
X74167190Y-110935698D01*
X74167192Y-110935693D01*
X74228728Y-110754414D01*
X74228729Y-110754409D01*
X74230584Y-110748945D01*
X74231412Y-110743236D01*
X74231413Y-110743231D01*
X74259179Y-110551727D01*
X74259712Y-110548053D01*
X74261232Y-110490000D01*
X74242658Y-110287859D01*
X74241090Y-110282299D01*
X74189125Y-110098046D01*
X74189124Y-110098044D01*
X74187557Y-110092487D01*
X74176978Y-110071033D01*
X74100331Y-109915609D01*
X74097776Y-109910428D01*
X73976320Y-109747779D01*
X73827258Y-109609987D01*
X73822375Y-109606906D01*
X73822371Y-109606903D01*
X73660464Y-109504748D01*
X73655581Y-109501667D01*
X73467039Y-109426446D01*
X73461379Y-109425320D01*
X73461375Y-109425319D01*
X73273613Y-109387971D01*
X73273610Y-109387971D01*
X73267946Y-109386844D01*
X73262171Y-109386768D01*
X73262167Y-109386768D01*
X73160793Y-109385441D01*
X73064971Y-109384187D01*
X73059274Y-109385166D01*
X73059273Y-109385166D01*
X72897546Y-109412956D01*
X72864910Y-109418564D01*
X72674463Y-109488824D01*
X72500010Y-109592612D01*
X72495670Y-109596418D01*
X72495666Y-109596421D01*
X72475723Y-109613911D01*
X72347392Y-109726455D01*
X72221720Y-109885869D01*
X72219031Y-109890980D01*
X72219029Y-109890983D01*
X72206073Y-109915609D01*
X72127203Y-110065515D01*
X72067007Y-110259378D01*
X72043148Y-110460964D01*
X70254500Y-110460964D01*
X70254500Y-107920964D01*
X72043148Y-107920964D01*
X72056424Y-108123522D01*
X72057845Y-108129118D01*
X72057846Y-108129123D01*
X72082868Y-108227645D01*
X72106392Y-108320269D01*
X72108809Y-108325512D01*
X72146010Y-108406208D01*
X72191377Y-108504616D01*
X72194710Y-108509332D01*
X72279894Y-108629865D01*
X72308533Y-108670389D01*
X72312675Y-108674424D01*
X72351248Y-108712000D01*
X72453938Y-108812035D01*
X72458742Y-108815245D01*
X72492046Y-108837498D01*
X72622720Y-108924812D01*
X72628023Y-108927090D01*
X72628026Y-108927092D01*
X72762546Y-108984886D01*
X72809228Y-109004942D01*
X72882244Y-109021464D01*
X73001579Y-109048467D01*
X73001584Y-109048468D01*
X73007216Y-109049742D01*
X73012987Y-109049969D01*
X73012989Y-109049969D01*
X73072756Y-109052317D01*
X73210053Y-109057712D01*
X73310499Y-109043148D01*
X73405231Y-109029413D01*
X73405236Y-109029412D01*
X73410945Y-109028584D01*
X73416409Y-109026729D01*
X73416414Y-109026728D01*
X73597693Y-108965192D01*
X73597698Y-108965190D01*
X73603165Y-108963334D01*
X73609619Y-108959720D01*
X73722093Y-108896731D01*
X73780276Y-108864147D01*
X73785490Y-108859811D01*
X73931913Y-108738031D01*
X73936345Y-108734345D01*
X73993463Y-108665669D01*
X74062453Y-108582718D01*
X74062455Y-108582715D01*
X74066147Y-108578276D01*
X74165334Y-108401165D01*
X74167190Y-108395698D01*
X74167192Y-108395693D01*
X74228728Y-108214414D01*
X74228729Y-108214409D01*
X74230584Y-108208945D01*
X74231412Y-108203236D01*
X74231413Y-108203231D01*
X74259179Y-108011727D01*
X74259712Y-108008053D01*
X74261232Y-107950000D01*
X74242658Y-107747859D01*
X74238813Y-107734225D01*
X74189125Y-107558046D01*
X74189124Y-107558044D01*
X74187557Y-107552487D01*
X74176978Y-107531033D01*
X74100331Y-107375609D01*
X74097776Y-107370428D01*
X73976320Y-107207779D01*
X73827258Y-107069987D01*
X73822375Y-107066906D01*
X73822371Y-107066903D01*
X73660464Y-106964748D01*
X73655581Y-106961667D01*
X73467039Y-106886446D01*
X73461379Y-106885320D01*
X73461375Y-106885319D01*
X73273613Y-106847971D01*
X73273610Y-106847971D01*
X73267946Y-106846844D01*
X73262171Y-106846768D01*
X73262167Y-106846768D01*
X73160793Y-106845441D01*
X73064971Y-106844187D01*
X73059274Y-106845166D01*
X73059273Y-106845166D01*
X72870607Y-106877585D01*
X72864910Y-106878564D01*
X72674463Y-106948824D01*
X72500010Y-107052612D01*
X72495670Y-107056418D01*
X72495666Y-107056421D01*
X72475723Y-107073911D01*
X72347392Y-107186455D01*
X72221720Y-107345869D01*
X72219031Y-107350980D01*
X72219029Y-107350983D01*
X72206073Y-107375609D01*
X72127203Y-107525515D01*
X72067007Y-107719378D01*
X72043148Y-107920964D01*
X70254500Y-107920964D01*
X70254500Y-104534933D01*
X72047500Y-104534933D01*
X72047501Y-106285066D01*
X72062266Y-106359301D01*
X72118516Y-106443484D01*
X72202699Y-106499734D01*
X72276933Y-106514500D01*
X73151858Y-106514500D01*
X74027066Y-106514499D01*
X74062818Y-106507388D01*
X74089126Y-106502156D01*
X74089128Y-106502155D01*
X74101301Y-106499734D01*
X74111621Y-106492839D01*
X74111622Y-106492838D01*
X74175168Y-106450377D01*
X74185484Y-106443484D01*
X74241734Y-106359301D01*
X74256500Y-106285067D01*
X74256499Y-104534934D01*
X74241734Y-104460699D01*
X74185484Y-104376516D01*
X74130029Y-104339462D01*
X74111620Y-104327161D01*
X74101301Y-104320266D01*
X74027067Y-104305500D01*
X73152142Y-104305500D01*
X72276934Y-104305501D01*
X72243399Y-104312171D01*
X72214874Y-104317844D01*
X72214872Y-104317845D01*
X72202699Y-104320266D01*
X72192379Y-104327161D01*
X72192378Y-104327162D01*
X72173966Y-104339465D01*
X72118516Y-104376516D01*
X72062266Y-104460699D01*
X72047500Y-104534933D01*
X70254500Y-104534933D01*
X70254500Y-101077964D01*
X72043148Y-101077964D01*
X72056424Y-101280522D01*
X72057845Y-101286118D01*
X72057846Y-101286123D01*
X72078119Y-101365945D01*
X72106392Y-101477269D01*
X72108809Y-101482512D01*
X72146010Y-101563208D01*
X72191377Y-101661616D01*
X72308533Y-101827389D01*
X72453938Y-101969035D01*
X72622720Y-102081812D01*
X72628023Y-102084090D01*
X72628026Y-102084092D01*
X72716707Y-102122192D01*
X72809228Y-102161942D01*
X72882244Y-102178464D01*
X73001579Y-102205467D01*
X73001584Y-102205468D01*
X73007216Y-102206742D01*
X73012987Y-102206969D01*
X73012989Y-102206969D01*
X73072756Y-102209317D01*
X73210053Y-102214712D01*
X73310499Y-102200148D01*
X73405231Y-102186413D01*
X73405236Y-102186412D01*
X73410945Y-102185584D01*
X73416409Y-102183729D01*
X73416414Y-102183728D01*
X73597693Y-102122192D01*
X73597698Y-102122190D01*
X73603165Y-102120334D01*
X73780276Y-102021147D01*
X73842934Y-101969035D01*
X73931913Y-101895031D01*
X73936345Y-101891345D01*
X74066147Y-101735276D01*
X74125845Y-101628677D01*
X74162510Y-101563208D01*
X74162511Y-101563206D01*
X74165334Y-101558165D01*
X74167190Y-101552698D01*
X74167192Y-101552693D01*
X74228728Y-101371414D01*
X74228729Y-101371409D01*
X74230584Y-101365945D01*
X74231412Y-101360236D01*
X74231413Y-101360231D01*
X74259179Y-101168727D01*
X74259712Y-101165053D01*
X74261232Y-101107000D01*
X74242658Y-100904859D01*
X74241090Y-100899299D01*
X74189125Y-100715046D01*
X74189124Y-100715044D01*
X74187557Y-100709487D01*
X74176978Y-100688033D01*
X74100331Y-100532609D01*
X74097776Y-100527428D01*
X73976320Y-100364779D01*
X73827258Y-100226987D01*
X73822375Y-100223906D01*
X73822371Y-100223903D01*
X73660464Y-100121748D01*
X73655581Y-100118667D01*
X73467039Y-100043446D01*
X73461379Y-100042320D01*
X73461375Y-100042319D01*
X73273613Y-100004971D01*
X73273610Y-100004971D01*
X73267946Y-100003844D01*
X73262171Y-100003768D01*
X73262167Y-100003768D01*
X73160793Y-100002441D01*
X73064971Y-100001187D01*
X73059274Y-100002166D01*
X73059273Y-100002166D01*
X72870607Y-100034585D01*
X72864910Y-100035564D01*
X72674463Y-100105824D01*
X72500010Y-100209612D01*
X72495670Y-100213418D01*
X72495666Y-100213421D01*
X72475723Y-100230911D01*
X72347392Y-100343455D01*
X72221720Y-100502869D01*
X72219031Y-100507980D01*
X72219029Y-100507983D01*
X72206073Y-100532609D01*
X72127203Y-100682515D01*
X72067007Y-100876378D01*
X72043148Y-101077964D01*
X70254500Y-101077964D01*
X70254500Y-96921669D01*
X71794001Y-96921669D01*
X71794371Y-96928490D01*
X71799895Y-96979352D01*
X71803521Y-96994604D01*
X71848676Y-97115054D01*
X71857214Y-97130649D01*
X71933715Y-97232724D01*
X71946276Y-97245285D01*
X72048351Y-97321786D01*
X72063946Y-97330324D01*
X72184394Y-97375478D01*
X72199649Y-97379105D01*
X72250514Y-97384631D01*
X72257328Y-97385000D01*
X72520180Y-97385000D01*
X72588301Y-97405002D01*
X72634794Y-97458658D01*
X72644898Y-97528932D01*
X72615404Y-97593512D01*
X72584605Y-97619284D01*
X72500010Y-97669612D01*
X72495670Y-97673418D01*
X72495666Y-97673421D01*
X72351733Y-97799648D01*
X72347392Y-97803455D01*
X72221720Y-97962869D01*
X72219031Y-97967980D01*
X72219029Y-97967983D01*
X72206073Y-97992609D01*
X72127203Y-98142515D01*
X72067007Y-98336378D01*
X72043148Y-98537964D01*
X72056424Y-98740522D01*
X72057845Y-98746118D01*
X72057846Y-98746123D01*
X72091133Y-98877188D01*
X72106392Y-98937269D01*
X72108809Y-98942512D01*
X72145168Y-99021380D01*
X72191377Y-99121616D01*
X72194710Y-99126332D01*
X72295893Y-99269503D01*
X72308533Y-99287389D01*
X72453938Y-99429035D01*
X72622720Y-99541812D01*
X72628023Y-99544090D01*
X72628026Y-99544092D01*
X72716707Y-99582192D01*
X72809228Y-99621942D01*
X72882244Y-99638464D01*
X73001579Y-99665467D01*
X73001584Y-99665468D01*
X73007216Y-99666742D01*
X73012987Y-99666969D01*
X73012989Y-99666969D01*
X73072756Y-99669317D01*
X73210053Y-99674712D01*
X73310499Y-99660148D01*
X73405231Y-99646413D01*
X73405236Y-99646412D01*
X73410945Y-99645584D01*
X73416409Y-99643729D01*
X73416414Y-99643728D01*
X73597693Y-99582192D01*
X73597698Y-99582190D01*
X73603165Y-99580334D01*
X73780276Y-99481147D01*
X73842934Y-99429035D01*
X73931913Y-99355031D01*
X73936345Y-99351345D01*
X74066147Y-99195276D01*
X74165334Y-99018165D01*
X74167190Y-99012698D01*
X74167192Y-99012693D01*
X74228728Y-98831414D01*
X74228729Y-98831409D01*
X74230584Y-98825945D01*
X74231412Y-98820236D01*
X74231413Y-98820231D01*
X74251774Y-98679798D01*
X74259712Y-98625053D01*
X74261232Y-98567000D01*
X74248060Y-98423650D01*
X74243187Y-98370613D01*
X74243186Y-98370610D01*
X74242658Y-98364859D01*
X74238162Y-98348917D01*
X74189125Y-98175046D01*
X74189124Y-98175044D01*
X74187557Y-98169487D01*
X74181905Y-98158024D01*
X74100331Y-97992609D01*
X74097776Y-97987428D01*
X73976320Y-97824779D01*
X73854287Y-97711972D01*
X73831503Y-97690911D01*
X73827258Y-97686987D01*
X73717224Y-97617561D01*
X73670286Y-97564294D01*
X73664926Y-97529096D01*
X80112729Y-97529096D01*
X80116615Y-97564294D01*
X80128243Y-97669612D01*
X80130113Y-97686553D01*
X80132723Y-97693684D01*
X80132723Y-97693686D01*
X80172893Y-97803455D01*
X80184553Y-97835319D01*
X80188789Y-97841622D01*
X80188789Y-97841623D01*
X80257994Y-97944610D01*
X80272908Y-97966805D01*
X80278527Y-97971918D01*
X80278528Y-97971919D01*
X80301266Y-97992609D01*
X80390076Y-98073419D01*
X80529293Y-98149008D01*
X80682522Y-98189207D01*
X80766477Y-98190526D01*
X80833319Y-98191576D01*
X80833322Y-98191576D01*
X80840916Y-98191695D01*
X80995332Y-98156329D01*
X81065742Y-98120917D01*
X81130072Y-98088563D01*
X81130075Y-98088561D01*
X81136855Y-98085151D01*
X81142626Y-98080222D01*
X81142629Y-98080220D01*
X81251537Y-97987203D01*
X81257314Y-97982269D01*
X81258855Y-97980125D01*
X81317875Y-97944610D01*
X81349793Y-97940500D01*
X83243254Y-97940500D01*
X83311375Y-97960502D01*
X83328050Y-97973304D01*
X83438076Y-98073419D01*
X83577293Y-98149008D01*
X83730522Y-98189207D01*
X83814477Y-98190526D01*
X83881319Y-98191576D01*
X83881322Y-98191576D01*
X83888916Y-98191695D01*
X84043332Y-98156329D01*
X84113742Y-98120917D01*
X84178072Y-98088563D01*
X84178075Y-98088561D01*
X84184855Y-98085151D01*
X84190626Y-98080222D01*
X84190629Y-98080220D01*
X84299536Y-97987204D01*
X84299536Y-97987203D01*
X84305314Y-97982269D01*
X84397755Y-97853624D01*
X84456842Y-97706641D01*
X84479162Y-97549807D01*
X84479307Y-97536000D01*
X84460276Y-97378733D01*
X84404280Y-97230546D01*
X84314553Y-97099992D01*
X84196275Y-96994611D01*
X84188889Y-96990700D01*
X84079756Y-96932917D01*
X84056274Y-96920484D01*
X83902633Y-96881892D01*
X83895034Y-96881852D01*
X83895033Y-96881852D01*
X83829181Y-96881507D01*
X83744221Y-96881062D01*
X83736841Y-96882834D01*
X83736839Y-96882834D01*
X83597563Y-96916271D01*
X83597560Y-96916272D01*
X83590184Y-96918043D01*
X83583441Y-96921523D01*
X83576314Y-96924174D01*
X83575421Y-96921774D01*
X83517757Y-96932917D01*
X83451833Y-96906563D01*
X83410622Y-96848752D01*
X83407209Y-96777837D01*
X83412765Y-96760486D01*
X83438006Y-96697698D01*
X83438008Y-96697691D01*
X83440842Y-96690641D01*
X83463162Y-96533807D01*
X83463307Y-96520000D01*
X83444276Y-96362733D01*
X83388280Y-96214546D01*
X83320208Y-96115500D01*
X83302855Y-96090251D01*
X83302854Y-96090249D01*
X83298553Y-96083992D01*
X83180275Y-95978611D01*
X83172889Y-95974700D01*
X83046988Y-95908039D01*
X83046989Y-95908039D01*
X83040274Y-95904484D01*
X82886633Y-95865892D01*
X82879034Y-95865852D01*
X82879033Y-95865852D01*
X82813181Y-95865507D01*
X82728221Y-95865062D01*
X82720841Y-95866834D01*
X82720839Y-95866834D01*
X82581563Y-95900271D01*
X82581560Y-95900272D01*
X82574184Y-95902043D01*
X82433414Y-95974700D01*
X82314039Y-96078838D01*
X82313198Y-96077874D01*
X82259349Y-96111050D01*
X82226157Y-96115500D01*
X81349906Y-96115500D01*
X81281785Y-96095498D01*
X81266087Y-96083577D01*
X81153946Y-95983664D01*
X81148275Y-95978611D01*
X81140889Y-95974700D01*
X81014988Y-95908039D01*
X81014989Y-95908039D01*
X81008274Y-95904484D01*
X80854633Y-95865892D01*
X80847034Y-95865852D01*
X80847033Y-95865852D01*
X80781181Y-95865507D01*
X80696221Y-95865062D01*
X80688841Y-95866834D01*
X80688839Y-95866834D01*
X80549563Y-95900271D01*
X80549560Y-95900272D01*
X80542184Y-95902043D01*
X80401414Y-95974700D01*
X80282039Y-96078838D01*
X80190950Y-96208444D01*
X80188190Y-96215524D01*
X80157380Y-96294548D01*
X80133406Y-96356037D01*
X80112729Y-96513096D01*
X80130113Y-96670553D01*
X80132723Y-96677684D01*
X80132723Y-96677686D01*
X80140047Y-96697698D01*
X80184553Y-96819319D01*
X80270713Y-96947538D01*
X80272908Y-96950805D01*
X80272364Y-96951171D01*
X80299440Y-97010753D01*
X80289205Y-97081008D01*
X80277776Y-97100903D01*
X80256272Y-97131500D01*
X80190950Y-97224444D01*
X80133406Y-97372037D01*
X80132414Y-97379570D01*
X80132414Y-97379571D01*
X80116106Y-97503446D01*
X80112729Y-97529096D01*
X73664926Y-97529096D01*
X73659597Y-97494107D01*
X73688552Y-97429282D01*
X73747956Y-97390403D01*
X73784460Y-97384999D01*
X74046669Y-97384999D01*
X74053490Y-97384629D01*
X74104352Y-97379105D01*
X74119604Y-97375479D01*
X74240054Y-97330324D01*
X74255649Y-97321786D01*
X74357724Y-97245285D01*
X74370285Y-97232724D01*
X74446786Y-97130649D01*
X74455324Y-97115054D01*
X74500478Y-96994606D01*
X74504105Y-96979351D01*
X74509631Y-96928486D01*
X74510000Y-96921672D01*
X74510000Y-96299115D01*
X74505525Y-96283876D01*
X74504135Y-96282671D01*
X74496452Y-96281000D01*
X71812116Y-96281000D01*
X71796877Y-96285475D01*
X71795672Y-96286865D01*
X71794001Y-96294548D01*
X71794001Y-96921669D01*
X70254500Y-96921669D01*
X70254500Y-95754885D01*
X71794000Y-95754885D01*
X71798475Y-95770124D01*
X71799865Y-95771329D01*
X71807548Y-95773000D01*
X72879885Y-95773000D01*
X72895124Y-95768525D01*
X72896329Y-95767135D01*
X72898000Y-95759452D01*
X72898000Y-95754885D01*
X73406000Y-95754885D01*
X73410475Y-95770124D01*
X73411865Y-95771329D01*
X73419548Y-95773000D01*
X74491884Y-95773000D01*
X74507123Y-95768525D01*
X74508328Y-95767135D01*
X74509999Y-95759452D01*
X74509999Y-95132331D01*
X74509629Y-95125510D01*
X74504105Y-95074648D01*
X74500479Y-95059396D01*
X74455324Y-94938946D01*
X74446786Y-94923351D01*
X74370285Y-94821276D01*
X74357724Y-94808715D01*
X74255649Y-94732214D01*
X74240054Y-94723676D01*
X74119606Y-94678522D01*
X74104351Y-94674895D01*
X74053486Y-94669369D01*
X74046672Y-94669000D01*
X73424115Y-94669000D01*
X73408876Y-94673475D01*
X73407671Y-94674865D01*
X73406000Y-94682548D01*
X73406000Y-95754885D01*
X72898000Y-95754885D01*
X72898000Y-94687116D01*
X72893525Y-94671877D01*
X72892135Y-94670672D01*
X72884452Y-94669001D01*
X72257331Y-94669001D01*
X72250510Y-94669371D01*
X72199648Y-94674895D01*
X72184396Y-94678521D01*
X72063946Y-94723676D01*
X72048351Y-94732214D01*
X71946276Y-94808715D01*
X71933715Y-94821276D01*
X71857214Y-94923351D01*
X71848676Y-94938946D01*
X71803522Y-95059394D01*
X71799895Y-95074649D01*
X71794369Y-95125514D01*
X71794000Y-95132328D01*
X71794000Y-95754885D01*
X70254500Y-95754885D01*
X70254500Y-92964000D01*
X84276715Y-92964000D01*
X84295772Y-93108754D01*
X84351645Y-93243642D01*
X84440526Y-93359474D01*
X84447076Y-93364500D01*
X84447079Y-93364503D01*
X84549804Y-93443327D01*
X84556357Y-93448355D01*
X84691246Y-93504228D01*
X84836000Y-93523285D01*
X84844188Y-93522207D01*
X84972566Y-93505306D01*
X84980754Y-93504228D01*
X85115643Y-93448355D01*
X85122196Y-93443327D01*
X85224921Y-93364503D01*
X85224924Y-93364500D01*
X85231474Y-93359474D01*
X85320355Y-93243642D01*
X85346493Y-93180540D01*
X85373807Y-93139664D01*
X86666794Y-91846677D01*
X86676234Y-91839135D01*
X86675911Y-91838755D01*
X86682747Y-91832937D01*
X86690339Y-91828147D01*
X86725672Y-91788140D01*
X86731017Y-91782454D01*
X86742351Y-91771120D01*
X86745038Y-91767534D01*
X86745043Y-91767529D01*
X86748557Y-91762841D01*
X86754938Y-91755003D01*
X86780060Y-91726557D01*
X86786001Y-91719830D01*
X86789815Y-91711707D01*
X86791661Y-91708896D01*
X86800072Y-91694897D01*
X86801686Y-91691948D01*
X86807070Y-91684765D01*
X86823542Y-91640826D01*
X86827469Y-91631506D01*
X86843602Y-91597144D01*
X86843602Y-91597143D01*
X86847417Y-91589018D01*
X86848798Y-91580147D01*
X86849783Y-91576925D01*
X86853920Y-91561154D01*
X86854644Y-91557860D01*
X86857798Y-91549448D01*
X86861276Y-91502650D01*
X86862426Y-91492626D01*
X86864500Y-91479303D01*
X86864500Y-91463938D01*
X86864846Y-91454601D01*
X86867842Y-91414282D01*
X86868507Y-91405334D01*
X86866634Y-91396559D01*
X86866041Y-91387863D01*
X86864500Y-91373263D01*
X86864500Y-87124073D01*
X86874091Y-87075855D01*
X86897068Y-87020383D01*
X86900228Y-87012754D01*
X86919285Y-86868000D01*
X86900228Y-86723246D01*
X86844355Y-86588358D01*
X86786055Y-86512380D01*
X86760501Y-86479077D01*
X86760500Y-86479076D01*
X86755474Y-86472526D01*
X86748924Y-86467500D01*
X86748921Y-86467497D01*
X86646196Y-86388673D01*
X86646194Y-86388672D01*
X86639643Y-86383645D01*
X86504754Y-86327772D01*
X86360000Y-86308715D01*
X86351812Y-86309793D01*
X86223432Y-86326694D01*
X86223430Y-86326695D01*
X86215246Y-86327772D01*
X86167430Y-86347578D01*
X86087986Y-86380485D01*
X86087984Y-86380486D01*
X86080358Y-86383645D01*
X85964526Y-86472526D01*
X85875645Y-86588358D01*
X85819772Y-86723246D01*
X85800715Y-86868000D01*
X85819772Y-87012754D01*
X85822932Y-87020383D01*
X85845909Y-87075855D01*
X85855500Y-87124073D01*
X85855500Y-91178840D01*
X85835498Y-91246961D01*
X85818595Y-91267935D01*
X85036125Y-92050404D01*
X84660336Y-92426193D01*
X84619460Y-92453507D01*
X84563986Y-92476485D01*
X84563984Y-92476486D01*
X84556358Y-92479645D01*
X84440526Y-92568526D01*
X84351645Y-92684358D01*
X84295772Y-92819246D01*
X84276715Y-92964000D01*
X70254500Y-92964000D01*
X70254500Y-90518696D01*
X75439129Y-90518696D01*
X75447821Y-90597424D01*
X75453084Y-90645091D01*
X75456513Y-90676153D01*
X75510953Y-90824919D01*
X75515189Y-90831222D01*
X75515189Y-90831223D01*
X75583462Y-90932823D01*
X75599308Y-90956405D01*
X75604927Y-90961518D01*
X75604928Y-90961519D01*
X75710860Y-91057909D01*
X75716476Y-91063019D01*
X75855693Y-91138608D01*
X76008922Y-91178807D01*
X76092877Y-91180126D01*
X76159719Y-91181176D01*
X76159722Y-91181176D01*
X76167316Y-91181295D01*
X76321732Y-91145929D01*
X76392142Y-91110517D01*
X76456472Y-91078163D01*
X76456475Y-91078161D01*
X76463255Y-91074751D01*
X76469026Y-91069822D01*
X76469029Y-91069820D01*
X76577936Y-90976804D01*
X76577936Y-90976803D01*
X76583714Y-90971869D01*
X76676155Y-90843224D01*
X76735242Y-90696241D01*
X76746050Y-90620296D01*
X77369529Y-90620296D01*
X77386913Y-90777753D01*
X77389523Y-90784884D01*
X77389523Y-90784886D01*
X77410872Y-90843224D01*
X77441353Y-90926519D01*
X77445589Y-90932822D01*
X77445589Y-90932823D01*
X77461436Y-90956405D01*
X77529708Y-91058005D01*
X77535327Y-91063118D01*
X77535328Y-91063119D01*
X77641260Y-91159509D01*
X77646876Y-91164619D01*
X77786093Y-91240208D01*
X77939322Y-91280407D01*
X78023277Y-91281726D01*
X78090119Y-91282776D01*
X78090122Y-91282776D01*
X78097716Y-91282895D01*
X78252132Y-91247529D01*
X78322542Y-91212117D01*
X78386872Y-91179763D01*
X78386875Y-91179761D01*
X78393655Y-91176351D01*
X78399426Y-91171422D01*
X78399429Y-91171420D01*
X78508336Y-91078404D01*
X78508336Y-91078403D01*
X78514114Y-91073469D01*
X78606555Y-90944824D01*
X78665642Y-90797841D01*
X78671765Y-90754815D01*
X78687381Y-90645091D01*
X78687381Y-90645088D01*
X78687962Y-90641007D01*
X78688107Y-90627200D01*
X78669076Y-90469933D01*
X78613080Y-90321746D01*
X78543925Y-90221124D01*
X78527655Y-90197451D01*
X78527654Y-90197449D01*
X78523353Y-90191192D01*
X78475481Y-90148539D01*
X78437926Y-90088290D01*
X78433300Y-90054463D01*
X78433300Y-88593078D01*
X78453302Y-88524957D01*
X78502686Y-88480513D01*
X78590071Y-88436563D01*
X78596855Y-88433151D01*
X78602626Y-88428222D01*
X78602629Y-88428220D01*
X78711536Y-88335204D01*
X78711536Y-88335203D01*
X78717314Y-88330269D01*
X78809755Y-88201624D01*
X78868842Y-88054641D01*
X78883266Y-87953289D01*
X78890581Y-87901891D01*
X78890581Y-87901888D01*
X78891162Y-87897807D01*
X78891307Y-87884000D01*
X78872276Y-87726733D01*
X78816280Y-87578546D01*
X78726553Y-87447992D01*
X78608275Y-87342611D01*
X78600889Y-87338700D01*
X78474988Y-87272039D01*
X78474989Y-87272039D01*
X78468274Y-87268484D01*
X78314633Y-87229892D01*
X78307034Y-87229852D01*
X78307033Y-87229852D01*
X78241181Y-87229507D01*
X78156221Y-87229062D01*
X78148841Y-87230834D01*
X78148839Y-87230834D01*
X78009563Y-87264271D01*
X78009560Y-87264272D01*
X78002184Y-87266043D01*
X77861414Y-87338700D01*
X77742039Y-87442838D01*
X77650950Y-87572444D01*
X77593406Y-87720037D01*
X77592414Y-87727570D01*
X77592414Y-87727571D01*
X77577556Y-87840434D01*
X77572729Y-87877096D01*
X77590113Y-88034553D01*
X77592722Y-88041684D01*
X77592723Y-88041686D01*
X77616626Y-88107004D01*
X77624300Y-88150305D01*
X77624300Y-90054196D01*
X77604298Y-90122317D01*
X77581130Y-90149145D01*
X77538839Y-90186038D01*
X77447750Y-90315644D01*
X77390206Y-90463237D01*
X77389214Y-90470770D01*
X77389214Y-90470771D01*
X77381452Y-90529734D01*
X77369529Y-90620296D01*
X76746050Y-90620296D01*
X76757562Y-90539407D01*
X76757707Y-90525600D01*
X76738676Y-90368333D01*
X76682680Y-90220146D01*
X76608000Y-90111485D01*
X76597255Y-90095851D01*
X76597254Y-90095849D01*
X76592953Y-90089592D01*
X76545081Y-90046939D01*
X76507526Y-89986690D01*
X76502900Y-89952863D01*
X76502900Y-89066978D01*
X76522902Y-88998857D01*
X76547069Y-88971167D01*
X76577936Y-88944804D01*
X76583714Y-88939869D01*
X76676155Y-88811224D01*
X76735242Y-88664241D01*
X76745370Y-88593078D01*
X76756981Y-88511491D01*
X76756981Y-88511488D01*
X76757562Y-88507407D01*
X76757707Y-88493600D01*
X76738676Y-88336333D01*
X76682680Y-88188146D01*
X76651996Y-88143500D01*
X76597255Y-88063851D01*
X76597254Y-88063849D01*
X76592953Y-88057592D01*
X76474675Y-87952211D01*
X76467289Y-87948300D01*
X76341388Y-87881639D01*
X76341389Y-87881639D01*
X76334674Y-87878084D01*
X76181033Y-87839492D01*
X76173434Y-87839452D01*
X76173433Y-87839452D01*
X76107581Y-87839107D01*
X76022621Y-87838662D01*
X76015241Y-87840434D01*
X76015239Y-87840434D01*
X75875963Y-87873871D01*
X75875960Y-87873872D01*
X75868584Y-87875643D01*
X75727814Y-87948300D01*
X75608439Y-88052438D01*
X75517350Y-88182044D01*
X75459806Y-88329637D01*
X75439129Y-88486696D01*
X75456513Y-88644153D01*
X75510953Y-88792919D01*
X75515189Y-88799222D01*
X75515189Y-88799223D01*
X75595074Y-88918105D01*
X75595077Y-88918108D01*
X75599308Y-88924405D01*
X75604922Y-88929513D01*
X75652700Y-88972988D01*
X75689622Y-89033629D01*
X75693900Y-89066182D01*
X75693900Y-89952596D01*
X75673898Y-90020717D01*
X75650730Y-90047545D01*
X75608439Y-90084438D01*
X75517350Y-90214044D01*
X75514590Y-90221124D01*
X75474978Y-90322724D01*
X75459806Y-90361637D01*
X75458814Y-90369170D01*
X75458814Y-90369171D01*
X75445549Y-90469933D01*
X75439129Y-90518696D01*
X70254500Y-90518696D01*
X70254500Y-66905313D01*
X85813500Y-66905313D01*
X85813501Y-68555446D01*
X85828266Y-68629681D01*
X85884516Y-68713864D01*
X85968699Y-68770114D01*
X86042933Y-68784880D01*
X86867866Y-68784880D01*
X87693066Y-68784879D01*
X87728818Y-68777768D01*
X87755126Y-68772536D01*
X87755128Y-68772535D01*
X87767301Y-68770114D01*
X87777621Y-68763219D01*
X87777622Y-68763218D01*
X87841168Y-68720757D01*
X87851484Y-68713864D01*
X87907734Y-68629681D01*
X87922500Y-68555447D01*
X87922499Y-66905314D01*
X87907734Y-66831079D01*
X87851484Y-66746896D01*
X87767301Y-66690646D01*
X87693067Y-66675880D01*
X87431456Y-66675880D01*
X87363335Y-66655878D01*
X87316842Y-66602222D01*
X87306738Y-66531948D01*
X87336232Y-66467368D01*
X87378206Y-66435685D01*
X87519511Y-66369794D01*
X87529006Y-66364311D01*
X87581048Y-66327871D01*
X87589424Y-66317392D01*
X87582356Y-66303946D01*
X86880812Y-65602402D01*
X86866868Y-65594788D01*
X86865035Y-65594919D01*
X86858420Y-65599170D01*
X86152923Y-66304667D01*
X86146493Y-66316442D01*
X86155789Y-66328457D01*
X86206994Y-66364311D01*
X86216489Y-66369794D01*
X86357795Y-66435686D01*
X86411080Y-66482604D01*
X86430541Y-66550881D01*
X86409999Y-66618841D01*
X86355976Y-66664906D01*
X86304546Y-66675881D01*
X86042934Y-66675881D01*
X86007182Y-66682992D01*
X85980874Y-66688224D01*
X85980872Y-66688225D01*
X85968699Y-66690646D01*
X85958379Y-66697541D01*
X85958378Y-66697542D01*
X85897985Y-66737896D01*
X85884516Y-66746896D01*
X85828266Y-66831079D01*
X85813500Y-66905313D01*
X70254500Y-66905313D01*
X70254500Y-65235855D01*
X85555483Y-65235855D01*
X85574472Y-65452899D01*
X85576375Y-65463692D01*
X85632764Y-65674141D01*
X85636510Y-65684433D01*
X85728586Y-65881891D01*
X85734069Y-65891386D01*
X85770509Y-65943428D01*
X85780988Y-65951804D01*
X85794434Y-65944736D01*
X86495978Y-65243192D01*
X86502356Y-65231512D01*
X87232408Y-65231512D01*
X87232539Y-65233345D01*
X87236790Y-65239960D01*
X87942287Y-65945457D01*
X87954062Y-65951887D01*
X87966077Y-65942591D01*
X88001931Y-65891386D01*
X88007414Y-65881891D01*
X88099490Y-65684433D01*
X88103236Y-65674141D01*
X88159625Y-65463692D01*
X88161528Y-65452899D01*
X88180517Y-65235855D01*
X88180517Y-65224905D01*
X88161528Y-65007861D01*
X88159625Y-64997068D01*
X88103236Y-64786619D01*
X88099490Y-64776327D01*
X88007414Y-64578869D01*
X88001931Y-64569374D01*
X87965491Y-64517332D01*
X87955012Y-64508956D01*
X87941566Y-64516024D01*
X87240022Y-65217568D01*
X87232408Y-65231512D01*
X86502356Y-65231512D01*
X86503592Y-65229248D01*
X86503461Y-65227415D01*
X86499210Y-65220800D01*
X85793713Y-64515303D01*
X85781938Y-64508873D01*
X85769923Y-64518169D01*
X85734069Y-64569374D01*
X85728586Y-64578869D01*
X85636510Y-64776327D01*
X85632764Y-64786619D01*
X85576375Y-64997068D01*
X85574472Y-65007861D01*
X85555483Y-65224905D01*
X85555483Y-65235855D01*
X70254500Y-65235855D01*
X70254500Y-64143368D01*
X86146576Y-64143368D01*
X86153644Y-64156814D01*
X86855188Y-64858358D01*
X86869132Y-64865972D01*
X86870965Y-64865841D01*
X86877580Y-64861590D01*
X87583077Y-64156093D01*
X87589507Y-64144318D01*
X87580211Y-64132303D01*
X87529006Y-64096449D01*
X87519511Y-64090966D01*
X87322053Y-63998890D01*
X87311761Y-63995144D01*
X87101312Y-63938755D01*
X87090519Y-63936852D01*
X86873475Y-63917863D01*
X86862525Y-63917863D01*
X86645481Y-63936852D01*
X86634688Y-63938755D01*
X86424239Y-63995144D01*
X86413947Y-63998890D01*
X86216489Y-64090966D01*
X86206994Y-64096449D01*
X86154952Y-64132889D01*
X86146576Y-64143368D01*
X70254500Y-64143368D01*
X70254500Y-60380500D01*
X70274502Y-60312379D01*
X70328158Y-60265886D01*
X70380500Y-60254500D01*
X102490000Y-60254500D01*
X102558121Y-60274502D01*
G37*
%TD.AperFunction*%
%TD*%
%TA.AperFunction,Conductor*%
%TO.N,/Driver/bus_cur+*%
G36*
X146304000Y-104595810D02*
G01*
X146283998Y-104663931D01*
X146267095Y-104684905D01*
X145832905Y-105119095D01*
X145770593Y-105153121D01*
X145743810Y-105156000D01*
X143764000Y-105156000D01*
X143256000Y-105664000D01*
X143256000Y-108586000D01*
X143235998Y-108654121D01*
X143182342Y-108700614D01*
X143130000Y-108712000D01*
X140334000Y-108712000D01*
X140265879Y-108691998D01*
X140219386Y-108638342D01*
X140208000Y-108586000D01*
X140208000Y-101600000D01*
X140716000Y-101092000D01*
X146304000Y-101092000D01*
X146304000Y-104595810D01*
G37*
%TD.AperFunction*%
%TD*%
%TA.AperFunction,Conductor*%
%TO.N,GND*%
G36*
X104648000Y-62484000D02*
G01*
X101600000Y-62484000D01*
X101600000Y-60960000D01*
X104648000Y-60960000D01*
X104648000Y-62484000D01*
G37*
%TD.AperFunction*%
%TD*%
%TA.AperFunction,Conductor*%
%TO.N,GND*%
G36*
X164084000Y-111760000D02*
G01*
X162560000Y-111760000D01*
X162560000Y-108712000D01*
X164084000Y-108712000D01*
X164084000Y-111760000D01*
G37*
%TD.AperFunction*%
%TD*%
M02*
